<?xml version="1.0" encoding="utf-8"?>
<!-- Generator: Adobe Illustrator 16.0.0, SVG Export Plug-In . SVG Version: 6.00 Build 0)  -->
<!DOCTYPE svg PUBLIC "-//W3C//DTD SVG 1.1//EN" "http://www.w3.org/Graphics/SVG/1.1/DTD/svg11.dtd">
<svg version="1.1" id="Calque_1" xmlns="http://www.w3.org/2000/svg" xmlns:xlink="http://www.w3.org/1999/xlink" x="0px" y="0px"
	 width="414.039px" height="44.832px" viewBox="0 0 414.039 44.832" enable-background="new 0 0 414.039 44.832"
	 xml:space="preserve">
<g>
	<path fill="#666666" d="M17.904,14.064c-1.088,0.128-2.448,0.192-4.08,0.192h-3.12c-1.121,0-2.136,0.056-3.048,0.168
		c-0.912,0.112-1.688,0.384-2.328,0.816c-0.641,0.432-1.145,1.064-1.512,1.896c-0.369,0.833-0.552,1.984-0.552,3.456
		c0,1.313,0.208,2.352,0.624,3.12c0.416,0.768,0.96,1.344,1.632,1.728c0.672,0.384,1.44,0.624,2.304,0.72s1.759,0.144,2.688,0.144
		h3.6c1.375,0,2.456,0.072,3.24,0.216c0.784,0.144,1.176,0.488,1.176,1.032c0,0.48-0.44,0.776-1.32,0.888
		c-0.88,0.112-1.912,0.168-3.096,0.168h-3.984c-1.056,0-2.016,0.056-2.88,0.168c-0.864,0.112-1.6,0.4-2.208,0.864
		s-1.072,1.16-1.392,2.088c-0.32,0.928-0.48,2.207-0.48,3.84c0,1.313,0.184,2.376,0.552,3.191c0.368,0.816,0.864,1.457,1.488,1.92
		c0.624,0.465,1.368,0.777,2.232,0.937c0.864,0.161,1.776,0.239,2.736,0.239H15.6c1.44,0,2.6,0.097,3.48,0.289
		c0.88,0.191,1.32,0.561,1.32,1.104c0,0.416-0.449,0.68-1.344,0.792c-0.896,0.112-2.16,0.168-3.792,0.168H5.568
		c-1.344,0-2.384-0.04-3.12-0.12c-0.736-0.079-1.28-0.295-1.632-0.647C0.464,43.088,0.24,42.6,0.144,41.977
		C0.048,41.352,0,40.465,0,39.313V17.664c0-1.279,0.04-2.344,0.12-3.192c0.08-0.848,0.328-1.479,0.744-1.896
		c0.319-0.288,0.784-0.48,1.392-0.576c0.607-0.096,1.408-0.144,2.4-0.144h11.136c1.28,0,2.224,0.089,2.832,0.264
		c0.608,0.176,0.912,0.488,0.912,0.936C19.536,13.601,18.992,13.937,17.904,14.064z M11.808,2.64
		c-0.192,0.736-0.416,1.464-0.672,2.184c-0.256,0.72-0.544,1.344-0.864,1.872C9.952,7.224,9.68,7.488,9.456,7.488
		c-0.288,0-0.472-0.104-0.552-0.312c-0.08-0.208-0.12-0.6-0.12-1.176c0-0.352,0.056-0.864,0.168-1.536
		c0.112-0.672,0.271-1.336,0.48-1.992C9.64,1.817,9.896,1.241,10.2,0.744C10.504,0.249,10.864,0,11.28,0
		c0.544,0,0.816,0.32,0.816,0.96C12.096,1.344,12,1.904,11.808,2.64z"/>
	<path fill="#666666" d="M37.68,25.056c-0.384,0-0.833-0.048-1.344-0.144c-0.064,0-0.136-0.007-0.216-0.024
		c-0.08-0.016-0.152-0.024-0.216-0.024c-0.288-0.064-0.584-0.112-0.888-0.144c-0.305-0.032-0.665-0.048-1.08-0.048
		c-1.184,0-2.296,0.224-3.336,0.672c-1.041,0.448-1.944,1.072-2.712,1.872c-0.768,0.8-1.376,1.76-1.824,2.879
		c-0.448,1.121-0.672,2.369-0.672,3.744c0,1.248,0.24,2.408,0.72,3.48c0.48,1.072,1.12,2.008,1.92,2.809
		c0.799,0.799,1.728,1.424,2.784,1.871c1.056,0.449,2.144,0.672,3.264,0.672c0.031,0,0.144-0.008,0.336-0.023s0.4-0.04,0.624-0.072
		c0.064,0,0.127-0.008,0.192-0.023c0.064-0.016,0.127-0.024,0.192-0.024c0.32-0.063,0.648-0.112,0.984-0.144
		c0.336-0.032,0.648-0.049,0.936-0.049c0.352,0,0.648,0.041,0.888,0.12c0.24,0.081,0.36,0.249,0.36,0.504
		c0,0.353-0.176,0.648-0.528,0.888c-0.353,0.24-0.776,0.433-1.272,0.576c-0.497,0.145-1.016,0.248-1.56,0.313
		c-0.544,0.063-1.024,0.096-1.44,0.096c-0.992,0-1.904-0.104-2.736-0.313c-0.833-0.208-1.577-0.463-2.232-0.768
		c-0.656-0.304-1.208-0.615-1.656-0.936c-0.448-0.32-0.784-0.607-1.008-0.864l-0.048-0.048h0.048c-0.161-0.127-0.44-0.4-0.84-0.816
		c-0.4-0.415-0.808-0.967-1.224-1.656c-0.417-0.688-0.776-1.512-1.08-2.472c-0.305-0.96-0.456-2.048-0.456-3.264
		c0-1.855,0.336-3.495,1.008-4.92c0.672-1.424,1.552-2.6,2.64-3.528c1.087-0.928,2.32-1.632,3.696-2.112
		c1.375-0.48,2.751-0.72,4.128-0.72h0.096c0.288,0,0.696,0.032,1.224,0.096c0.528,0.064,1.056,0.168,1.584,0.312
		s0.984,0.336,1.368,0.576c0.384,0.24,0.576,0.521,0.576,0.84C38.88,24.785,38.479,25.056,37.68,25.056z"/>
	<path fill="#666666" d="M55.896,23.064c0.24,0.144,0.36,0.296,0.36,0.456c0,0.512-0.24,0.84-0.72,0.984
		c-0.48,0.144-1.041,0.296-1.68,0.456c-0.544,0.096-1.032,0.216-1.464,0.36c-0.432,0.144-0.824,0.312-1.176,0.504
		c-0.353,0.192-0.696,0.416-1.032,0.672c-0.336,0.257-0.681,0.561-1.032,0.912c-0.288,0.288-0.576,0.632-0.864,1.032
		c-0.288,0.4-0.552,0.896-0.792,1.487c-0.24,0.593-0.432,1.297-0.576,2.112s-0.216,1.769-0.216,2.856v5.904
		c0,0.832-0.104,1.6-0.312,2.303c-0.208,0.705-0.552,1.057-1.032,1.057s-0.84-0.313-1.08-0.936c-0.24-0.625-0.36-1.272-0.36-1.944
		V26.928c0-0.352,0.016-0.728,0.048-1.128c0.032-0.4,0.12-0.775,0.264-1.128c0.144-0.352,0.36-0.64,0.648-0.864
		c0.288-0.224,0.688-0.336,1.2-0.336c0.288,0,0.543,0.017,0.768,0.048c0.224,0.032,0.432,0.081,0.624,0.144h-0.096
		c0.063,0,0.127,0.008,0.192,0.024c0.064,0.017,0.127,0.024,0.192,0.024c0.352,0.096,0.688,0.176,1.008,0.24
		c0.319,0.064,0.672,0.096,1.056,0.096c0.832,0,1.464-0.072,1.896-0.216c0.432-0.144,0.84-0.312,1.224-0.504
		c0.288-0.16,0.576-0.28,0.864-0.36c0.288-0.08,0.624-0.12,1.008-0.12C55.296,22.848,55.656,22.92,55.896,23.064z"/>
	<path fill="#666666" d="M63.023,41.137c0,0.287-0.024,0.6-0.072,0.936c-0.048,0.336-0.12,0.664-0.216,0.984
		c-0.096,0.32-0.232,0.584-0.408,0.791c-0.176,0.209-0.408,0.313-0.696,0.313c-0.256,0-0.464-0.111-0.624-0.336
		c-0.16-0.224-0.288-0.487-0.384-0.792c-0.096-0.304-0.161-0.632-0.192-0.983c-0.032-0.353-0.048-0.656-0.048-0.912V26.352
		c0-0.319,0.016-0.688,0.048-1.104c0.031-0.416,0.096-0.808,0.192-1.176c0.096-0.368,0.224-0.68,0.384-0.936
		c0.16-0.256,0.368-0.384,0.624-0.384c0.288,0,0.528,0.128,0.72,0.384c0.192,0.256,0.336,0.568,0.432,0.936
		c0.096,0.368,0.16,0.76,0.192,1.176c0.031,0.417,0.048,0.785,0.048,1.104V41.137z M60.767,13.992
		c-0.161-0.208-0.24-0.439-0.24-0.696c0-0.256,0.096-0.496,0.288-0.72c0.192-0.224,0.463-0.336,0.816-0.336
		c0.352,0,0.631,0.112,0.84,0.336c0.208,0.224,0.312,0.464,0.312,0.72c0,0.256-0.112,0.488-0.336,0.696
		c-0.224,0.208-0.496,0.312-0.816,0.312C61.215,14.304,60.927,14.201,60.767,13.992z"/>
	<path fill="#666666" d="M68.351,23.544c0.288,0.24,0.552,0.568,0.792,0.984c0.24,0.416,0.463,0.88,0.672,1.392
		c0.208,0.512,0.408,1.024,0.6,1.536l1.344,3.744c0.255,0.736,0.528,1.44,0.816,2.112s0.616,1.271,0.984,1.8
		c0.368,0.528,0.784,0.952,1.248,1.272c0.463,0.32,1,0.479,1.608,0.479c0.576,0,1.08-0.159,1.512-0.479
		c0.432-0.32,0.823-0.736,1.176-1.248c0.352-0.512,0.664-1.096,0.936-1.752c0.271-0.656,0.536-1.32,0.792-1.992l1.488-3.696
		l0.144-0.432c0.192-0.448,0.376-0.896,0.552-1.344c0.175-0.448,0.375-0.856,0.6-1.224c0.223-0.368,0.463-0.664,0.72-0.888
		c0.256-0.224,0.528-0.336,0.816-0.336c0.384,0,0.576,0.305,0.576,0.912c0,0.736-0.384,2.064-1.152,3.984h-0.048L80.783,38.4
		c-0.353,0.928-0.672,1.752-0.96,2.472s-0.6,1.329-0.936,1.824c-0.336,0.497-0.712,0.872-1.128,1.128
		c-0.417,0.256-0.929,0.384-1.536,0.384c-0.576,0-1.064-0.136-1.464-0.407c-0.401-0.271-0.752-0.641-1.056-1.104
		c-0.305-0.464-0.593-1.016-0.864-1.656c-0.272-0.64-0.552-1.327-0.84-2.063l-0.24-0.576l-4.08-10.464
		c-0.353-0.832-0.624-1.576-0.816-2.232c-0.192-0.655-0.288-1.159-0.288-1.512c0-0.384,0.072-0.648,0.216-0.792
		s0.344-0.216,0.6-0.216C67.742,23.184,68.063,23.304,68.351,23.544z"/>
	<path fill="#666666" d="M109.246,37.776c-0.544,1.344-1.32,2.528-2.328,3.552c-1.008,1.024-2.225,1.848-3.648,2.473
		c-1.424,0.623-3.032,0.936-4.824,0.936c-1.536,0-3-0.257-4.392-0.768c-1.392-0.512-2.616-1.248-3.672-2.209
		c-1.056-0.959-1.896-2.127-2.52-3.504c-0.624-1.375-0.936-2.928-0.936-4.656c0-1.759,0.328-3.343,0.984-4.751
		c0.655-1.408,1.52-2.592,2.592-3.552c1.072-0.96,2.296-1.696,3.672-2.208c1.375-0.512,2.8-0.768,4.272-0.768
		c1.504,0,2.952,0.248,4.344,0.744c1.392,0.497,2.632,1.224,3.72,2.184s1.952,2.145,2.592,3.552c0.64,1.409,0.96,3.008,0.96,4.799
		C110.062,35.04,109.79,36.432,109.246,37.776z M90.406,36.816c0.4,1.056,0.976,2.008,1.728,2.855
		c0.751,0.849,1.664,1.529,2.736,2.041c1.072,0.512,2.263,0.768,3.576,0.768c1.12,0,2.2-0.217,3.24-0.648
		c1.04-0.432,1.968-1.039,2.784-1.824c0.816-0.783,1.464-1.719,1.944-2.808c0.48-1.087,0.72-2.288,0.72-3.601
		c0-1.344-0.232-2.574-0.696-3.695c-0.464-1.12-1.097-2.08-1.896-2.88c-0.8-0.8-1.721-1.424-2.76-1.872
		c-1.041-0.448-2.153-0.672-3.336-0.672c-1.216,0-2.352,0.24-3.408,0.72c-1.056,0.48-1.968,1.128-2.736,1.944
		c-0.768,0.816-1.376,1.784-1.824,2.905c-0.449,1.119-0.672,2.303-0.672,3.551C89.806,34.688,90.005,35.76,90.406,36.816z"/>
	<path fill="#666666" d="M117.021,23.904c0.16,0.064,0.367,0.12,0.624,0.168c0.256,0.048,0.64,0.072,1.152,0.072
		c0.864,0,1.528-0.079,1.992-0.24c0.463-0.16,0.919-0.352,1.368-0.576h-0.048c0.448-0.224,0.992-0.439,1.632-0.648
		c0.64-0.208,1.6-0.312,2.88-0.312c1.023,0,2,0.144,2.928,0.432c0.928,0.288,1.752,0.784,2.472,1.488
		c0.72,0.705,1.288,1.656,1.704,2.856c0.416,1.2,0.624,2.696,0.624,4.489v8.592c0,0.479-0.024,0.952-0.072,1.416
		s-0.12,0.888-0.216,1.271c-0.096,0.385-0.232,0.696-0.408,0.936c-0.176,0.24-0.392,0.36-0.648,0.36
		c-0.833,0-1.248-0.928-1.248-2.784V35.52c0-2.431-0.256-4.375-0.768-5.832c-0.512-1.455-1.184-2.575-2.016-3.359
		c-0.832-0.784-1.784-1.296-2.856-1.536c-1.072-0.24-2.168-0.36-3.288-0.36c-1.121,0-2.104,0.232-2.952,0.696
		c-0.848,0.464-1.577,1.096-2.184,1.896c-0.608,0.8-1.064,1.744-1.368,2.831c-0.304,1.089-0.456,2.257-0.456,3.505v7.44
		c0,1.023-0.12,1.848-0.36,2.471c-0.24,0.625-0.632,0.937-1.176,0.937c-0.32,0-0.6-0.239-0.84-0.72c-0.24-0.48-0.36-1.119-0.36-1.92
		V27.36c0-1.024,0.112-1.92,0.336-2.688c0.224-0.768,0.607-1.152,1.152-1.152c0.607,0,1.08,0.032,1.416,0.096
		c0.336,0.064,0.631,0.144,0.888,0.24l0.144,0.048H117.021z"/>
	<path fill="#666666" d="M146.973,22.344c0.48,0.08,0.943,0.2,1.392,0.36c0.448,0.161,0.832,0.36,1.152,0.6
		c0.32,0.24,0.48,0.521,0.48,0.84h-1.056c-0.608,0-1.121-0.048-1.536-0.144v-0.048c-0.449-0.096-0.977-0.144-1.584-0.144
		c-0.224,0-0.568,0.056-1.032,0.168c-0.464,0.113-0.936,0.312-1.416,0.6s-0.896,0.672-1.248,1.152s-0.528,1.088-0.528,1.824
		c0,0.864,0.151,1.584,0.456,2.161c0.304,0.575,0.712,1.055,1.224,1.439c0.511,0.384,1.096,0.704,1.752,0.96
		c0.655,0.257,1.335,0.513,2.04,0.769h0.048c0.704,0.256,1.416,0.527,2.136,0.815c0.72,0.288,1.368,0.672,1.944,1.151
		c0.576,0.48,1.048,1.098,1.416,1.849c0.368,0.752,0.552,1.688,0.552,2.808c0,0.672-0.184,1.328-0.552,1.969
		s-0.912,1.208-1.632,1.703c-0.72,0.497-1.632,0.896-2.736,1.2s-2.393,0.456-3.864,0.456c-0.449,0-0.953-0.041-1.512-0.119
		c-0.56-0.081-1.096-0.193-1.608-0.337c-0.512-0.144-0.944-0.336-1.296-0.575c-0.353-0.24-0.528-0.521-0.528-0.841h0.72
		c0.064,0,0.16,0.017,0.288,0.048c0.127,0.033,0.271,0.08,0.432,0.145l-0.048-0.049c0.096,0.033,0.176,0.057,0.24,0.072
		c0.063,0.018,0.16,0.041,0.288,0.072c0.48,0.192,1,0.353,1.56,0.48c0.56,0.128,1.128,0.191,1.704,0.191
		c0.864,0,1.616-0.151,2.256-0.455c0.64-0.305,1.159-0.673,1.56-1.104c0.4-0.433,0.696-0.903,0.888-1.416
		c0.192-0.512,0.288-0.991,0.288-1.44c0-0.895-0.168-1.639-0.504-2.232c-0.336-0.591-0.785-1.087-1.344-1.487
		c-0.56-0.399-1.192-0.744-1.896-1.032c-0.704-0.287-1.44-0.559-2.208-0.816c-0.704-0.255-1.408-0.527-2.112-0.815
		c-0.705-0.288-1.328-0.647-1.872-1.08c-0.544-0.432-0.992-0.96-1.344-1.584s-0.528-1.399-0.528-2.328
		c0-1.056,0.248-1.96,0.744-2.712c0.496-0.751,1.135-1.359,1.92-1.824c0.784-0.463,1.648-0.808,2.592-1.032
		c0.944-0.223,1.864-0.336,2.76-0.336C146.109,22.224,146.493,22.265,146.973,22.344z"/>
	<path fill="#037a7c" d="M166.845,23.544c0.288,0.24,0.552,0.568,0.792,0.984c0.24,0.416,0.464,0.88,0.672,1.392
		c0.208,0.512,0.408,1.024,0.601,1.536l1.344,3.744c0.256,0.736,0.527,1.44,0.815,2.112s0.616,1.271,0.984,1.8
		c0.367,0.528,0.784,0.952,1.248,1.272s1,0.479,1.608,0.479c0.575,0,1.079-0.159,1.512-0.479c0.432-0.32,0.823-0.736,1.176-1.248
		c0.352-0.512,0.664-1.096,0.937-1.752c0.271-0.656,0.535-1.32,0.792-1.992l1.487-3.696l0.145-0.432
		c0.191-0.448,0.375-0.896,0.552-1.344c0.176-0.448,0.376-0.856,0.6-1.224c0.224-0.368,0.464-0.664,0.721-0.888
		c0.256-0.224,0.527-0.336,0.815-0.336c0.384,0,0.576,0.305,0.576,0.912c0,0.736-0.384,2.064-1.152,3.984h-0.048L179.276,38.4
		c-0.353,0.928-0.672,1.752-0.96,2.472s-0.6,1.329-0.936,1.824c-0.336,0.497-0.713,0.872-1.128,1.128
		c-0.416,0.256-0.929,0.384-1.536,0.384c-0.576,0-1.064-0.136-1.464-0.407c-0.4-0.271-0.752-0.641-1.057-1.104
		c-0.304-0.464-0.592-1.016-0.863-1.656c-0.272-0.64-0.553-1.327-0.84-2.063l-0.24-0.576l-4.08-10.464
		c-0.353-0.832-0.624-1.576-0.816-2.232c-0.191-0.655-0.288-1.159-0.288-1.512c0-0.384,0.072-0.648,0.217-0.792
		c0.144-0.144,0.343-0.216,0.6-0.216C166.236,23.184,166.557,23.304,166.845,23.544z"/>
	<path fill="#037a7c" d="M207.74,37.776c-0.545,1.344-1.32,2.528-2.328,3.552c-1.008,1.024-2.225,1.848-3.648,2.473
		c-1.424,0.623-3.032,0.936-4.823,0.936c-1.536,0-3-0.257-4.393-0.768c-1.392-0.512-2.615-1.248-3.672-2.209
		c-1.056-0.959-1.896-2.127-2.52-3.504c-0.624-1.375-0.937-2.928-0.937-4.656c0-1.759,0.328-3.343,0.984-4.751
		c0.655-1.408,1.52-2.592,2.592-3.552s2.296-1.696,3.672-2.208c1.376-0.512,2.8-0.768,4.272-0.768c1.504,0,2.952,0.248,4.344,0.744
		c1.392,0.497,2.632,1.224,3.72,2.184s1.952,2.145,2.592,3.552c0.641,1.409,0.96,3.008,0.96,4.799
		C208.556,35.04,208.284,36.432,207.74,37.776z M188.9,36.816c0.399,1.056,0.976,2.008,1.728,2.855
		c0.752,0.849,1.664,1.529,2.736,2.041c1.071,0.512,2.264,0.768,3.576,0.768c1.119,0,2.199-0.217,3.239-0.648
		s1.969-1.039,2.784-1.824c0.816-0.783,1.464-1.719,1.944-2.808c0.479-1.087,0.72-2.288,0.72-3.601c0-1.344-0.232-2.574-0.695-3.695
		c-0.465-1.12-1.097-2.08-1.896-2.88s-1.721-1.424-2.76-1.872c-1.04-0.448-2.152-0.672-3.336-0.672c-1.217,0-2.353,0.24-3.408,0.72
		s-1.968,1.128-2.736,1.944c-0.768,0.816-1.376,1.784-1.824,2.905c-0.448,1.119-0.672,2.303-0.672,3.551
		C188.3,34.688,188.5,35.76,188.9,36.816z"/>
	<path fill="#037a7c" d="M220.243,22.08c0.463,0.288,0.871,0.512,1.224,0.672V22.8c0.224,0.096,0.392,0.192,0.504,0.288
		c0.112,0.096,0.168,0.24,0.168,0.432c0,0.161-0.071,0.288-0.216,0.384c-0.144,0.096-0.328,0.208-0.552,0.336
		c-0.096,0.064-0.185,0.12-0.264,0.168c-0.081,0.048-0.185,0.104-0.313,0.168c-0.416,0.256-0.848,0.521-1.296,0.792
		c-0.448,0.272-0.864,0.624-1.248,1.056c-0.384,0.432-0.696,0.952-0.936,1.56c-0.24,0.608-0.36,1.36-0.36,2.256v6.24
		c0,0.928,0.168,1.8,0.504,2.615c0.336,0.816,0.92,1.641,1.752,2.473c0.256,0.256,0.528,0.48,0.816,0.672s0.56,0.368,0.815,0.527
		c0.352,0.225,0.64,0.417,0.864,0.576c0.224,0.161,0.336,0.354,0.336,0.576c0,0.32-0.216,0.535-0.647,0.648
		c-0.433,0.111-0.905,0.168-1.416,0.168c-1.217,0-2.208-0.232-2.977-0.696c-0.768-0.464-1.368-1.08-1.8-1.848
		c-0.432-0.769-0.729-1.647-0.888-2.64c-0.161-0.992-0.24-2.017-0.24-3.072v-6.192c0-0.735-0.08-1.375-0.24-1.92
		c-0.16-0.544-0.376-1.024-0.647-1.44c-0.272-0.416-0.561-0.775-0.864-1.08c-0.305-0.304-0.601-0.6-0.889-0.888l-0.239-0.24
		c-0.257-0.256-0.465-0.48-0.624-0.672c-0.161-0.192-0.24-0.384-0.24-0.576c0-0.288,0.151-0.6,0.456-0.936
		c0.304-0.336,0.632-0.664,0.984-0.984h-0.049l0.192-0.192c0.063-0.064,0.128-0.12,0.192-0.168c0.063-0.048,0.127-0.104,0.191-0.168
		l0.288-0.288c0.384-0.384,0.688-0.8,0.912-1.248c0.224-0.448,0.415-0.896,0.576-1.344c0.159-0.48,0.336-0.904,0.528-1.272
		c0.191-0.367,0.495-0.552,0.911-0.552s0.728,0.176,0.937,0.528c0.208,0.353,0.408,0.785,0.6,1.296v-0.048
		c0.032,0.064,0.056,0.128,0.072,0.192c0.016,0.064,0.04,0.128,0.072,0.192c0.159,0.353,0.327,0.705,0.504,1.056
		c0.176,0.353,0.487,0.752,0.936,1.2C219.242,21.344,219.778,21.792,220.243,22.08z"/>
	<path fill="#037a7c" d="M238.914,23.064c0.24,0.144,0.36,0.296,0.36,0.456c0,0.512-0.24,0.84-0.72,0.984
		c-0.48,0.144-1.04,0.296-1.681,0.456c-0.544,0.096-1.031,0.216-1.464,0.36c-0.432,0.144-0.824,0.312-1.176,0.504
		c-0.353,0.192-0.696,0.416-1.032,0.672c-0.336,0.257-0.68,0.561-1.031,0.912c-0.288,0.288-0.576,0.632-0.864,1.032
		c-0.288,0.4-0.552,0.896-0.792,1.487c-0.24,0.593-0.433,1.297-0.576,2.112s-0.216,1.769-0.216,2.856v5.904
		c0,0.832-0.104,1.6-0.313,2.303c-0.208,0.705-0.552,1.057-1.031,1.057c-0.48,0-0.841-0.313-1.08-0.936
		c-0.24-0.625-0.36-1.272-0.36-1.944V26.928c0-0.352,0.016-0.728,0.048-1.128c0.031-0.4,0.12-0.775,0.264-1.128
		c0.145-0.352,0.36-0.64,0.648-0.864c0.288-0.224,0.688-0.336,1.2-0.336c0.288,0,0.544,0.017,0.768,0.048
		c0.224,0.032,0.433,0.081,0.624,0.144h-0.096c0.063,0,0.127,0.008,0.192,0.024c0.063,0.017,0.127,0.024,0.191,0.024
		c0.352,0.096,0.688,0.176,1.008,0.24c0.319,0.064,0.672,0.096,1.057,0.096c0.831,0,1.464-0.072,1.896-0.216
		c0.433-0.144,0.84-0.312,1.225-0.504c0.287-0.16,0.575-0.28,0.863-0.36c0.288-0.08,0.624-0.12,1.008-0.12
		C238.314,22.848,238.675,22.92,238.914,23.064z"/>
	<path fill="#037a7c" d="M248.97,33.648c-1.056,0.352-1.952,0.863-2.688,1.535c-0.736,0.672-1.104,1.537-1.104,2.593
		c0,0.896,0.224,1.68,0.672,2.353c0.448,0.672,1.009,1.231,1.681,1.68s1.407,0.791,2.208,1.031c0.799,0.24,1.567,0.36,2.304,0.36
		c0.768,0,1.44-0.097,2.016-0.288c0.576-0.191,1.136-0.384,1.681-0.576c0.384-0.16,0.768-0.304,1.151-0.432
		c0.385-0.127,0.769-0.191,1.152-0.191c0.224,0,0.352,0.056,0.384,0.168c0.031,0.111,0.048,0.264,0.048,0.455
		c0,0.16-0.112,0.353-0.336,0.576c-0.224,0.225-0.584,0.44-1.08,0.648s-1.136,0.393-1.92,0.552c-0.784,0.16-1.736,0.239-2.855,0.239
		h-0.097c-1.439,0-2.832-0.271-4.176-0.815s-2.536-1.288-3.576-2.231s-1.872-2.041-2.495-3.289
		c-0.624-1.248-0.937-2.574-0.937-3.983v-0.097c0-2.335,0.487-4.335,1.464-6c0.976-1.664,2.344-2.959,4.104-3.888
		c0.64-0.544,1.368-0.984,2.184-1.32c0.816-0.336,1.672-0.504,2.568-0.504c0.96,0,1.903,0.161,2.832,0.48
		c1.087,0.161,2.111,0.48,3.071,0.96s1.801,1.097,2.521,1.848c0.72,0.752,1.288,1.625,1.704,2.616
		c0.415,0.993,0.624,2.081,0.624,3.264c0,0.736-0.288,1.32-0.864,1.752s-1.376,0.647-2.4,0.647c-0.512,0-1.104-0.048-1.775-0.144
		c-0.064,0-0.129-0.008-0.192-0.024c-0.064-0.016-0.112-0.024-0.144-0.024c-0.161-0.031-0.336-0.047-0.528-0.047
		s-0.384-0.016-0.576-0.049c-0.544,0.192-1.136,0.32-1.775,0.385c-0.641,0.064-1.28,0.096-1.92,0.096
		C251.161,33.984,250.186,33.873,248.97,33.648z M246.186,31.129c0.736,0.656,1.633,1.207,2.688,1.655
		c1.088-0.224,2.016-0.336,2.784-0.336c0.735,0,1.416,0.024,2.04,0.071c0.624,0.049,1.207,0.105,1.752,0.168
		c0.864-0.352,1.567-0.847,2.111-1.487c0.544-0.64,0.816-1.472,0.816-2.496c0-1.344-0.44-2.464-1.32-3.36
		c-0.88-0.896-1.928-1.536-3.144-1.92h-0.336c-0.064,0-0.145-0.008-0.24-0.024s-0.176-0.024-0.24-0.024
		c-2.336,0-4.4,0.464-6.191,1.392c-1.217,1.056-1.824,2.336-1.824,3.84C245.082,29.633,245.449,30.473,246.186,31.129z"/>
	<path fill="#037a7c" d="M279.113,19.296c0,1.6,0.424,2.856,1.271,3.768c0.848,0.912,1.88,1.368,3.096,1.368
		c0.544,0,1.009-0.048,1.393-0.144c0.384-0.096,0.768-0.223,1.152-0.384c0.031,0,0.055-0.008,0.071-0.024
		c0.016-0.016,0.04-0.024,0.072-0.024c0.447-0.16,0.943-0.319,1.488-0.48c0.543-0.16,1.264-0.24,2.16-0.24
		c1.695,0,3.055,0.312,4.079,0.936s1.808,1.4,2.353,2.328c0.544,0.928,0.903,1.92,1.08,2.976c0.176,1.056,0.264,2.032,0.264,2.929
		v8.592c0,1.024-0.104,1.848-0.312,2.472c-0.209,0.624-0.521,0.937-0.937,0.937c-0.448,0-0.8-0.248-1.056-0.744
		c-0.257-0.496-0.384-1.336-0.384-2.521v-5.808c0-1.44-0.152-2.768-0.456-3.984c-0.305-1.216-0.792-2.263-1.464-3.144
		c-0.673-0.879-1.553-1.567-2.641-2.064c-1.088-0.496-2.416-0.744-3.983-0.744c-1.345,0-2.321,0.2-2.929,0.6
		c-0.608,0.401-1.104,0.809-1.487,1.224l-0.336,0.432c-0.896,0.928-1.536,1.993-1.921,3.192c-0.384,1.2-0.575,2.297-0.575,3.288
		v6.864c0,0.863-0.089,1.648-0.265,2.352c-0.176,0.705-0.536,1.057-1.08,1.057c-0.448,0-0.784-0.271-1.008-0.816
		c-0.224-0.544-0.336-1.313-0.336-2.305V13.632c0-0.832,0.096-1.608,0.288-2.328s0.512-1.08,0.96-1.08s0.8,0.272,1.056,0.816
		c0.256,0.544,0.385,1.472,0.385,2.784V19.296z"/>
	<path fill="#037a7c" d="M306.233,41.137c0,0.287-0.024,0.6-0.072,0.936s-0.12,0.664-0.216,0.984s-0.232,0.584-0.408,0.791
		c-0.176,0.209-0.407,0.313-0.695,0.313c-0.257,0-0.465-0.111-0.624-0.336c-0.161-0.224-0.288-0.487-0.385-0.792
		c-0.096-0.304-0.16-0.632-0.191-0.983c-0.032-0.353-0.048-0.656-0.048-0.912V26.352c0-0.319,0.016-0.688,0.048-1.104
		c0.031-0.416,0.096-0.808,0.191-1.176c0.097-0.368,0.224-0.68,0.385-0.936c0.159-0.256,0.367-0.384,0.624-0.384
		c0.288,0,0.527,0.128,0.72,0.384c0.191,0.256,0.336,0.568,0.432,0.936c0.097,0.368,0.16,0.76,0.192,1.176
		c0.031,0.417,0.048,0.785,0.048,1.104V41.137z M303.978,13.992c-0.16-0.208-0.24-0.439-0.24-0.696c0-0.256,0.096-0.496,0.288-0.72
		c0.192-0.224,0.464-0.336,0.816-0.336c0.352,0,0.631,0.112,0.84,0.336c0.207,0.224,0.312,0.464,0.312,0.72
		c0,0.256-0.112,0.488-0.336,0.696c-0.224,0.208-0.496,0.312-0.815,0.312C304.425,14.304,304.137,14.201,303.978,13.992z"/>
	<path fill="#037a7c" d="M320.104,22.344c0.48,0.08,0.943,0.2,1.392,0.36c0.448,0.161,0.832,0.36,1.152,0.6
		c0.319,0.24,0.48,0.521,0.48,0.84h-1.057c-0.608,0-1.12-0.048-1.536-0.144v-0.048c-0.448-0.096-0.976-0.144-1.584-0.144
		c-0.224,0-0.568,0.056-1.031,0.168c-0.465,0.113-0.937,0.312-1.416,0.6c-0.48,0.288-0.896,0.672-1.248,1.152
		c-0.353,0.48-0.528,1.088-0.528,1.824c0,0.864,0.151,1.584,0.456,2.161c0.304,0.575,0.712,1.055,1.224,1.439
		c0.512,0.384,1.096,0.704,1.752,0.96c0.656,0.257,1.336,0.513,2.04,0.769h0.049c0.703,0.256,1.416,0.527,2.136,0.815
		s1.368,0.672,1.943,1.151c0.576,0.48,1.048,1.098,1.416,1.849c0.368,0.752,0.553,1.688,0.553,2.808
		c0,0.672-0.185,1.328-0.553,1.969s-0.911,1.208-1.632,1.703c-0.72,0.497-1.632,0.896-2.735,1.2
		c-1.104,0.304-2.393,0.456-3.864,0.456c-0.448,0-0.952-0.041-1.512-0.119c-0.561-0.081-1.097-0.193-1.608-0.337
		c-0.513-0.144-0.944-0.336-1.296-0.575c-0.353-0.24-0.528-0.521-0.528-0.841h0.72c0.064,0,0.16,0.017,0.288,0.048
		c0.128,0.033,0.271,0.08,0.433,0.145l-0.048-0.049c0.096,0.033,0.175,0.057,0.239,0.072c0.064,0.018,0.16,0.041,0.288,0.072
		c0.48,0.192,1,0.353,1.561,0.48c0.56,0.128,1.128,0.191,1.704,0.191c0.863,0,1.615-0.151,2.256-0.455
		c0.64-0.305,1.159-0.673,1.56-1.104c0.4-0.433,0.696-0.903,0.889-1.416c0.191-0.512,0.287-0.991,0.287-1.44
		c0-0.895-0.168-1.639-0.504-2.232c-0.336-0.591-0.784-1.087-1.344-1.487c-0.561-0.399-1.192-0.744-1.896-1.032
		c-0.705-0.287-1.44-0.559-2.208-0.816c-0.705-0.255-1.409-0.527-2.112-0.815c-0.704-0.288-1.328-0.647-1.872-1.08
		c-0.545-0.432-0.992-0.96-1.344-1.584c-0.353-0.624-0.528-1.399-0.528-2.328c0-1.056,0.247-1.96,0.744-2.712
		c0.496-0.751,1.136-1.359,1.92-1.824c0.784-0.463,1.647-0.808,2.592-1.032c0.943-0.223,1.864-0.336,2.76-0.336
		C319.24,22.224,319.625,22.265,320.104,22.344z"/>
	<path fill="#037a7c" d="M337.793,22.08c0.463,0.288,0.871,0.512,1.224,0.672V22.8c0.224,0.096,0.392,0.192,0.504,0.288
		c0.112,0.096,0.168,0.24,0.168,0.432c0,0.161-0.071,0.288-0.216,0.384c-0.144,0.096-0.328,0.208-0.552,0.336
		c-0.096,0.064-0.185,0.12-0.264,0.168c-0.081,0.048-0.185,0.104-0.313,0.168c-0.416,0.256-0.848,0.521-1.296,0.792
		c-0.448,0.272-0.864,0.624-1.248,1.056c-0.384,0.432-0.696,0.952-0.936,1.56c-0.24,0.608-0.36,1.36-0.36,2.256v6.24
		c0,0.928,0.168,1.8,0.504,2.615c0.336,0.816,0.92,1.641,1.752,2.473c0.256,0.256,0.528,0.48,0.816,0.672s0.56,0.368,0.815,0.527
		c0.352,0.225,0.64,0.417,0.864,0.576c0.224,0.161,0.336,0.354,0.336,0.576c0,0.32-0.216,0.535-0.647,0.648
		c-0.433,0.111-0.905,0.168-1.416,0.168c-1.217,0-2.208-0.232-2.977-0.696c-0.768-0.464-1.368-1.08-1.8-1.848
		c-0.432-0.769-0.729-1.647-0.888-2.64c-0.161-0.992-0.24-2.017-0.24-3.072v-6.192c0-0.735-0.08-1.375-0.24-1.92
		c-0.16-0.544-0.376-1.024-0.647-1.44c-0.272-0.416-0.561-0.775-0.864-1.08c-0.305-0.304-0.601-0.6-0.889-0.888l-0.239-0.24
		c-0.257-0.256-0.465-0.48-0.624-0.672c-0.161-0.192-0.24-0.384-0.24-0.576c0-0.288,0.151-0.6,0.456-0.936
		c0.304-0.336,0.632-0.664,0.984-0.984h-0.049l0.192-0.192c0.063-0.064,0.128-0.12,0.192-0.168c0.063-0.048,0.127-0.104,0.191-0.168
		l0.288-0.288c0.384-0.384,0.688-0.8,0.912-1.248c0.224-0.448,0.415-0.896,0.576-1.344c0.159-0.48,0.336-0.904,0.528-1.272
		c0.191-0.367,0.495-0.552,0.911-0.552s0.728,0.176,0.937,0.528c0.208,0.353,0.408,0.785,0.6,1.296v-0.048
		c0.032,0.064,0.056,0.128,0.072,0.192c0.016,0.064,0.04,0.128,0.072,0.192c0.159,0.353,0.327,0.705,0.504,1.056
		c0.176,0.353,0.487,0.752,0.936,1.2C336.792,21.344,337.328,21.792,337.793,22.08z"/>
	<path fill="#037a7c" d="M364.36,37.776c-0.545,1.344-1.32,2.528-2.328,3.552c-1.008,1.024-2.225,1.848-3.648,2.473
		c-1.424,0.623-3.032,0.936-4.823,0.936c-1.536,0-3-0.257-4.393-0.768c-1.392-0.512-2.615-1.248-3.672-2.209
		c-1.056-0.959-1.896-2.127-2.52-3.504c-0.624-1.375-0.937-2.928-0.937-4.656c0-1.759,0.328-3.343,0.984-4.751
		c0.655-1.408,1.52-2.592,2.592-3.552s2.296-1.696,3.672-2.208c1.376-0.512,2.8-0.768,4.272-0.768c1.504,0,2.952,0.248,4.344,0.744
		c1.392,0.497,2.632,1.224,3.72,2.184s1.952,2.145,2.592,3.552c0.641,1.409,0.96,3.008,0.96,4.799
		C365.176,35.04,364.904,36.432,364.36,37.776z M345.521,36.816c0.399,1.056,0.976,2.008,1.728,2.855
		c0.752,0.849,1.664,1.529,2.736,2.041c1.071,0.512,2.264,0.768,3.576,0.768c1.119,0,2.199-0.217,3.239-0.648
		s1.969-1.039,2.784-1.824c0.816-0.783,1.464-1.719,1.944-2.808c0.479-1.087,0.72-2.288,0.72-3.601c0-1.344-0.232-2.574-0.695-3.695
		c-0.465-1.12-1.097-2.08-1.896-2.88s-1.721-1.424-2.76-1.872c-1.04-0.448-2.152-0.672-3.336-0.672c-1.217,0-2.353,0.24-3.408,0.72
		s-1.968,1.128-2.736,1.944c-0.768,0.816-1.376,1.784-1.824,2.905c-0.448,1.119-0.672,2.303-0.672,3.551
		C344.92,34.688,345.12,35.76,345.521,36.816z"/>
	<path fill="#037a7c" d="M372.327,41.137c0,0.287-0.024,0.6-0.072,0.936s-0.12,0.664-0.216,0.984s-0.232,0.584-0.408,0.791
		c-0.176,0.209-0.407,0.313-0.695,0.313c-0.257,0-0.465-0.111-0.624-0.336c-0.161-0.224-0.288-0.487-0.385-0.792
		c-0.096-0.304-0.16-0.632-0.191-0.983c-0.032-0.353-0.048-0.656-0.048-0.912V26.352c0-0.319,0.016-0.688,0.048-1.104
		c0.031-0.416,0.096-0.808,0.191-1.176c0.097-0.368,0.224-0.68,0.385-0.936c0.159-0.256,0.367-0.384,0.624-0.384
		c0.288,0,0.527,0.128,0.72,0.384c0.191,0.256,0.336,0.568,0.432,0.936c0.097,0.368,0.16,0.76,0.192,1.176
		c0.031,0.417,0.048,0.785,0.048,1.104V41.137z M370.071,13.992c-0.16-0.208-0.24-0.439-0.24-0.696c0-0.256,0.096-0.496,0.288-0.72
		c0.192-0.224,0.464-0.336,0.816-0.336c0.352,0,0.631,0.112,0.84,0.336c0.207,0.224,0.312,0.464,0.312,0.72
		c0,0.256-0.112,0.488-0.336,0.696c-0.224,0.208-0.496,0.312-0.815,0.312C370.519,14.304,370.23,14.201,370.071,13.992z"/>
	<path fill="#037a7c" d="M390.879,23.064c0.24,0.144,0.36,0.296,0.36,0.456c0,0.512-0.24,0.84-0.72,0.984
		c-0.48,0.144-1.04,0.296-1.681,0.456c-0.544,0.096-1.031,0.216-1.464,0.36c-0.432,0.144-0.824,0.312-1.176,0.504
		c-0.353,0.192-0.696,0.416-1.032,0.672c-0.336,0.257-0.68,0.561-1.031,0.912c-0.288,0.288-0.576,0.632-0.864,1.032
		c-0.288,0.4-0.552,0.896-0.792,1.487c-0.24,0.593-0.433,1.297-0.576,2.112s-0.216,1.769-0.216,2.856v5.904
		c0,0.832-0.104,1.6-0.313,2.303c-0.208,0.705-0.552,1.057-1.031,1.057c-0.48,0-0.841-0.313-1.08-0.936
		c-0.24-0.625-0.36-1.272-0.36-1.944V26.928c0-0.352,0.016-0.728,0.048-1.128c0.031-0.4,0.12-0.775,0.264-1.128
		c0.145-0.352,0.36-0.64,0.648-0.864c0.288-0.224,0.688-0.336,1.2-0.336c0.288,0,0.544,0.017,0.768,0.048
		c0.224,0.032,0.433,0.081,0.624,0.144h-0.096c0.063,0,0.127,0.008,0.192,0.024c0.063,0.017,0.127,0.024,0.191,0.024
		c0.352,0.096,0.688,0.176,1.008,0.24c0.319,0.064,0.672,0.096,1.057,0.096c0.831,0,1.464-0.072,1.896-0.216
		c0.433-0.144,0.84-0.312,1.225-0.504c0.287-0.16,0.575-0.28,0.863-0.36c0.288-0.08,0.624-0.12,1.008-0.12
		C390.279,22.848,390.64,22.92,390.879,23.064z"/>
	<path fill="#037a7c" d="M400.935,33.648c-1.056,0.352-1.952,0.863-2.688,1.535c-0.736,0.672-1.104,1.537-1.104,2.593
		c0,0.896,0.224,1.68,0.672,2.353c0.448,0.672,1.009,1.231,1.681,1.68s1.407,0.791,2.208,1.031c0.799,0.24,1.567,0.36,2.304,0.36
		c0.768,0,1.44-0.097,2.016-0.288c0.576-0.191,1.136-0.384,1.681-0.576c0.384-0.16,0.768-0.304,1.151-0.432
		c0.385-0.127,0.769-0.191,1.152-0.191c0.224,0,0.352,0.056,0.384,0.168c0.031,0.111,0.048,0.264,0.048,0.455
		c0,0.16-0.112,0.353-0.336,0.576c-0.224,0.225-0.584,0.44-1.08,0.648s-1.136,0.393-1.92,0.552c-0.784,0.16-1.736,0.239-2.855,0.239
		h-0.097c-1.439,0-2.832-0.271-4.176-0.815s-2.536-1.288-3.576-2.231s-1.872-2.041-2.495-3.289
		c-0.624-1.248-0.937-2.574-0.937-3.983v-0.097c0-2.335,0.487-4.335,1.464-6c0.976-1.664,2.344-2.959,4.104-3.888
		c0.64-0.544,1.368-0.984,2.184-1.32c0.816-0.336,1.672-0.504,2.568-0.504c0.96,0,1.903,0.161,2.832,0.48
		c1.087,0.161,2.111,0.48,3.071,0.96s1.801,1.097,2.521,1.848c0.72,0.752,1.288,1.625,1.704,2.616
		c0.415,0.993,0.624,2.081,0.624,3.264c0,0.736-0.288,1.32-0.864,1.752s-1.376,0.647-2.4,0.647c-0.512,0-1.104-0.048-1.775-0.144
		c-0.064,0-0.129-0.008-0.192-0.024c-0.064-0.016-0.112-0.024-0.144-0.024c-0.161-0.031-0.336-0.047-0.528-0.047
		s-0.384-0.016-0.576-0.049c-0.544,0.192-1.136,0.32-1.775,0.385c-0.641,0.064-1.28,0.096-1.92,0.096
		C403.126,33.984,402.15,33.873,400.935,33.648z M398.15,31.129c0.736,0.656,1.633,1.207,2.688,1.655
		c1.088-0.224,2.016-0.336,2.784-0.336c0.735,0,1.416,0.024,2.04,0.071c0.624,0.049,1.207,0.105,1.752,0.168
		c0.864-0.352,1.567-0.847,2.111-1.487c0.544-0.64,0.816-1.472,0.816-2.496c0-1.344-0.44-2.464-1.32-3.36
		c-0.88-0.896-1.928-1.536-3.144-1.92h-0.336c-0.064,0-0.145-0.008-0.24-0.024s-0.176-0.024-0.24-0.024
		c-2.336,0-4.4,0.464-6.191,1.392c-1.217,1.056-1.824,2.336-1.824,3.84C397.047,29.633,397.414,30.473,398.15,31.129z"/>
</g>
</svg>
