<?xml version="1.0" encoding="utf-8"?>
<!-- Generator: Adobe Illustrator 16.0.0, SVG Export Plug-In . SVG Version: 6.00 Build 0)  -->
<!DOCTYPE svg PUBLIC "-//W3C//DTD SVG 1.1//EN" "http://www.w3.org/Graphics/SVG/1.1/DTD/svg11.dtd">
<svg version="1.1" id="Calque_1" xmlns="http://www.w3.org/2000/svg" xmlns:xlink="http://www.w3.org/1999/xlink" x="0px" y="0px"
	 width="960px" height="132.237px" viewBox="0 0 960 132.237" enable-background="new 0 0 960 132.237" xml:space="preserve">
<path fill="#FFFFFF" d="M65.115,11.447c-0.855,0.795-1.831,1.191-2.929,1.191c-2.198,0-3.787-0.12-4.763-0.367
	c-0.979-0.243-1.831-0.548-2.564-0.915c-0.612-0.243-1.282-0.487-2.014-0.733c-0.734-0.243-1.62-0.458-2.657-0.641
	c-1.039-0.184-2.352-0.334-3.938-0.458c-1.587-0.12-3.543-0.183-5.86-0.183c-3.786,0-7.297,0.49-10.532,1.465
	c-3.236,0.979-6.044,2.473-8.425,4.487c-2.381,2.015-4.275,4.488-5.678,7.417c-1.404,2.931-2.106,6.29-2.106,10.074
	c0,4.029,0.793,7.449,2.382,10.256c1.585,2.811,3.691,5.22,6.319,7.235c2.624,2.014,5.677,3.725,9.157,5.128
	c3.479,1.405,7.051,2.838,10.713,4.303c4.03,1.466,8.028,3.114,11.997,4.945c3.967,1.832,7.538,4.062,10.715,6.687
	c3.173,2.627,5.798,5.89,7.875,9.796c2.074,3.911,3.114,8.672,3.114,14.286c0,5.741-1.131,10.839-3.388,15.294
	c-2.261,4.458-5.375,8.242-9.342,11.357c-3.968,3.11-8.607,5.492-13.918,7.141c-5.312,1.649-10.96,2.474-16.942,2.474
	c-3.177,0-6.473-0.244-9.891-0.734c-3.419-0.488-6.564-1.222-9.433-2.196c-2.869-0.976-5.25-2.198-7.142-3.664
	c-1.894-1.465-2.839-3.173-2.839-5.129c0-1.586,0.55-2.654,1.648-3.206c1.099-0.545,2.015-0.821,2.748-0.821
	c1.342,0,2.564,0.182,3.663,0.548c1.1,0.367,2.258,0.797,3.48,1.283l1.282,0.549c1.952,0.98,4.18,1.864,6.685,2.654
	c2.501,0.796,5.707,1.193,9.616,1.193h0.915c4.149,0,7.997-0.61,11.54-1.833c3.539-1.22,6.561-2.93,9.065-5.128
	c2.502-2.198,4.456-4.761,5.861-7.691c1.402-2.931,2.106-6.104,2.106-9.525c0-4.515-0.855-8.335-2.564-11.444
	c-1.71-3.115-3.938-5.771-6.686-7.971c-2.747-2.194-5.952-4.056-9.615-5.583c-3.663-1.526-7.389-3.024-11.173-4.487
	c-3.908-1.466-7.755-3.023-11.538-4.671c-3.786-1.648-7.207-3.724-10.257-6.228c-3.053-2.5-5.526-5.555-7.418-9.157
	c-1.894-3.601-2.838-8.087-2.838-13.462c0-7.079,1.585-12.88,4.762-17.399c3.173-4.516,6.988-8.087,11.446-10.714
	c4.456-2.625,9.095-4.456,13.92-5.495c4.823-1.036,9.003-1.557,12.545-1.557c6.838,0,12.576,0.733,17.217,2.199
	c4.638,1.465,6.96,3.726,6.96,6.776C66.398,9.771,65.968,10.655,65.115,11.447z"/>
<path fill="#FFFFFF" d="M167.314,10.531c-0.856,0.672-1.923,1.163-3.205,1.465c-1.282,0.306-2.655,0.521-4.121,0.642
	c-1.465,0.123-2.811,0.183-4.029,0.183c-3.421,0-6.626,0.214-9.617,0.641c-2.993,0.429-5.585,1.404-7.783,2.931
	c-2.199,1.527-3.938,3.753-5.22,6.684c-1.282,2.931-1.923,6.9-1.923,11.904v79.672c0,3.298-0.429,6.41-1.282,9.341
	c-0.855,2.928-2.444,4.395-4.763,4.395c-1.222,0-2.261-0.457-3.113-1.373c-0.856-0.915-1.528-2.075-2.015-3.481
	c-0.489-1.399-0.824-2.897-1.008-4.486c-0.183-1.586-0.274-3.05-0.274-4.395V34.981c0-5.128-0.855-9.157-2.563-12.088
	c-1.711-2.93-3.817-5.156-6.319-6.684c-2.504-1.525-5.159-2.501-7.967-2.931c-2.81-0.426-5.374-0.641-7.692-0.641
	c-3.909,0-6.991-0.427-9.249-1.282c-2.26-0.853-3.389-2.015-3.389-3.48c0-0.732,0.244-1.342,0.734-1.831
	c0.486-0.486,1.434-0.884,2.838-1.191c1.403-0.303,3.357-0.518,5.861-0.641c2.501-0.12,5.769-0.184,9.798-0.184h47.436
	c6.837,0,11.905,0.274,15.202,0.824c3.297,0.55,4.945,1.557,4.945,3.022C168.596,8.976,168.167,9.861,167.314,10.531z"/>
<path fill="#FFFFFF" d="M295.337,94.688c-3.419,7.816-8.151,14.534-14.194,20.148c-6.045,5.617-13.159,9.921-21.337,12.91
	c-8.182,2.991-17.097,4.491-26.74,4.491c-9.891,0-18.865-1.714-26.923-5.131c-8.059-3.416-14.898-8.059-20.513-13.92
	c-5.618-5.86-9.953-12.666-13.005-20.42c-3.053-7.752-4.578-15.902-4.578-24.45c0-9.524,1.433-18.467,4.303-26.833
	c2.867-8.362,7.08-15.596,12.638-21.703c5.555-6.105,12.362-10.927,20.421-14.47C213.468,1.772,222.686,0,233.066,0
	c8.911,0,17.428,1.282,25.549,3.846c8.12,2.564,15.294,6.626,21.521,12.181c6.228,5.557,11.172,12.638,14.835,21.245
	c3.663,8.608,5.494,18.957,5.494,31.045C300.465,78.087,298.754,86.876,295.337,94.688z M184.348,87.364
	c2.318,6.473,5.678,12.36,10.072,17.673c4.396,5.313,9.829,9.647,16.301,13.005c6.471,3.359,13.92,5.036,22.345,5.036
	c8.058,0,15.445-1.466,22.16-4.395c6.714-2.933,12.483-6.898,17.308-11.906c4.823-5.006,8.578-10.834,11.264-17.49
	c2.685-6.654,4.029-13.645,4.029-20.971c0-9.402-1.404-17.767-4.211-25.093c-2.812-7.325-6.686-13.521-11.63-18.59
	c-4.946-5.064-10.747-8.91-17.4-11.538c-6.656-2.624-13.828-3.938-21.52-3.938c-6.593,0-13.036,1.282-19.322,3.847
	c-6.291,2.564-11.877,6.35-16.759,11.354c-4.885,5.009-8.791,11.204-11.722,18.59c-2.931,7.389-4.396,15.843-4.396,25.367
	C180.867,74.542,182.027,80.893,184.348,87.364z"/>
<path fill="#FFFFFF" d="M397.533,46.612c-0.732,2.627-1.68,4.946-2.839,6.96c-1.162,2.015-2.473,3.846-3.938,5.495
	c-1.465,1.648-2.871,3.205-4.213,4.67c-2.444,2.564-4.578,5.128-6.41,7.694c-1.832,2.563-2.748,5.741-2.748,9.521
	c0,3.542,0.793,7.3,2.381,11.266c1.585,3.968,3.601,7.723,6.044,11.265l8.791,13.735v0.183c0.733,1.221,1.465,2.719,2.198,4.487
	c0.732,1.771,1.099,3.389,1.099,4.853c0,1.831-1.162,2.748-3.48,2.748c-2.686,0-5.159-1.22-7.418-3.663
	c-2.26-2.439-4.549-5.922-6.867-10.438v-0.185l-9.341-17.95c-1.465-2.564-3.054-5.247-4.763-8.056
	c-1.71-2.809-3.662-5.373-5.86-7.692c-2.198-2.319-4.643-4.213-7.326-5.679c-2.688-1.467-5.741-2.198-9.157-2.198h-0.184
	c-4.396,0-7.875,0.947-10.439,2.84c-2.564,1.894-4.55,4.304-5.952,7.232c-1.406,2.933-2.29,6.137-2.657,9.618
	c-0.366,3.479-0.55,6.747-0.55,9.795v8.795c0,6.226-0.458,10.5-1.373,12.82c-0.916,2.319-2.23,3.479-3.938,3.479
	c-1.711,0-3.145-1.129-4.304-3.389c-1.162-2.257-1.74-5.646-1.74-10.165V25.824c0-4.761,0.334-8.545,1.008-11.356
	c0.668-2.807,1.676-4.881,3.021-6.226c1.342-1.342,2.991-2.198,4.945-2.564c1.952-0.367,4.272-0.55,6.96-0.55h15.934
	c5.372,0,11.232,0.276,17.582,0.825c6.348,0.55,12.209,1.923,17.583,4.121c5.373,2.197,9.891,5.466,13.554,9.799
	c3.664,4.336,5.494,10.288,5.494,17.856C398.631,41.026,398.266,43.988,397.533,46.612z M330.407,57.784
	c4.089,4.458,10.532,6.686,19.322,6.686c0.976,0,2.502-0.092,4.58-0.275c2.075-0.183,4.424-0.548,7.051-1.099
	c2.625-0.55,5.34-1.373,8.151-2.473c2.807-1.099,5.371-2.593,7.692-4.487c2.318-1.892,4.212-4.272,5.678-7.142
	c1.465-2.868,2.197-6.319,2.197-10.348c0-6.348-1.62-11.292-4.853-14.835c-3.236-3.541-6.868-6.104-10.897-7.693
	c-4.03-1.585-7.815-2.533-11.356-2.838c-3.543-0.303-5.617-0.458-6.227-0.458c-4.885,0-9.066,0.458-12.546,1.373
	c-3.48,0.917-6.319,2.444-8.518,4.58c-2.197,2.137-3.817,4.945-4.854,8.425c-1.039,3.479-1.556,7.783-1.556,12.912
	C324.272,47.436,326.315,53.329,330.407,57.784z"/>
<path fill="#FFFFFF" d="M429.584,113.369c0,2.079-0.032,4.063-0.092,5.954c-0.063,1.896-0.274,3.545-0.641,4.943
	c-0.367,1.407-0.916,2.535-1.649,3.389c-0.732,0.858-1.771,1.284-3.113,1.284c-2.563,0-4.184-1.435-4.854-4.303
	c-0.673-2.871-1.007-6.624-1.007-11.268V16.667c0-1.22,0.029-2.593,0.091-4.122c0.061-1.525,0.276-2.958,0.641-4.303
	c0.367-1.342,0.945-2.441,1.741-3.296c0.792-0.853,1.859-1.283,3.205-1.283c1.218,0,2.226,0.43,3.021,1.283
	c0.793,0.855,1.374,1.923,1.74,3.205c0.367,1.282,0.61,2.687,0.733,4.213c0.12,1.527,0.183,2.962,0.183,4.304V113.369z"/>
<path fill="#FFFFFF" d="M521.891,13.553c-4.152,0.49-9.341,0.733-15.568,0.733h-11.904c-4.275,0-8.15,0.214-11.629,0.641
	c-3.482,0.429-6.444,1.465-8.883,3.112c-2.444,1.649-4.369,4.062-5.771,7.236c-1.404,3.176-2.106,7.572-2.106,13.186
	c0,5.009,0.793,8.974,2.382,11.905c1.584,2.931,3.661,5.128,6.226,6.594c2.566,1.465,5.495,2.38,8.792,2.747
	c3.297,0.367,6.714,0.55,10.256,0.55h13.737c5.248,0,9.369,0.274,12.362,0.824c2.99,0.549,4.488,1.863,4.488,3.937
	c0,1.832-1.68,2.962-5.037,3.389c-3.359,0.429-7.299,0.641-11.813,0.641h-15.201c-4.031,0-7.693,0.215-10.99,0.643
	c-3.296,0.429-6.107,1.528-8.425,3.297c-2.319,1.769-4.093,4.426-5.31,7.965c-1.222,3.542-1.833,8.426-1.833,14.653
	c0,5.006,0.702,9.065,2.106,12.181c1.402,3.112,3.297,5.557,5.679,7.325c2.38,1.771,5.219,2.962,8.517,3.572
	c3.297,0.612,6.776,0.916,10.438,0.916h20.696c5.495,0,9.921,0.363,13.279,1.098c3.355,0.732,5.038,2.137,5.038,4.212
	c0,1.59-1.714,2.596-5.131,3.022c-3.419,0.429-8.24,0.64-14.469,0.64h-36.996c-5.128,0-9.099-0.149-11.905-0.456
	c-2.811-0.304-4.886-1.128-6.227-2.473c-1.344-1.342-2.198-3.206-2.564-5.588c-0.367-2.379-0.549-5.768-0.549-10.165v-82.6
	c0-4.882,0.151-8.943,0.458-12.179c0.302-3.235,1.251-5.647,2.839-7.235c1.217-1.099,2.991-1.831,5.31-2.197
	c2.317-0.367,5.373-0.55,9.159-0.55h42.49c4.882,0,8.485,0.338,10.807,1.008c2.317,0.672,3.479,1.863,3.479,3.572
	C528.118,11.785,526.041,13.066,521.891,13.553z"/>
<path fill="#FFFFFF" d="M605.226,11.447c-0.855,0.795-1.834,1.191-2.932,1.191c-2.197,0-3.785-0.12-4.761-0.367
	c-0.98-0.243-1.833-0.548-2.564-0.915c-0.613-0.243-1.281-0.487-2.016-0.733c-0.732-0.243-1.619-0.458-2.654-0.641
	c-1.04-0.184-2.353-0.334-3.939-0.458c-1.588-0.12-3.542-0.183-5.861-0.183c-3.786,0-7.297,0.49-10.529,1.465
	c-3.236,0.979-6.045,2.473-8.426,4.487c-2.381,2.015-4.276,4.488-5.678,7.417c-1.405,2.931-2.106,6.29-2.106,10.074
	c0,4.029,0.793,7.449,2.382,10.256c1.584,2.811,3.689,5.22,6.318,7.235c2.624,2.014,5.677,3.725,9.156,5.128
	c3.481,1.405,7.052,2.838,10.716,4.303c4.028,1.466,8.027,3.114,11.996,4.945c3.965,1.832,7.539,4.062,10.714,6.687
	c3.175,2.627,5.798,5.89,7.876,9.796c2.074,3.911,3.113,8.672,3.113,14.286c0,5.741-1.129,10.839-3.389,15.294
	c-2.26,4.458-5.375,8.242-9.341,11.357c-3.968,3.11-8.607,5.492-13.92,7.141c-5.31,1.649-10.96,2.474-16.941,2.474
	c-3.176,0-6.473-0.244-9.889-0.734c-3.421-0.488-6.566-1.222-9.433-2.196c-2.87-0.976-5.252-2.198-7.143-3.664
	c-1.896-1.465-2.84-3.173-2.84-5.129c0-1.586,0.549-2.654,1.648-3.206c1.101-0.545,2.016-0.821,2.749-0.821
	c1.342,0,2.563,0.182,3.661,0.548c1.101,0.367,2.258,0.797,3.479,1.283l1.282,0.549c1.952,0.98,4.182,1.864,6.685,2.654
	c2.502,0.796,5.708,1.193,9.616,1.193h0.916c4.15,0,7.996-0.61,11.538-1.833c3.541-1.22,6.563-2.93,9.067-5.128
	c2.501-2.198,4.454-4.761,5.86-7.691c1.402-2.931,2.107-6.104,2.107-9.525c0-4.515-0.858-8.335-2.566-11.444
	c-1.712-3.115-3.938-5.771-6.684-7.971c-2.749-2.194-5.952-4.056-9.616-5.583c-3.664-1.526-7.39-3.024-11.172-4.487
	c-3.91-1.466-7.756-3.023-11.539-4.671c-3.786-1.648-7.207-3.724-10.257-6.228c-3.053-2.5-5.525-5.555-7.416-9.157
	c-1.896-3.601-2.84-8.087-2.84-13.462c0-7.079,1.586-12.88,4.761-17.399c3.176-4.516,6.99-8.087,11.448-10.714
	c4.456-2.625,9.096-4.456,13.92-5.495c4.821-1.036,9.002-1.557,12.546-1.557c6.837,0,12.573,0.733,17.215,2.199
	c4.639,1.465,6.961,3.726,6.961,6.776C606.507,9.771,606.078,10.655,605.226,11.447z"/>
<path fill="#037a7c" d="M751.377,94.688c-3.419,7.816-8.149,14.534-14.193,20.148c-6.043,5.617-13.157,9.921-21.336,12.91
	c-8.183,2.991-17.097,4.491-26.742,4.491c-9.889,0-18.863-1.714-26.922-5.131c-8.058-3.416-14.896-8.059-20.514-13.92
	c-5.617-5.86-9.952-12.666-13.003-20.42c-3.055-7.752-4.579-15.902-4.579-24.45c0-9.524,1.434-18.467,4.304-26.833
	c2.869-8.362,7.081-15.596,12.639-21.703c5.554-6.105,12.361-10.927,20.421-14.47C669.51,1.772,678.728,0,689.105,0
	c8.912,0,17.428,1.282,25.552,3.846c8.118,2.564,15.292,6.626,21.521,12.181c6.226,5.557,11.171,12.638,14.835,21.245
	c3.661,8.608,5.495,18.957,5.495,31.045C756.508,78.087,754.794,86.876,751.377,94.688z M640.388,87.364
	c2.319,6.473,5.679,12.36,10.073,17.673c4.397,5.313,9.827,9.647,16.302,13.005c6.471,3.359,13.92,5.036,22.343,5.036
	c8.06,0,15.446-1.466,22.163-4.395c6.712-2.933,12.482-6.898,17.309-11.906c4.821-5.006,8.575-10.834,11.262-17.49
	c2.684-6.654,4.03-13.645,4.03-20.971c0-9.402-1.406-17.767-4.212-25.093c-2.811-7.325-6.686-13.521-11.631-18.59
	c-4.944-5.064-10.746-8.91-17.399-11.538c-6.657-2.624-13.827-3.938-21.521-3.938c-6.592,0-13.033,1.282-19.32,3.847
	c-6.291,2.564-11.877,6.35-16.76,11.354c-4.884,5.009-8.791,11.204-11.72,18.59c-2.931,7.389-4.397,15.843-4.397,25.367
	C636.908,74.542,638.068,80.893,640.388,87.364z"/>
<path fill="#037a7c" d="M780.408,90.844c1.157,5.982,3.172,11.111,6.043,15.385c2.868,4.274,6.654,7.632,11.356,10.073
	c4.698,2.445,10.65,3.661,17.856,3.661h0.366c5.614,0,10.742-0.853,15.384-2.563c4.639-1.707,8.61-4.333,11.904-7.874
	c3.297-3.543,5.861-7.998,7.693-13.371s2.747-11.724,2.747-19.049V25.458c0-2.197,0.061-4.516,0.183-6.959
	c0.122-2.441,0.396-4.671,0.825-6.686c0.426-2.015,1.008-3.691,1.739-5.037c0.733-1.341,1.709-2.014,2.931-2.014
	c1.341,0,2.411,0.612,3.206,1.831c0.793,1.222,1.401,2.811,1.83,4.763c0.427,1.954,0.703,4.184,0.825,6.684
	c0.119,2.504,0.184,4.978,0.184,7.418v48.9c0,11.723-1.62,21.278-4.854,28.663c-3.237,7.391-7.297,13.127-12.18,17.217
	c-4.884,4.092-10.256,6.899-16.118,8.426c-5.858,1.526-11.417,2.288-16.665,2.288c-5.495,0-11.144-0.795-16.941-2.381
	c-5.802-1.584-11.053-4.424-15.751-8.517c-4.701-4.089-8.547-9.643-11.538-16.666c-2.995-7.019-4.487-15.961-4.487-26.831v-51.1
	c0-2.684,0.06-5.279,0.182-7.784c0.122-2.501,0.427-4.731,0.917-6.686c0.487-1.951,1.127-3.508,1.923-4.67
	c0.793-1.158,1.859-1.74,3.206-1.74c1.098,0,2.013,0.672,2.745,2.014c0.733,1.346,1.312,3.054,1.74,5.129
	c0.427,2.078,0.702,4.335,0.824,6.776c0.12,2.443,0.185,4.762,0.185,6.959v45.973C778.668,78.388,779.246,84.863,780.408,90.844z"/>
<path fill="#037a7c" d="M960.353,10.531c-0.856,0.672-1.925,1.163-3.206,1.465c-1.283,0.306-2.656,0.521-4.123,0.642
	c-1.464,0.123-2.808,0.183-4.027,0.183c-3.42,0-6.626,0.214-9.616,0.641c-2.993,0.429-5.586,1.404-7.783,2.931
	c-2.197,1.527-3.939,3.753-5.221,6.684c-1.283,2.931-1.923,6.9-1.923,11.904v79.672c0,3.298-0.429,6.41-1.281,9.341
	c-0.855,2.928-2.444,4.395-4.762,4.395c-1.223,0-2.262-0.457-3.114-1.373c-0.856-0.915-1.527-2.075-2.014-3.481
	c-0.491-1.399-0.824-2.897-1.009-4.486c-0.182-1.586-0.273-3.05-0.273-4.395V34.981c0-5.128-0.857-9.157-2.566-12.088
	c-1.711-2.93-3.816-5.156-6.316-6.684c-2.504-1.525-5.162-2.501-7.968-2.931c-2.811-0.426-5.374-0.641-7.691-0.641
	c-3.911,0-6.992-0.427-9.25-1.282c-2.262-0.853-3.388-2.015-3.388-3.48c0-0.732,0.242-1.342,0.73-1.831
	c0.486-0.486,1.436-0.884,2.84-1.191c1.401-0.303,3.357-0.518,5.861-0.641c2.501-0.12,5.771-0.184,9.799-0.184h47.436
	c6.836,0,11.904,0.274,15.202,0.824c3.296,0.55,4.945,1.557,4.945,3.022C961.634,8.976,961.205,9.861,960.353,10.531z"/>
</svg>
