<?xml version="1.0" encoding="utf-8"?>
<!-- Generator: Adobe Illustrator 16.0.0, SVG Export Plug-In . SVG Version: 6.00 Build 0)  -->
<!DOCTYPE svg PUBLIC "-//W3C//DTD SVG 1.1//EN" "http://www.w3.org/Graphics/SVG/1.1/DTD/svg11.dtd">
<svg version="1.1" id="Calque_1" xmlns="http://www.w3.org/2000/svg" xmlns:xlink="http://www.w3.org/1999/xlink" x="0px" y="0px"
	 width="414.23px" height="44.928px" viewBox="0 0 414.23 44.928" enable-background="new 0 0 414.23 44.928" xml:space="preserve">
<g>
	<path fill="#666666" d="M2.928,23.375c0,1.602,0.216,2.881,0.648,3.84c0.432,0.961,1.008,1.689,1.728,2.185
		c0.72,0.497,1.52,0.824,2.4,0.983c0.879,0.161,1.783,0.24,2.712,0.24h3.024c1.12,0,2,0.096,2.64,0.289
		c0.64,0.191,0.96,0.527,0.96,1.008c0,0.479-0.32,0.809-0.96,0.983c-0.641,0.177-1.521,0.265-2.64,0.265H3.6
		c-0.737,0-1.337-0.121-1.8-0.36c-0.464-0.24-0.824-0.56-1.08-0.96c-0.256-0.4-0.44-0.848-0.552-1.344
		C0.056,30.008,0,29.489,0,28.944V4.128c0-1.12,0.136-1.927,0.408-2.424C0.679,1.208,1.04,0.96,1.488,0.96
		c0.352,0,0.68,0.216,0.984,0.648C2.776,2.04,2.928,2.816,2.928,3.936V23.375z"/>
	<path fill="#666666" d="M24.192,22.512c-1.056,0.352-1.953,0.863-2.688,1.535c-0.737,0.672-1.104,1.537-1.104,2.593
		c0,0.896,0.223,1.68,0.672,2.353c0.448,0.672,1.008,1.231,1.68,1.68c0.672,0.448,1.408,0.791,2.208,1.031
		c0.8,0.24,1.568,0.36,2.304,0.36c0.768,0,1.44-0.097,2.016-0.288c0.576-0.191,1.135-0.384,1.68-0.576
		c0.384-0.16,0.768-0.304,1.152-0.432c0.384-0.127,0.768-0.191,1.152-0.191c0.224,0,0.352,0.056,0.384,0.168
		c0.032,0.111,0.048,0.264,0.048,0.455c0,0.16-0.113,0.353-0.336,0.576c-0.225,0.225-0.584,0.44-1.08,0.648
		c-0.497,0.208-1.136,0.393-1.92,0.552c-0.785,0.16-1.736,0.239-2.856,0.239h-0.096c-1.44,0-2.832-0.271-4.176-0.815
		c-1.344-0.544-2.536-1.288-3.576-2.231c-1.041-0.943-1.872-2.041-2.496-3.289s-0.936-2.574-0.936-3.983v-0.097
		c0-2.335,0.487-4.335,1.464-6c0.976-1.664,2.344-2.959,4.104-3.888c0.64-0.544,1.368-0.984,2.184-1.32s1.672-0.504,2.568-0.504
		c0.96,0,1.904,0.161,2.832,0.48c1.088,0.161,2.112,0.48,3.072,0.96s1.8,1.097,2.52,1.848c0.72,0.752,1.288,1.625,1.704,2.616
		c0.416,0.992,0.624,2.08,0.624,3.264c0,0.736-0.288,1.32-0.864,1.752s-1.376,0.647-2.4,0.647c-0.512,0-1.104-0.048-1.776-0.144
		c-0.064,0-0.128-0.008-0.192-0.024c-0.064-0.016-0.112-0.024-0.144-0.024c-0.16-0.031-0.336-0.047-0.528-0.047
		s-0.384-0.016-0.576-0.049c-0.544,0.192-1.136,0.32-1.776,0.385c-0.64,0.064-1.28,0.096-1.92,0.096
		C26.384,22.848,25.408,22.737,24.192,22.512z M21.408,19.993c0.736,0.656,1.632,1.207,2.688,1.655
		c1.087-0.224,2.016-0.336,2.784-0.336c0.735,0,1.416,0.024,2.04,0.071c0.624,0.049,1.208,0.105,1.752,0.168
		c0.864-0.352,1.567-0.847,2.112-1.487c0.544-0.64,0.816-1.472,0.816-2.496c0-1.344-0.44-2.464-1.32-3.36
		c-0.88-0.896-1.928-1.536-3.144-1.92H28.8c-0.064,0-0.144-0.008-0.24-0.024c-0.096-0.016-0.176-0.024-0.24-0.024
		c-2.336,0-4.4,0.464-6.192,1.392c-1.216,1.056-1.824,2.336-1.824,3.84C20.304,18.497,20.672,19.336,21.408,19.993z"/>
	<path fill="#666666" d="M48.504,10.944c0.463,0.288,0.872,0.512,1.224,0.672v0.048c0.224,0.096,0.392,0.192,0.504,0.288
		c0.112,0.096,0.168,0.24,0.168,0.432c0,0.161-0.072,0.288-0.216,0.384c-0.144,0.096-0.328,0.208-0.552,0.336
		c-0.096,0.064-0.185,0.12-0.264,0.168c-0.08,0.048-0.185,0.104-0.312,0.168c-0.416,0.256-0.848,0.521-1.296,0.792
		c-0.449,0.272-0.864,0.624-1.248,1.056c-0.384,0.432-0.696,0.952-0.936,1.56c-0.24,0.608-0.36,1.36-0.36,2.256v6.24
		c0,0.928,0.168,1.8,0.504,2.615c0.336,0.816,0.919,1.641,1.752,2.473c0.256,0.256,0.528,0.48,0.816,0.672
		c0.288,0.191,0.56,0.368,0.816,0.527c0.352,0.225,0.64,0.417,0.864,0.576c0.224,0.161,0.336,0.354,0.336,0.576
		c0,0.32-0.216,0.535-0.648,0.648c-0.432,0.111-0.904,0.168-1.416,0.168c-1.216,0-2.208-0.232-2.976-0.696s-1.368-1.08-1.8-1.848
		c-0.432-0.769-0.729-1.647-0.888-2.64c-0.161-0.992-0.24-2.017-0.24-3.072v-6.192c0-0.736-0.081-1.375-0.24-1.92
		c-0.161-0.544-0.376-1.024-0.648-1.44c-0.272-0.416-0.56-0.775-0.864-1.08c-0.305-0.304-0.6-0.6-0.888-0.888l-0.24-0.24
		c-0.256-0.256-0.464-0.48-0.624-0.672c-0.16-0.192-0.24-0.384-0.24-0.576c0-0.288,0.151-0.6,0.456-0.936
		c0.304-0.336,0.631-0.664,0.984-0.984h-0.048l0.192-0.192c0.064-0.064,0.127-0.12,0.192-0.168c0.064-0.048,0.127-0.104,0.192-0.168
		L40.848,9.6c0.384-0.384,0.688-0.8,0.912-1.248c0.224-0.448,0.416-0.896,0.576-1.344c0.16-0.48,0.336-0.904,0.528-1.272
		c0.192-0.367,0.496-0.552,0.912-0.552c0.416,0,0.728,0.176,0.936,0.528c0.208,0.353,0.408,0.785,0.6,1.296V6.96
		c0.031,0.064,0.055,0.128,0.072,0.192c0.016,0.064,0.04,0.128,0.072,0.192c0.16,0.353,0.328,0.705,0.504,1.056
		c0.175,0.353,0.487,0.752,0.936,1.2C47.503,10.208,48.04,10.656,48.504,10.944z"/>
	<path fill="#666666" d="M57.383,6.504c-0.113,0.272-0.281,0.408-0.504,0.408c-0.161,0-0.296-0.136-0.408-0.408
		c-0.112-0.271-0.168-0.583-0.168-0.936v-4.08C56.303,0.497,56.527,0,56.975,0c0.16,0,0.295,0.128,0.408,0.384
		c0.112,0.257,0.168,0.624,0.168,1.104v4.08C57.551,5.92,57.495,6.232,57.383,6.504z"/>
	<path fill="#666666" d="M71.855,11.208c0.48,0.08,0.943,0.2,1.392,0.36c0.448,0.161,0.832,0.36,1.152,0.6
		c0.32,0.24,0.48,0.521,0.48,0.84h-1.056c-0.608,0-1.121-0.048-1.536-0.144v-0.048c-0.449-0.096-0.977-0.144-1.584-0.144
		c-0.224,0-0.568,0.056-1.032,0.168c-0.464,0.113-0.936,0.312-1.416,0.6s-0.896,0.672-1.248,1.152s-0.528,1.088-0.528,1.824
		c0,0.864,0.151,1.584,0.456,2.16c0.304,0.576,0.712,1.056,1.224,1.44c0.511,0.384,1.096,0.704,1.752,0.96
		c0.655,0.257,1.335,0.513,2.04,0.769h0.048c0.704,0.256,1.416,0.527,2.136,0.815c0.72,0.288,1.368,0.672,1.944,1.151
		c0.576,0.48,1.048,1.098,1.416,1.849c0.368,0.752,0.552,1.688,0.552,2.808c0,0.672-0.184,1.328-0.552,1.969
		c-0.368,0.641-0.912,1.208-1.632,1.703c-0.72,0.497-1.632,0.896-2.736,1.2s-2.393,0.456-3.864,0.456
		c-0.449,0-0.953-0.041-1.512-0.119c-0.56-0.081-1.096-0.193-1.608-0.337c-0.512-0.144-0.944-0.336-1.296-0.575
		c-0.353-0.24-0.528-0.521-0.528-0.841h0.72c0.064,0,0.16,0.017,0.288,0.048c0.127,0.033,0.271,0.08,0.432,0.145l-0.048-0.049
		c0.096,0.033,0.176,0.057,0.24,0.072c0.063,0.018,0.16,0.041,0.288,0.072c0.48,0.192,1,0.353,1.56,0.48
		c0.56,0.128,1.128,0.191,1.704,0.191c0.864,0,1.616-0.151,2.256-0.455c0.64-0.305,1.159-0.673,1.56-1.104
		c0.4-0.433,0.696-0.903,0.888-1.416c0.192-0.512,0.288-0.991,0.288-1.44c0-0.895-0.168-1.639-0.504-2.232
		c-0.336-0.591-0.785-1.087-1.344-1.487c-0.56-0.399-1.192-0.744-1.896-1.032c-0.704-0.287-1.44-0.559-2.208-0.816
		c-0.704-0.255-1.408-0.527-2.112-0.815c-0.705-0.288-1.328-0.647-1.872-1.08c-0.544-0.432-0.992-0.96-1.344-1.584
		s-0.528-1.399-0.528-2.328c0-1.056,0.248-1.96,0.744-2.712c0.496-0.751,1.135-1.359,1.92-1.824
		c0.784-0.463,1.648-0.808,2.592-1.032c0.944-0.223,1.864-0.336,2.76-0.336C70.991,11.088,71.375,11.128,71.855,11.208z"/>
	<path fill="#666666" d="M108.574,12.144c0.384,0.32,0.711,0.744,0.984,1.272c0.271,0.528,0.504,1.121,0.696,1.776
		c0.192,0.656,0.384,1.304,0.576,1.944v0.048c0.032,0.128,0.064,0.248,0.096,0.36c0.031,0.112,0.063,0.216,0.096,0.312
		c0.064,0.256,0.127,0.464,0.192,0.624c0.128,0.48,0.304,1.088,0.528,1.824c0.224,0.736,0.511,1.44,0.864,2.112
		c0.352,0.672,0.784,1.256,1.296,1.752c0.512,0.496,1.104,0.744,1.776,0.744c0.672,0,1.24-0.185,1.704-0.553
		c0.463-0.367,0.864-0.816,1.2-1.344c0.336-0.528,0.607-1.104,0.816-1.729c0.208-0.623,0.392-1.207,0.552-1.751
		c0.063-0.192,0.12-0.384,0.168-0.576s0.12-0.368,0.216-0.528l-0.048,0.048l0.048-0.144c0.064-0.16,0.127-0.375,0.192-0.648
		c0.064-0.271,0.144-0.6,0.24-0.984c0.096-0.448,0.216-0.919,0.36-1.416c0.144-0.496,0.32-0.944,0.528-1.344
		c0.208-0.399,0.48-0.736,0.816-1.008c0.336-0.271,0.76-0.408,1.272-0.408V13.2c0,0.608-0.128,1.36-0.384,2.256
		c-0.256,0.896-0.56,1.856-0.912,2.88c-0.032,0.096-0.065,0.192-0.096,0.288c-0.032,0.096-0.064,0.176-0.096,0.24
		c-0.032,0.065-0.056,0.144-0.072,0.24c-0.017,0.096-0.041,0.176-0.072,0.24l-2.208,6.528c-0.032,0.064-0.056,0.121-0.072,0.168
		c-0.017,0.049-0.056,0.201-0.12,0.457c-0.064,0.16-0.112,0.32-0.144,0.479c-0.032,0.16-0.08,0.32-0.144,0.479v0.049
		c-0.256,0.832-0.504,1.592-0.744,2.279c-0.24,0.689-0.497,1.272-0.768,1.752c-0.272,0.48-0.576,0.857-0.912,1.129
		s-0.728,0.407-1.176,0.407c-0.576,0-1.073-0.168-1.488-0.504c-0.416-0.336-0.768-0.769-1.056-1.296
		c-0.288-0.527-0.537-1.119-0.744-1.775c-0.208-0.656-0.408-1.305-0.6-1.945c-0.032-0.096-0.064-0.191-0.096-0.287
		c-0.032-0.096-0.064-0.192-0.096-0.288l-0.144-0.576c-0.161-0.576-0.376-1.231-0.648-1.968c-0.272-0.736-0.6-1.432-0.984-2.088
		c-0.384-0.656-0.84-1.2-1.368-1.633c-0.528-0.432-1.128-0.647-1.8-0.647c-0.672,0-1.256,0.161-1.752,0.479
		c-0.496,0.32-0.92,0.777-1.272,1.369c-0.353,0.592-0.665,1.304-0.936,2.135c-0.272,0.833-0.536,1.745-0.792,2.736
		c-0.032,0.096-0.056,0.201-0.072,0.313c-0.017,0.112-0.041,0.2-0.072,0.264v-0.048c-0.032,0.097-0.048,0.192-0.048,0.288
		s-0.017,0.176-0.048,0.24c-0.161,0.672-0.329,1.328-0.504,1.968c-0.176,0.64-0.401,1.208-0.672,1.704
		c-0.272,0.496-0.608,0.896-1.008,1.199c-0.4,0.305-0.904,0.457-1.512,0.457c-0.512,0-0.96-0.16-1.344-0.48
		c-0.384-0.319-0.736-0.768-1.056-1.344c-0.32-0.576-0.616-1.256-0.888-2.04c-0.272-0.784-0.552-1.656-0.84-2.616l-0.096-0.191
		c-0.032-0.032-0.048-0.064-0.048-0.097v-0.144c0-0.031-0.032-0.145-0.096-0.336l-2.208-6.769V19.2
		c-0.032-0.096-0.072-0.2-0.12-0.312c-0.048-0.112-0.072-0.2-0.072-0.264c-0.096-0.096-0.144-0.192-0.144-0.288
		c-0.384-1.152-0.713-2.176-0.984-3.072c-0.271-0.896-0.408-1.648-0.408-2.256c0-0.543,0.272-0.816,0.816-0.816
		c0.352,0,0.664,0.12,0.936,0.36c0.271,0.24,0.512,0.561,0.72,0.96c0.208,0.4,0.399,0.856,0.576,1.368
		c0.176,0.512,0.344,1.024,0.504,1.536c0.064,0.256,0.136,0.488,0.216,0.696c0.08,0.208,0.151,0.425,0.216,0.648l-0.048-0.048
		L93.886,18c0.031,0.064,0.063,0.161,0.096,0.288h-0.048V18.24c0,0.161,0.048,0.305,0.144,0.432c0.288,0.8,0.568,1.569,0.84,2.304
		c0.271,0.736,0.576,1.392,0.912,1.968s0.712,1.041,1.128,1.393c0.416,0.352,0.912,0.527,1.488,0.527h0.048
		c0.768,0,1.399-0.223,1.896-0.672c0.496-0.447,0.912-0.991,1.248-1.632c0.336-0.64,0.6-1.327,0.792-2.063s0.367-1.393,0.528-1.969
		V18.48l0.288-1.296c0.16-0.704,0.328-1.384,0.504-2.04c0.176-0.656,0.408-1.24,0.696-1.752c0.288-0.512,0.64-0.928,1.056-1.248
		c0.416-0.319,0.96-0.48,1.632-0.48C107.71,11.664,108.19,11.825,108.574,12.144z"/>
	<path fill="#666666" d="M138.934,11.928c0.24,0.144,0.36,0.296,0.36,0.456c0,0.512-0.24,0.84-0.72,0.984
		c-0.48,0.144-1.041,0.296-1.68,0.456c-0.544,0.096-1.032,0.216-1.464,0.36c-0.432,0.144-0.824,0.312-1.176,0.504
		c-0.353,0.192-0.696,0.416-1.032,0.672c-0.336,0.257-0.681,0.561-1.032,0.912c-0.288,0.288-0.576,0.632-0.864,1.032
		c-0.288,0.4-0.552,0.896-0.792,1.488c-0.24,0.592-0.432,1.296-0.576,2.112s-0.216,1.769-0.216,2.856v5.904
		c0,0.832-0.104,1.6-0.312,2.303c-0.208,0.705-0.552,1.057-1.032,1.057s-0.84-0.313-1.08-0.936c-0.24-0.625-0.36-1.272-0.36-1.944
		V15.792c0-0.352,0.016-0.728,0.048-1.128c0.032-0.4,0.12-0.775,0.264-1.128c0.144-0.352,0.36-0.64,0.648-0.864
		c0.288-0.224,0.688-0.336,1.2-0.336c0.288,0,0.543,0.017,0.768,0.048c0.224,0.032,0.432,0.081,0.624,0.144h-0.096
		c0.063,0,0.127,0.008,0.192,0.024c0.064,0.017,0.127,0.024,0.192,0.024c0.352,0.096,0.688,0.176,1.008,0.24
		c0.319,0.064,0.672,0.096,1.056,0.096c0.832,0,1.464-0.072,1.896-0.216c0.432-0.144,0.84-0.312,1.224-0.504
		c0.288-0.16,0.576-0.28,0.864-0.36c0.288-0.08,0.624-0.12,1.008-0.12C138.333,11.712,138.693,11.784,138.934,11.928z"/>
	<path fill="#666666" d="M146.061,30c0,0.287-0.024,0.6-0.072,0.936c-0.048,0.336-0.12,0.664-0.216,0.984
		c-0.096,0.32-0.232,0.584-0.408,0.791c-0.176,0.209-0.408,0.313-0.696,0.313c-0.256,0-0.464-0.111-0.624-0.336
		c-0.16-0.224-0.288-0.487-0.384-0.792c-0.096-0.304-0.161-0.632-0.192-0.983c-0.032-0.353-0.048-0.656-0.048-0.912V15.216
		c0-0.319,0.016-0.688,0.048-1.104c0.031-0.416,0.096-0.808,0.192-1.176c0.096-0.368,0.224-0.68,0.384-0.936
		c0.16-0.256,0.368-0.384,0.624-0.384c0.288,0,0.528,0.128,0.72,0.384c0.192,0.256,0.336,0.568,0.432,0.936
		c0.096,0.368,0.16,0.76,0.192,1.176c0.031,0.417,0.048,0.785,0.048,1.104V30z M143.805,2.856c-0.161-0.208-0.24-0.439-0.24-0.696
		c0-0.256,0.096-0.496,0.288-0.72c0.192-0.224,0.463-0.336,0.816-0.336c0.352,0,0.631,0.112,0.84,0.336
		c0.208,0.224,0.312,0.464,0.312,0.72c0,0.256-0.112,0.488-0.336,0.696c-0.224,0.208-0.496,0.312-0.816,0.312
		C144.253,3.168,143.965,3.064,143.805,2.856z"/>
	<path fill="#666666" d="M160.34,10.944c0.463,0.288,0.871,0.512,1.224,0.672v0.048c0.224,0.096,0.392,0.192,0.504,0.288
		c0.112,0.096,0.168,0.24,0.168,0.432c0,0.161-0.071,0.288-0.216,0.384c-0.144,0.096-0.328,0.208-0.552,0.336
		c-0.096,0.064-0.185,0.12-0.264,0.168c-0.081,0.048-0.185,0.104-0.313,0.168c-0.416,0.256-0.848,0.521-1.296,0.792
		c-0.448,0.272-0.864,0.624-1.248,1.056c-0.384,0.432-0.696,0.952-0.936,1.56c-0.24,0.608-0.36,1.36-0.36,2.256v6.24
		c0,0.928,0.168,1.8,0.504,2.615c0.336,0.816,0.92,1.641,1.752,2.473c0.256,0.256,0.528,0.48,0.816,0.672s0.56,0.368,0.815,0.527
		c0.352,0.225,0.64,0.417,0.864,0.576c0.224,0.161,0.336,0.354,0.336,0.576c0,0.32-0.216,0.535-0.647,0.648
		c-0.433,0.111-0.905,0.168-1.416,0.168c-1.217,0-2.208-0.232-2.977-0.696c-0.768-0.464-1.368-1.08-1.8-1.848
		c-0.432-0.769-0.729-1.647-0.888-2.64c-0.161-0.992-0.24-2.017-0.24-3.072v-6.192c0-0.736-0.08-1.375-0.24-1.92
		c-0.16-0.544-0.376-1.024-0.647-1.44c-0.272-0.416-0.561-0.775-0.864-1.08c-0.305-0.304-0.601-0.6-0.889-0.888l-0.24-0.24
		c-0.256-0.256-0.463-0.48-0.624-0.672c-0.16-0.192-0.24-0.384-0.24-0.576c0-0.288,0.151-0.6,0.456-0.936
		c0.304-0.336,0.632-0.664,0.984-0.984h-0.049l0.192-0.192c0.063-0.064,0.128-0.12,0.192-0.168c0.063-0.048,0.127-0.104,0.191-0.168
		l0.288-0.288c0.384-0.384,0.688-0.8,0.912-1.248c0.224-0.448,0.415-0.896,0.576-1.344c0.159-0.48,0.336-0.904,0.528-1.272
		c0.191-0.367,0.495-0.552,0.911-0.552s0.728,0.176,0.937,0.528c0.208,0.353,0.408,0.785,0.6,1.296V6.96
		c0.032,0.064,0.056,0.128,0.072,0.192c0.016,0.064,0.04,0.128,0.072,0.192c0.159,0.353,0.327,0.705,0.504,1.056
		c0.176,0.353,0.487,0.752,0.936,1.2C159.339,10.208,159.875,10.656,160.34,10.944z"/>
	<path fill="#666666" d="M172.124,22.512c-1.056,0.352-1.952,0.863-2.688,1.535c-0.736,0.672-1.104,1.537-1.104,2.593
		c0,0.896,0.224,1.68,0.672,2.353c0.448,0.672,1.009,1.231,1.681,1.68s1.407,0.791,2.208,1.031c0.799,0.24,1.567,0.36,2.304,0.36
		c0.768,0,1.44-0.097,2.016-0.288c0.576-0.191,1.136-0.384,1.681-0.576c0.384-0.16,0.768-0.304,1.151-0.432
		c0.385-0.127,0.769-0.191,1.152-0.191c0.224,0,0.352,0.056,0.384,0.168c0.031,0.111,0.048,0.264,0.048,0.455
		c0,0.16-0.112,0.353-0.336,0.576c-0.224,0.225-0.584,0.44-1.08,0.648s-1.136,0.393-1.92,0.552c-0.784,0.16-1.736,0.239-2.855,0.239
		h-0.097c-1.439,0-2.832-0.271-4.176-0.815s-2.536-1.288-3.576-2.231s-1.872-2.041-2.495-3.289
		c-0.624-1.248-0.937-2.574-0.937-3.983v-0.097c0-2.335,0.487-4.335,1.464-6c0.976-1.664,2.344-2.959,4.104-3.888
		c0.64-0.544,1.368-0.984,2.184-1.32c0.816-0.336,1.672-0.504,2.568-0.504c0.96,0,1.903,0.161,2.832,0.48
		c1.087,0.161,2.111,0.48,3.071,0.96s1.801,1.097,2.521,1.848c0.72,0.752,1.288,1.625,1.704,2.616
		c0.415,0.992,0.624,2.08,0.624,3.264c0,0.736-0.288,1.32-0.864,1.752s-1.376,0.647-2.4,0.647c-0.512,0-1.104-0.048-1.775-0.144
		c-0.064,0-0.129-0.008-0.192-0.024c-0.064-0.016-0.112-0.024-0.144-0.024c-0.161-0.031-0.336-0.047-0.528-0.047
		s-0.384-0.016-0.576-0.049c-0.544,0.192-1.136,0.32-1.775,0.385c-0.641,0.064-1.28,0.096-1.92,0.096
		C174.315,22.848,173.339,22.737,172.124,22.512z M169.339,19.993c0.736,0.656,1.633,1.207,2.688,1.655
		c1.088-0.224,2.016-0.336,2.784-0.336c0.735,0,1.416,0.024,2.04,0.071c0.624,0.049,1.207,0.105,1.752,0.168
		c0.864-0.352,1.567-0.847,2.111-1.487c0.544-0.64,0.816-1.472,0.816-2.496c0-1.344-0.44-2.464-1.32-3.36
		c-0.88-0.896-1.928-1.536-3.144-1.92h-0.336c-0.064,0-0.145-0.008-0.24-0.024s-0.176-0.024-0.24-0.024
		c-2.336,0-4.4,0.464-6.191,1.392c-1.217,1.056-1.824,2.336-1.824,3.84C168.236,18.497,168.603,19.336,169.339,19.993z"/>
	<path fill="#009EFF" d="M199.027,12.24c0.304,0.257,0.583,0.584,0.84,0.984c0.256,0.4,0.496,0.864,0.72,1.392
		c0.224,0.528,0.448,1.064,0.672,1.608v0.048l1.584,4.032c0.224,0.575,0.48,1.144,0.769,1.704s0.615,1.056,0.984,1.488
		c0.367,0.432,0.775,0.783,1.224,1.055c0.447,0.273,0.943,0.408,1.488,0.408c1.119,0,2.016-0.463,2.688-1.392
		c0.672-0.928,1.248-2.079,1.729-3.456l1.439-4.08v-0.048c0.128-0.384,0.28-0.799,0.456-1.248c0.176-0.448,0.367-0.864,0.576-1.248
		c0.208-0.384,0.456-0.696,0.744-0.936c0.288-0.24,0.607-0.36,0.96-0.36c0.256,0,0.424,0.081,0.504,0.24
		c0.079,0.16,0.12,0.32,0.12,0.48c0,0.32-0.089,0.8-0.265,1.44c-0.176,0.641-0.472,1.472-0.888,2.496l-7.248,18.912
		c-0.608,1.6-1.2,2.976-1.775,4.128c-0.576,1.151-1.193,2.095-1.849,2.831c-0.656,0.736-1.392,1.289-2.208,1.656
		c-0.815,0.368-1.784,0.553-2.903,0.553c-0.608,0-1.08-0.096-1.416-0.288c-0.337-0.192-0.505-0.417-0.505-0.673
		c0-0.191,0.16-0.376,0.48-0.551c0.319-0.177,0.703-0.377,1.152-0.601h0.048c0.031,0,0.063-0.017,0.096-0.048
		c0.544-0.257,1.096-0.521,1.656-0.792c0.56-0.272,1.144-0.712,1.752-1.32h0.048c0.192-0.224,0.432-0.513,0.72-0.864
		s0.568-0.76,0.84-1.224s0.496-0.983,0.673-1.56c0.175-0.576,0.264-1.232,0.264-1.969c0-0.8-0.08-1.607-0.24-2.424
		s-0.464-1.735-0.912-2.76l-4.896-11.712l-0.433-1.152l0.049,0.144l-0.049-0.048c-0.353-0.832-0.672-1.608-0.96-2.328
		c-0.288-0.72-0.432-1.303-0.432-1.752c0-0.288,0.04-0.552,0.12-0.792c0.079-0.24,0.264-0.36,0.552-0.36
		C198.378,11.856,198.722,11.984,199.027,12.24z M199.147,42.768l0.048-0.049L199.147,42.768h0.048h0.048h-0.048H199.147z"/>
	<path fill="#009EFF" d="M240.714,26.64c-0.545,1.344-1.32,2.528-2.328,3.552c-1.008,1.024-2.225,1.848-3.648,2.473
		c-1.424,0.623-3.032,0.936-4.823,0.936c-1.536,0-3-0.257-4.393-0.768c-1.392-0.512-2.615-1.248-3.672-2.209
		c-1.056-0.959-1.896-2.127-2.52-3.504c-0.624-1.375-0.937-2.928-0.937-4.656c0-1.759,0.328-3.343,0.984-4.751
		c0.655-1.408,1.52-2.592,2.592-3.552s2.296-1.696,3.672-2.208c1.376-0.512,2.8-0.768,4.272-0.768c1.504,0,2.952,0.248,4.344,0.744
		c1.392,0.497,2.632,1.224,3.72,2.184s1.952,2.145,2.592,3.552c0.641,1.408,0.96,3.008,0.96,4.799
		C241.53,23.904,241.258,25.295,240.714,26.64z M221.875,25.68c0.399,1.056,0.976,2.008,1.728,2.855
		c0.752,0.849,1.664,1.529,2.736,2.041c1.071,0.512,2.264,0.768,3.576,0.768c1.119,0,2.199-0.217,3.239-0.648
		s1.969-1.039,2.784-1.824c0.816-0.783,1.464-1.719,1.944-2.808c0.479-1.087,0.72-2.288,0.72-3.601c0-1.344-0.232-2.574-0.695-3.695
		c-0.465-1.12-1.097-2.08-1.896-2.88s-1.721-1.424-2.76-1.872c-1.04-0.448-2.152-0.672-3.336-0.672c-1.217,0-2.353,0.24-3.408,0.72
		s-1.968,1.128-2.736,1.944c-0.768,0.816-1.376,1.784-1.824,2.904c-0.448,1.12-0.672,2.303-0.672,3.551
		C221.274,23.552,221.474,24.624,221.875,25.68z"/>
	<path fill="#009EFF" d="M246.882,12.576c0.208,0.512,0.312,1.232,0.312,2.16v4.656c0,2.081,0.112,3.904,0.336,5.472
		c0.224,1.568,0.632,2.873,1.225,3.912c0.592,1.041,1.392,1.816,2.399,2.328c1.009,0.512,2.296,0.768,3.864,0.768
		c1.088,0,2.04-0.295,2.856-0.888c0.815-0.592,1.487-1.344,2.016-2.256s0.92-1.928,1.176-3.048s0.384-2.208,0.384-3.264v-7.104
		c0-0.352,0.017-0.736,0.049-1.152c0.031-0.416,0.104-0.8,0.216-1.152c0.111-0.352,0.264-0.64,0.456-0.864
		c0.191-0.224,0.432-0.336,0.72-0.336c0.64,0,1.032,0.416,1.176,1.248c0.145,0.833,0.216,1.824,0.216,2.976v12.432
		c0,1.409-0.112,2.496-0.336,3.265s-0.641,1.151-1.248,1.151c-0.544,0-0.96-0.023-1.248-0.071c-0.287-0.048-0.544-0.104-0.768-0.168
		c-0.128,0-0.225-0.032-0.288-0.097c-0.288-0.063-0.584-0.119-0.888-0.168c-0.305-0.047-0.665-0.071-1.08-0.071
		c-0.672,0-1.217,0.08-1.632,0.239c-0.417,0.161-0.833,0.336-1.248,0.528c-0.449,0.256-0.953,0.472-1.513,0.647
		s-1.336,0.265-2.327,0.265c-2.177,0-3.896-0.72-5.16-2.16c-1.265-1.44-1.896-3.632-1.896-6.575V14.352
		c0-0.896,0.12-1.543,0.36-1.944c0.24-0.4,0.535-0.6,0.888-0.6C246.346,11.808,246.673,12.064,246.882,12.576z"/>
	<path fill="#009EFF" d="M281.25,11.928c0.24,0.144,0.36,0.296,0.36,0.456c0,0.512-0.24,0.84-0.72,0.984
		c-0.48,0.144-1.04,0.296-1.681,0.456c-0.544,0.096-1.031,0.216-1.464,0.36c-0.432,0.144-0.824,0.312-1.176,0.504
		c-0.353,0.192-0.696,0.416-1.032,0.672c-0.336,0.257-0.68,0.561-1.031,0.912c-0.288,0.288-0.576,0.632-0.864,1.032
		c-0.288,0.4-0.552,0.896-0.792,1.488c-0.24,0.592-0.433,1.296-0.576,2.112s-0.216,1.769-0.216,2.856v5.904
		c0,0.832-0.104,1.6-0.313,2.303c-0.208,0.705-0.552,1.057-1.031,1.057c-0.48,0-0.841-0.313-1.08-0.936
		c-0.24-0.625-0.36-1.272-0.36-1.944V15.792c0-0.352,0.016-0.728,0.048-1.128c0.031-0.4,0.12-0.775,0.264-1.128
		c0.145-0.352,0.36-0.64,0.648-0.864c0.288-0.224,0.688-0.336,1.2-0.336c0.288,0,0.544,0.017,0.768,0.048
		c0.224,0.032,0.433,0.081,0.624,0.144h-0.096c0.063,0,0.127,0.008,0.192,0.024c0.063,0.017,0.127,0.024,0.191,0.024
		c0.352,0.096,0.688,0.176,1.008,0.24c0.319,0.064,0.672,0.096,1.057,0.096c0.831,0,1.464-0.072,1.896-0.216
		c0.433-0.144,0.84-0.312,1.225-0.504c0.287-0.16,0.575-0.28,0.863-0.36c0.288-0.08,0.624-0.12,1.008-0.12
		C280.65,11.712,281.01,11.784,281.25,11.928z"/>
	<path fill="#009EFF" d="M303.304,11.208c0.48,0.08,0.943,0.2,1.392,0.36c0.448,0.161,0.832,0.36,1.152,0.6
		c0.319,0.24,0.48,0.521,0.48,0.84h-1.057c-0.608,0-1.12-0.048-1.536-0.144v-0.048c-0.448-0.096-0.976-0.144-1.584-0.144
		c-0.224,0-0.568,0.056-1.031,0.168c-0.465,0.113-0.937,0.312-1.416,0.6c-0.48,0.288-0.896,0.672-1.248,1.152
		c-0.353,0.48-0.528,1.088-0.528,1.824c0,0.864,0.151,1.584,0.456,2.16c0.304,0.576,0.712,1.056,1.224,1.44
		c0.512,0.384,1.096,0.704,1.752,0.96c0.656,0.257,1.336,0.513,2.04,0.769h0.049c0.703,0.256,1.416,0.527,2.136,0.815
		s1.368,0.672,1.943,1.151c0.576,0.48,1.048,1.098,1.416,1.849c0.368,0.752,0.553,1.688,0.553,2.808
		c0,0.672-0.185,1.328-0.553,1.969s-0.911,1.208-1.632,1.703c-0.72,0.497-1.632,0.896-2.735,1.2
		c-1.104,0.304-2.393,0.456-3.864,0.456c-0.448,0-0.952-0.041-1.512-0.119c-0.561-0.081-1.097-0.193-1.608-0.337
		c-0.513-0.144-0.944-0.336-1.296-0.575c-0.353-0.24-0.528-0.521-0.528-0.841h0.72c0.064,0,0.16,0.017,0.288,0.048
		c0.128,0.033,0.271,0.08,0.433,0.145l-0.048-0.049c0.096,0.033,0.175,0.057,0.239,0.072c0.064,0.018,0.16,0.041,0.288,0.072
		c0.48,0.192,1,0.353,1.561,0.48c0.56,0.128,1.128,0.191,1.704,0.191c0.863,0,1.615-0.151,2.256-0.455
		c0.64-0.305,1.159-0.673,1.56-1.104c0.4-0.433,0.696-0.903,0.889-1.416c0.191-0.512,0.287-0.991,0.287-1.44
		c0-0.895-0.168-1.639-0.504-2.232c-0.336-0.591-0.784-1.087-1.344-1.487c-0.561-0.399-1.192-0.744-1.896-1.032
		c-0.705-0.287-1.44-0.559-2.208-0.816c-0.705-0.255-1.409-0.527-2.112-0.815c-0.704-0.288-1.328-0.647-1.872-1.08
		c-0.545-0.432-0.992-0.96-1.344-1.584c-0.353-0.624-0.528-1.399-0.528-2.328c0-1.056,0.247-1.96,0.744-2.712
		c0.496-0.751,1.136-1.359,1.92-1.824c0.784-0.463,1.647-0.808,2.592-1.032c0.943-0.223,1.864-0.336,2.76-0.336
		C302.44,11.088,302.825,11.128,303.304,11.208z"/>
	<path fill="#009EFF" d="M320.993,10.944c0.463,0.288,0.871,0.512,1.224,0.672v0.048c0.224,0.096,0.392,0.192,0.504,0.288
		c0.112,0.096,0.168,0.24,0.168,0.432c0,0.161-0.071,0.288-0.216,0.384c-0.144,0.096-0.328,0.208-0.552,0.336
		c-0.096,0.064-0.185,0.12-0.264,0.168c-0.081,0.048-0.185,0.104-0.313,0.168c-0.416,0.256-0.848,0.521-1.296,0.792
		c-0.448,0.272-0.864,0.624-1.248,1.056c-0.384,0.432-0.696,0.952-0.936,1.56c-0.24,0.608-0.36,1.36-0.36,2.256v6.24
		c0,0.928,0.168,1.8,0.504,2.615c0.336,0.816,0.92,1.641,1.752,2.473c0.256,0.256,0.528,0.48,0.816,0.672s0.56,0.368,0.815,0.527
		c0.352,0.225,0.64,0.417,0.864,0.576c0.224,0.161,0.336,0.354,0.336,0.576c0,0.32-0.216,0.535-0.647,0.648
		c-0.433,0.111-0.905,0.168-1.416,0.168c-1.217,0-2.208-0.232-2.977-0.696c-0.768-0.464-1.368-1.08-1.8-1.848
		c-0.432-0.769-0.729-1.647-0.888-2.64c-0.161-0.992-0.24-2.017-0.24-3.072v-6.192c0-0.736-0.08-1.375-0.24-1.92
		c-0.16-0.544-0.376-1.024-0.647-1.44c-0.272-0.416-0.561-0.775-0.864-1.08c-0.305-0.304-0.601-0.6-0.889-0.888l-0.239-0.24
		c-0.257-0.256-0.465-0.48-0.624-0.672c-0.161-0.192-0.24-0.384-0.24-0.576c0-0.288,0.151-0.6,0.456-0.936
		c0.304-0.336,0.632-0.664,0.984-0.984h-0.049l0.192-0.192c0.063-0.064,0.128-0.12,0.192-0.168c0.063-0.048,0.127-0.104,0.191-0.168
		l0.288-0.288c0.384-0.384,0.688-0.8,0.912-1.248c0.224-0.448,0.415-0.896,0.576-1.344c0.159-0.48,0.336-0.904,0.528-1.272
		c0.191-0.367,0.495-0.552,0.911-0.552s0.728,0.176,0.937,0.528c0.208,0.353,0.408,0.785,0.6,1.296V6.96
		c0.032,0.064,0.056,0.128,0.072,0.192c0.016,0.064,0.04,0.128,0.072,0.192c0.159,0.353,0.327,0.705,0.504,1.056
		c0.176,0.353,0.487,0.752,0.936,1.2C319.992,10.208,320.528,10.656,320.993,10.944z"/>
	<path fill="#009EFF" d="M347.56,26.64c-0.545,1.344-1.32,2.528-2.328,3.552c-1.008,1.024-2.225,1.848-3.648,2.473
		c-1.424,0.623-3.032,0.936-4.823,0.936c-1.536,0-3-0.257-4.393-0.768c-1.392-0.512-2.615-1.248-3.672-2.209
		c-1.056-0.959-1.896-2.127-2.52-3.504c-0.624-1.375-0.937-2.928-0.937-4.656c0-1.759,0.328-3.343,0.984-4.751
		c0.655-1.408,1.52-2.592,2.592-3.552s2.296-1.696,3.672-2.208c1.376-0.512,2.8-0.768,4.272-0.768c1.504,0,2.952,0.248,4.344,0.744
		c1.392,0.497,2.632,1.224,3.72,2.184s1.952,2.145,2.592,3.552c0.641,1.408,0.96,3.008,0.96,4.799
		C348.375,23.904,348.104,25.295,347.56,26.64z M328.72,25.68c0.399,1.056,0.976,2.008,1.728,2.855
		c0.752,0.849,1.664,1.529,2.736,2.041c1.071,0.512,2.264,0.768,3.576,0.768c1.119,0,2.199-0.217,3.239-0.648
		s1.969-1.039,2.784-1.824c0.816-0.783,1.464-1.719,1.944-2.808c0.479-1.087,0.72-2.288,0.72-3.601c0-1.344-0.232-2.574-0.695-3.695
		c-0.465-1.12-1.097-2.08-1.896-2.88s-1.721-1.424-2.76-1.872c-1.04-0.448-2.152-0.672-3.336-0.672c-1.217,0-2.353,0.24-3.408,0.72
		s-1.968,1.128-2.736,1.944c-0.768,0.816-1.376,1.784-1.824,2.904c-0.448,1.12-0.672,2.303-0.672,3.551
		C328.12,23.552,328.32,24.624,328.72,25.68z"/>
	<path fill="#009EFF" d="M364.335,11.928c0.24,0.144,0.36,0.296,0.36,0.456c0,0.512-0.24,0.84-0.72,0.984
		c-0.48,0.144-1.04,0.296-1.681,0.456c-0.544,0.096-1.031,0.216-1.464,0.36c-0.432,0.144-0.824,0.312-1.176,0.504
		c-0.353,0.192-0.696,0.416-1.032,0.672c-0.336,0.257-0.68,0.561-1.031,0.912c-0.288,0.288-0.576,0.632-0.864,1.032
		c-0.288,0.4-0.552,0.896-0.792,1.488c-0.24,0.592-0.433,1.296-0.576,2.112s-0.216,1.769-0.216,2.856v5.904
		c0,0.832-0.104,1.6-0.313,2.303c-0.208,0.705-0.552,1.057-1.031,1.057c-0.48,0-0.841-0.313-1.08-0.936
		c-0.24-0.625-0.36-1.272-0.36-1.944V15.792c0-0.352,0.016-0.728,0.048-1.128c0.031-0.4,0.12-0.775,0.264-1.128
		c0.145-0.352,0.36-0.64,0.648-0.864c0.288-0.224,0.688-0.336,1.2-0.336c0.288,0,0.544,0.017,0.768,0.048
		c0.224,0.032,0.433,0.081,0.624,0.144h-0.096c0.063,0,0.127,0.008,0.192,0.024c0.063,0.017,0.127,0.024,0.191,0.024
		c0.352,0.096,0.688,0.176,1.008,0.24c0.319,0.064,0.672,0.096,1.057,0.096c0.831,0,1.464-0.072,1.896-0.216
		c0.433-0.144,0.84-0.312,1.225-0.504c0.287-0.16,0.575-0.28,0.863-0.36c0.288-0.08,0.624-0.12,1.008-0.12
		C363.736,11.712,364.096,11.784,364.335,11.928z"/>
	<path fill="#009EFF" d="M371.463,30c0,0.287-0.024,0.6-0.072,0.936s-0.12,0.664-0.216,0.984s-0.232,0.584-0.408,0.791
		c-0.176,0.209-0.407,0.313-0.695,0.313c-0.257,0-0.465-0.111-0.624-0.336c-0.161-0.224-0.288-0.487-0.385-0.792
		c-0.096-0.304-0.16-0.632-0.191-0.983c-0.032-0.353-0.048-0.656-0.048-0.912V15.216c0-0.319,0.016-0.688,0.048-1.104
		c0.031-0.416,0.096-0.808,0.191-1.176c0.097-0.368,0.224-0.68,0.385-0.936c0.159-0.256,0.367-0.384,0.624-0.384
		c0.288,0,0.527,0.128,0.72,0.384c0.191,0.256,0.336,0.568,0.432,0.936c0.097,0.368,0.16,0.76,0.192,1.176
		c0.031,0.417,0.048,0.785,0.048,1.104V30z M369.208,2.856c-0.16-0.208-0.24-0.439-0.24-0.696c0-0.256,0.096-0.496,0.288-0.72
		c0.192-0.224,0.464-0.336,0.816-0.336c0.352,0,0.631,0.112,0.84,0.336c0.207,0.224,0.312,0.464,0.312,0.72
		c0,0.256-0.112,0.488-0.336,0.696c-0.224,0.208-0.496,0.312-0.815,0.312C369.655,3.168,369.367,3.064,369.208,2.856z"/>
	<path fill="#009EFF" d="M384.134,22.512c-1.056,0.352-1.952,0.863-2.688,1.535c-0.736,0.672-1.104,1.537-1.104,2.593
		c0,0.896,0.224,1.68,0.672,2.353c0.448,0.672,1.009,1.231,1.681,1.68s1.407,0.791,2.208,1.031c0.799,0.24,1.567,0.36,2.304,0.36
		c0.768,0,1.44-0.097,2.016-0.288c0.576-0.191,1.136-0.384,1.681-0.576c0.384-0.16,0.768-0.304,1.151-0.432
		c0.385-0.127,0.769-0.191,1.152-0.191c0.224,0,0.352,0.056,0.384,0.168c0.031,0.111,0.048,0.264,0.048,0.455
		c0,0.16-0.112,0.353-0.336,0.576c-0.224,0.225-0.584,0.44-1.08,0.648s-1.136,0.393-1.92,0.552c-0.784,0.16-1.736,0.239-2.855,0.239
		h-0.097c-1.439,0-2.832-0.271-4.176-0.815s-2.536-1.288-3.576-2.231s-1.872-2.041-2.495-3.289
		c-0.624-1.248-0.937-2.574-0.937-3.983v-0.097c0-2.335,0.487-4.335,1.464-6c0.976-1.664,2.344-2.959,4.104-3.888
		c0.64-0.544,1.368-0.984,2.184-1.32c0.816-0.336,1.672-0.504,2.568-0.504c0.96,0,1.903,0.161,2.832,0.48
		c1.087,0.161,2.111,0.48,3.071,0.96s1.801,1.097,2.521,1.848c0.72,0.752,1.288,1.625,1.704,2.616
		c0.415,0.992,0.624,2.08,0.624,3.264c0,0.736-0.288,1.32-0.864,1.752s-1.376,0.647-2.4,0.647c-0.512,0-1.104-0.048-1.775-0.144
		c-0.064,0-0.129-0.008-0.192-0.024c-0.064-0.016-0.112-0.024-0.144-0.024c-0.161-0.031-0.336-0.047-0.528-0.047
		s-0.384-0.016-0.576-0.049c-0.544,0.192-1.136,0.32-1.775,0.385c-0.641,0.064-1.28,0.096-1.92,0.096
		C386.326,22.848,385.35,22.737,384.134,22.512z M381.35,19.993c0.736,0.656,1.633,1.207,2.688,1.655
		c1.088-0.224,2.016-0.336,2.784-0.336c0.735,0,1.416,0.024,2.04,0.071c0.624,0.049,1.207,0.105,1.752,0.168
		c0.864-0.352,1.567-0.847,2.111-1.487c0.544-0.64,0.816-1.472,0.816-2.496c0-1.344-0.44-2.464-1.32-3.36
		c-0.88-0.896-1.928-1.536-3.144-1.92h-0.336c-0.064,0-0.145-0.008-0.24-0.024s-0.176-0.024-0.24-0.024
		c-2.336,0-4.4,0.464-6.191,1.392c-1.217,1.056-1.824,2.336-1.824,3.84C380.247,18.497,380.614,19.336,381.35,19.993z"/>
	<path fill="#009EFF" d="M408.038,11.208c0.48,0.08,0.943,0.2,1.392,0.36c0.448,0.161,0.832,0.36,1.152,0.6
		c0.319,0.24,0.48,0.521,0.48,0.84h-1.057c-0.608,0-1.12-0.048-1.536-0.144v-0.048c-0.448-0.096-0.976-0.144-1.584-0.144
		c-0.224,0-0.568,0.056-1.031,0.168c-0.465,0.113-0.937,0.312-1.416,0.6c-0.48,0.288-0.896,0.672-1.248,1.152
		c-0.353,0.48-0.528,1.088-0.528,1.824c0,0.864,0.151,1.584,0.456,2.16c0.304,0.576,0.712,1.056,1.224,1.44
		c0.512,0.384,1.096,0.704,1.752,0.96c0.656,0.257,1.336,0.513,2.04,0.769h0.049c0.703,0.256,1.416,0.527,2.136,0.815
		s1.368,0.672,1.943,1.151c0.576,0.48,1.048,1.098,1.416,1.849c0.368,0.752,0.553,1.688,0.553,2.808
		c0,0.672-0.185,1.328-0.553,1.969s-0.911,1.208-1.632,1.703c-0.72,0.497-1.632,0.896-2.735,1.2
		c-1.104,0.304-2.393,0.456-3.864,0.456c-0.448,0-0.952-0.041-1.512-0.119c-0.561-0.081-1.097-0.193-1.608-0.337
		c-0.513-0.144-0.944-0.336-1.296-0.575c-0.353-0.24-0.528-0.521-0.528-0.841h0.72c0.064,0,0.16,0.017,0.288,0.048
		c0.128,0.033,0.271,0.08,0.433,0.145l-0.048-0.049c0.096,0.033,0.175,0.057,0.239,0.072c0.064,0.018,0.16,0.041,0.288,0.072
		c0.48,0.192,1,0.353,1.561,0.48c0.56,0.128,1.128,0.191,1.704,0.191c0.863,0,1.615-0.151,2.256-0.455
		c0.64-0.305,1.159-0.673,1.56-1.104c0.4-0.433,0.696-0.903,0.889-1.416c0.191-0.512,0.287-0.991,0.287-1.44
		c0-0.895-0.168-1.639-0.504-2.232c-0.336-0.591-0.784-1.087-1.344-1.487c-0.561-0.399-1.192-0.744-1.896-1.032
		c-0.705-0.287-1.44-0.559-2.208-0.816c-0.705-0.255-1.409-0.527-2.112-0.815c-0.704-0.288-1.328-0.647-1.872-1.08
		c-0.545-0.432-0.992-0.96-1.344-1.584c-0.353-0.624-0.528-1.399-0.528-2.328c0-1.056,0.247-1.96,0.744-2.712
		c0.496-0.751,1.136-1.359,1.92-1.824c0.784-0.463,1.647-0.808,2.592-1.032c0.943-0.223,1.864-0.336,2.76-0.336
		C407.173,11.088,407.558,11.128,408.038,11.208z"/>
</g>
</svg>
