<svg id="Layer_1" data-name="Layer 1" xmlns="http://www.w3.org/2000/svg" viewBox="0 0 298.47 207.8"><defs><style>.cls-1{fill:#037a7c;}.cls-2{fill:#fff;}.cls-3{fill:#231f20;}</style></defs><title>storiesout</title><path class="cls-1" d="M540.88,210.92h0c-0.27-.19-0.51-0.48-0.79-0.67a4.77,4.77,0,0,1-.33-0.39h0c-0.74-.68-1.5-1.36-2.27-2l-0.3-.19-0.24-.28q-1.39-1.18-2.84-2.33a1.94,1.94,0,0,0-1.12-.4c-0.54-.54.34-0.07,0.37-0.19l0,0-1.1-.71c-0.28-.19-0.58-0.36-0.8-0.49L531,203a0.14,0.14,0,0,1,.13-0.19q-1.91-1.4-3.88-2.71v0l-0.29-.21-0.09-.06A102.91,102.91,0,0,0,515,193.14a15.66,15.66,0,0,1-2-.48c-0.61-.33-1.28-0.68-2-1s-1.52-.68-2.32-1l-2.47-1c-0.84-.31-1.69-0.59-2.51-0.88l-2.35-.82-2.08-.63c-0.77-.24-1.42-0.46-1.91-0.65h0a101.56,101.56,0,0,0-14.07-2.7c-0.82.17-1.3,0.41-1.32,0.69,1,0,2.52,0,3.85.12a5.11,5.11,0,0,1,2.72.7c-2-.19-5.45-0.39-5.66-0.07-2-.92,3.76.28,1.14-0.62a11.21,11.21,0,0,0-2.68,0c1-.19-1.21-0.57-1.63-0.75-1.14-.09-2.15-0.19-3.12-0.29s-1.87-.12-2.79-0.19-1.85-.14-2.86-0.18-2.1,0-3.33,0c0.17,0.06.23,0.07-.09,0h0.09l-0.22-.08c-1,0-1.95.09-2.92,0.15-0.43.13-.84,0.28-1.2,0.41-1,.41-1.61.81-1.14,1-1.39.1-2.13,0.15-2.81,0.18a14.28,14.28,0,0,0-2.48.32c3.84,0.12-.75,0-1.05.69-2.37.5-.88-0.16-2-0.11a3.62,3.62,0,0,0-1.32.7,6.34,6.34,0,0,0,1.4,0c-1.08.16-1.42,0.13-1.4,0-1.4-.19,1.8-1.45,1.18-1.89q-1.85.31-3.66,0.7l0.08,0.24-0.68.17,0.11-.3q-1.82.39-3.59,0.84a2.66,2.66,0,0,0,2.09,1.83,1.77,1.77,0,0,1-1.32.23,10.13,10.13,0,0,0-2,.16,9.6,9.6,0,0,0-3.66,1,13,13,0,0,1-3.14,1.34l1.72-.94a12.6,12.6,0,0,0-2.19.74,10.48,10.48,0,0,0-2.19,1.12c-0.17-.17,1.42-1.74.25-1.55a26,26,0,0,0-3.08,1.35,17.79,17.79,0,0,0-2.43,1.55c-1.34,1-2.06,1.83-1.79,2.05l3-1.74,1.12-.64,1-.51,1-.5c0.21,0.21-.9.78-2,1.38s-2.12,1.29-1.86,1.52l-0.92.38c-0.55.23-1.3,0.53-2,.88l-2.82,1.34c0.76-.42,2.75-1.61,1.78-1.43-2.45,1.29-1.32.56-3.08,1.2,0.62-.53,1.37-1.16,2.17-1.87s1.63-1.52,2.49-2.21l0.84-.72q-2.59,1.18-5.1,2.51l-0.31.33A17.33,17.33,0,0,0,422,197l-0.85,1.24c-2.23,1.12-2.07-.28-1.65-0.77a11.06,11.06,0,0,0-2.39,1.73,15.44,15.44,0,0,0-1.39,1.53,14.86,14.86,0,0,1-3.67,3.38l1.66-.88c-0.44.39-1.57,1.13-2.5,1.81a6.12,6.12,0,0,0-1.44,1.22c-0.89.33-1.94,0.36-1.46-.31l-0.31.41c-0.26.34-.63,0.76-0.95,1.23l-1.25,1.75c0.23-.47-0.56-0.84-0.46-1.13-1.32,1.1-1.57,2.64-.75,2.2-0.71.41-1.17,0.73-1.52,1l-0.86.6a21.22,21.22,0,0,1-2.18,1.28c-0.69.76,0.74,0.62,1.35,0.18-0.76.86-1.34,1.57-1.88,2.1s-1,.95-1.4,1.31L398,217H398a6.88,6.88,0,0,0-2.17,3l0.46-2.86,0.86-.05,0.86,0,0.12-.1c1.64-2.12.61-2.33-.15-2.62-0.6.62-1.18,1.24-1.77,1.87-0.23.48-.46,1-0.68,1.55l-1.15,2.75c-0.31.74-.49,1.25-0.49,1.25a3.27,3.27,0,0,0-.31-1.4,4.89,4.89,0,0,1-.84,1.82c-0.54.91-1.36,2-2.2,3.27s-1.76,2.59-2.61,3.87-1.62,2.5-2.26,3.46l0.37-.59c0.14-.45-0.4.09-1,1-0.33.5-.68,1.1-1,1.67h0c-2.1,2.36-.82,4.07-2.89,6.5,1.36-2.48,1.32-3.13,1-3.15-0.2.56-.52,1.26-0.87,2l-0.53,1.12c-0.17.37-.31,0.75-0.45,1.1-0.55,1.4-.84,2.43-0.18,2.11-0.39.64-.71,1.26-0.95,1.71s-0.43.7-.63,0.54c0,0-.39,1.38-0.78,2.76-0.09.34-.19,0.68-0.29,1s-0.14.64-.21,0.9l-0.2.87c0-.43-0.1-0.88-0.7.68a21.16,21.16,0,0,0,.7-2.25c0.21-.74.41-1.46,0.61-2.12a7.85,7.85,0,0,1,1.38-3.14c-0.51-.31-1.3.68-1.12-0.93a21.22,21.22,0,0,0-.72,2.1c-0.21.68-.39,1.31-0.56,1.93s-0.32,1.19-.43,1.76-0.2,1.12-.28,1.65c-0.16,1.06-.29,2.05-0.41,3s-0.15,1.94-.25,2.92l-0.29.8c-0.17.47-.43,1.11-0.62,1.76L373.5,263l0.21,0.28-0.88.78a5.38,5.38,0,0,1,0,1.27c-0.09.11-.14-0.07-0.19-0.35a8.81,8.81,0,0,0-.08,1.37,0.5,0.5,0,0,0,.3-0.27c-0.19.6-.27,0.58-0.3,0.27-0.38.15-.62-0.88-0.8-2-0.07.15-.13,0.3-0.21,0.44,0,2.66,0,5.63.82,3.55,0,0.09-.07.23-0.12,0.41s-0.23.66-.31,1.05l-0.39,1.55c0.1,1.9.11,2.66,0.15,3.54s0.07,1.85.14,4.11c-0.25.23-.36-1-0.59-0.17a14,14,0,0,1,.08,2.66c-0.06.92-.19,1.84-0.33,2.68-0.25,1.69-.41,3.07-0.09,3.42,0.24,2.66.59,1.09,0.86,2.76-0.08-.07-0.24-0.23-0.21.27l0.64,2c-0.11.82-.47-1.81-0.51,0.45,0.29,1.92.68,3.41,0.94,4.84,0.13,0.71.23,1.4,0.33,2.13s0.23,1.45.31,2.25c0.92,4.47.6-2.1,1.18,1.71-0.3.64-.64,1.22-0.15,3.59a7.91,7.91,0,0,0,.7,1.17,10.32,10.32,0,0,1,.82,1.81l-0.62,0c0.58,1.93,1.12,3.43.68,3.58a13.72,13.72,0,0,1,1.26,3.41c1.27,2.76.45-2.48,0.45-3.23,0.25,1.46.62,2.66,0.88,3.73a10.26,10.26,0,0,1,.5,2.89l-0.56-1.2c-0.13-.3-0.27-0.6-0.38-0.82s-0.16-.38-0.16-0.38a15.11,15.11,0,0,0,1.85,4.76,3.89,3.89,0,0,1,.8,2.77,15.9,15.9,0,0,0-1.27-2.41c-0.36-.59-0.62-0.8-0.57-0.2l0.21,0.39,0.5,0.84,0.72,1.22c0,0.37-.77-1.42-0.4-0.17a28.2,28.2,0,0,0,1.91,2.61l0.25,0.09c0.14,0.29,0,.19-0.25-0.09h-0.05l1.2,2.23,0.82,1.53,0.15,0.26c-0.3-.43-0.41-0.35-0.06.33l1.93,2.72c0.15,0.19.35,0.46,0.64,0.9l-0.64-.9c-0.63-.81-0.3.21,0.4,1.53,2.18,3.71,2.94,2.17,4.36,5.2-0.27-.4-0.38-0.42-0.65-0.82l0.76,1.55c0.31-.11.84,0.33,1.47,1.06s1.45,1.67,2.23,2.64a24.05,24.05,0,0,0,2.31,2.57c0.7,0.66,1.26,1.06,1.56.91,1.2,2.15-.12.35-2.61-1.61l1.41,2.19c-0.73-.76-1.23-1.49-2.06-2.26a17,17,0,0,0,3.1,3.67c1.11,1,2.16,1.69,2.91,2.23,0.38,0.53,0,.52-0.07.68s0,0.52,1.46,1.72c4,3.42-.07-1.36,2.29.68,0,0,.29.52,0.62,1l0.64,1c0.84,0.56,1.59,1.12,2.28,1.68s1.38,1.07,2,1.61l1.86,1.62c0.64,0.51,1.28,1,2,1.52a5.27,5.27,0,0,0,1.18.61l-0.09-.07,0.24,0.07c0.25-.09-0.35-0.73,1.26.36l-0.63-.17-0.64-.19a0.35,0.35,0,0,1-.15,0,14.55,14.55,0,0,0,2.26,1.52c0.8,0.45,1.61.88,2.39,1.28a30.7,30.7,0,0,1,4.25,2.17c-0.63-.17,1.16,1.09,1.38,1.37l2.26,0.93c0.56,0.24,1.14.44,1.57,0.59l0.29,0.11c-1.63-.52-1.72-0.2-2.2-0.06,1.38,0.67,2.15.72,3.11,1.12-0.63-.14-1.28-0.28-0.61.21l2.47,0.78,2.49,0.65a10.12,10.12,0,0,0-1.23-.6c1.2,0.45,3.83,1.3,5.48,2.13-0.21.09-.85,0-1,0.1a5.63,5.63,0,0,0-.93-0.5,3.93,3.93,0,0,0-.8-0.28,6.46,6.46,0,0,0-1.38-.14c3.34,1.24.78,0.44,2.3,1.28,2.39,0.79,3.52.64,3,.12a24.78,24.78,0,0,0,3.09,1.1,23.73,23.73,0,0,0,3.26.64l-0.33.19-0.33.17,0.4,0.09,0.9,0.15,1.31,0.22-2.25.13c2.45,0.75,2.74.59,3.08,0.43a1.48,1.48,0,0,1,.86-0.11,9.11,9.11,0,0,1,1,.16c0.43,0.07,1,.18,1.66.34l-0.07.45c2.19,0.19,3-.38,4.62.35,2.12,0-3.47-1.09,1.43-.56a13.73,13.73,0,0,0,1.83.54c0.74,0.18,1.56.28,2.26,0.39,1.49-.09-0.82-0.55-1.94-0.65a25.42,25.42,0,0,1,3.73.45,15.76,15.76,0,0,1,1.94.6,7.75,7.75,0,0,0,1.81.45,13.73,13.73,0,0,0,1.44.09,14.75,14.75,0,0,0,2.11-.11c-1.15-.13-0.67-0.37-0.58-0.55s-0.22-.3-2.91-0.37c2.56-.15,5.08.66,7.75,0.11l-1.73.63a12.08,12.08,0,0,0,2.58-.38l-0.19.47a16.53,16.53,0,0,1,4.58-.6,6.94,6.94,0,0,0,3.5-.87c-0.63.49,0,.4,0.93,0.21a15,15,0,0,1,2.87-.54,15.29,15.29,0,0,1-2.31.67c-0.86.15-1.77,0.27-2.6,0.38s-1.59.23-2.15,0.36a1.53,1.53,0,0,0-1,.45c1.31,0.13,2.4-.43,3.67-0.35,0.79-.21,1.24-0.29.23,0h-0.23a14.92,14.92,0,0,0-2.39.77,19.49,19.49,0,0,0,5.21-.79c1.41-.45,2.6-0.93,3.85-1.25l-4.45,1c0.24-.81,2-0.49,3.14-1.29a9.53,9.53,0,0,0,1.62-.14c0.5-.11,1-0.25,1.43-0.39a14.11,14.11,0,0,1,2.71-.65c-0.42.09-.48,0.17-0.82,0.25,0.54-.13,1-0.22,1.5-0.3s1-.19,1.39-0.25a19.81,19.81,0,0,1,2.19-.19,9.92,9.92,0,0,0,3.09-.31,20.24,20.24,0,0,0,3.15-1.24c0.88-.49,1.36-0.88.69-0.78,0.7-.41-0.8.31-2.23,0.72s-2.73.74-1.55-.17a8.91,8.91,0,0,0,4.54-1.32c0.84-.42,1.78-0.86,2.86-1.34a27.73,27.73,0,0,1,3.79-1.47c-2.29,1.47,1.73-.09-0.35,1.18a13.73,13.73,0,0,0,2.44-1.4c0.45-.33.72-0.61,1.22-1.05l1-.09a11.88,11.88,0,0,0,1.42-1.28c0.25-.27.37-0.42,0.54-0.6a6.65,6.65,0,0,1,.89-0.72l0.95-.66c0.4-.27.88-0.61,1.45-1.05-1.48,1.28,2.23-.82,1.12.19A18.41,18.41,0,0,0,528.1,367l-0.15.17c1.17-.89,2-1.48,2.7-1.93l1.63-1.1c0.47-.32.93-0.64,1.52-1.1,0.29-.23.62-0.49,1-0.82s0.78-.74,1.25-1.21l-0.54.19c1.22-1.26,2.61-2.5,3.94-3.89l2.08-2.05,2-2.16c1.4-1.42,2.66-3,3.94-4.43,0.65-.73,1.2-1.52,1.78-2.27s1.14-1.49,1.65-2.23l-0.26.3-0.59.65-0.73.81c0.33-.39,1-1.27,1.63-2.29a25.66,25.66,0,0,1,2.44-3.29c0.12-.19.21-0.33,0.23-0.27s-0.15.19-.23,0.27c-0.24.38-.62,1.06-0.88,1.39a1.08,1.08,0,0,0,.73-0.35,6.42,6.42,0,0,0,1.32-1.49l0.05-.76,0.62-.43c1.44-2.23-.86.37,0.58-1.85a5.35,5.35,0,0,0,1.66-1.89,36,36,0,0,0,2.09-3.54l2-3.75a10.48,10.48,0,0,1,1.57-2.47c0.05-2-2.17,4.54-2,2.44a17.63,17.63,0,0,0,1.48-2.5l-0.66.35c0.92-1.78,1.57-3.34,2.19-4.73,0.31-.7.63-1.35,0.88-2s0.49-1.28.74-1.89c0.48-1.24,1-2.46,1.35-3.83,0.2-.68.41-1.39,0.64-2.14,0.1-.38.22-0.77,0.32-1.17s0.18-.83.28-1.26l0,0.3c0.74-2.45,1-3.81.79-5,0.3-.48.08,1.34,0.44,0.41a13,13,0,0,1,.22-3.36c0.23-1.07.42-2.12,0.7-3.1s0.52-1.93.67-2.8a7.07,7.07,0,0,0,0-2.37c0.4,0.19.89-.9,1.35-1.93,0.11-1.91.17-3.85,0.17-5.79A101.36,101.36,0,0,0,540.88,210.92ZM372.39,268.31l0.63-2A20.38,20.38,0,0,1,372.39,268.31Zm4,43.41,0.18,0.11,0.11,1.64A4.73,4.73,0,0,1,376.4,311.72Zm7.06-75.7a2.83,2.83,0,0,1,.55-1.19A9.74,9.74,0,0,0,383.46,236Zm3.78,102v-1.05l0.25,0.41ZM401,353.44c0.54,0.54,1.15,1.06,1.67,1.56C402.4,355.58,402.05,354.65,401,353.44Zm18.86-153.77c-2.62,1.3-.1.7-2.93,2.23-1.1-.05-0.17-0.49,1.34-1.75,0.12-.12.32-0.3,0.76-0.66-0.26.25-.52,0.46-0.76,0.66C417.7,200.73,420.36,199.06,419.84,199.67Zm70.26-13.24c-3.42-.58.27-0.22,0.58-0.33C493.14,186.71,490.41,186.3,490.11,186.43Zm7.1,1.28,0.23-.54a3.52,3.52,0,0,0,1.08.68Zm26,9.95-1-.64,1.45,0.86,0.29,0.24,0.2,0.17C524,198.18,523.63,197.9,523.23,197.65Z" transform="translate(-368.23 -180.47)"/><path class="cls-1" d="M372.55,266.36a0.5,0.5,0,0,0,.3-0.27C372.66,266.69,372.57,266.67,372.55,266.36Z" transform="translate(-368.23 -180.47)"/><path class="cls-1" d="M372.39,268.31l0.63-2A20.38,20.38,0,0,1,372.39,268.31Z" transform="translate(-368.23 -180.47)"/><path class="cls-1" d="M376.4,311.72l0.18,0.11,0.11,1.64A4.73,4.73,0,0,1,376.4,311.72Z" transform="translate(-368.23 -180.47)"/><path class="cls-1" d="M381.6,328.37l0.25,0.09C382,328.75,381.85,328.65,381.6,328.37Z" transform="translate(-368.23 -180.47)"/><path class="cls-1" d="M384,234.82a9.74,9.74,0,0,0-.55,1.19A2.83,2.83,0,0,1,384,234.82Z" transform="translate(-368.23 -180.47)"/><path class="cls-1" d="M384,332.76a1.35,1.35,0,0,0-.15-0.24Z" transform="translate(-368.23 -180.47)"/><path class="cls-1" d="M386.23,336.33l-0.64-.9C385.75,335.63,385.94,335.9,386.23,336.33Z" transform="translate(-368.23 -180.47)"/><polygon class="cls-1" points="19.01 157.5 19 156.45 19.24 156.86 19.01 157.5"/><path class="cls-1" d="M395.8,220l0.46-2.86,0.86-.05,0.86,0A6.88,6.88,0,0,0,395.8,220Z" transform="translate(-368.23 -180.47)"/><path class="cls-1" d="M398,217H398l0.12-.1Z" transform="translate(-368.23 -180.47)"/><path class="cls-1" d="M401,353.44c0.54,0.54,1.15,1.06,1.67,1.56C402.4,355.58,402.05,354.65,401,353.44Z" transform="translate(-368.23 -180.47)"/><path class="cls-1" d="M415.17,366.41a0.35,0.35,0,0,1-.15,0l-0.09-.07Z" transform="translate(-368.23 -180.47)"/><path class="cls-1" d="M415.8,366.6l-0.64-.19c0.25-.09-0.35-0.73,1.26.36Z" transform="translate(-368.23 -180.47)"/><path class="cls-1" d="M419,199.49c-0.26.25-.52,0.46-0.76,0.66C418.38,200,418.58,199.85,419,199.49Z" transform="translate(-368.23 -180.47)"/><path class="cls-1" d="M418.26,200.15c-0.56.58,2.11-1.09,1.59-.48-2.62,1.3-.1.7-2.93,2.23C415.82,201.84,416.75,201.41,418.26,200.15Z" transform="translate(-368.23 -180.47)"/><path class="cls-1" d="M399.49,215.59c-0.53.54-1,.95-1.4,1.31,1.64-2.12.61-2.33-.15-2.62a101.87,101.87,0,0,1,25.85-19.44l-0.31.33A17.33,17.33,0,0,0,422,197l-0.85,1.24c-2.23,1.12-2.07-.28-1.65-0.77a11.06,11.06,0,0,0-2.39,1.73,15.44,15.44,0,0,0-1.39,1.53,14.86,14.86,0,0,1-3.67,3.38l1.66-.88c-0.44.39-1.57,1.13-2.5,1.81a6.12,6.12,0,0,0-1.44,1.22c-0.89.33-1.94,0.36-1.46-.31l-0.31.41c-0.26.34-.63,0.76-0.95,1.23l-1.25,1.75c0.23-.47-0.56-0.84-0.46-1.13-1.32,1.1-1.57,2.64-.75,2.2-0.71.41-1.17,0.73-1.52,1l-0.86.6a21.22,21.22,0,0,1-2.18,1.28c-0.69.76,0.74,0.62,1.35,0.18C400.61,214.35,400,215.05,399.49,215.59Z" transform="translate(-368.23 -180.47)"/><path class="cls-1" d="M423.39,197.15c0.62-.53,1.37-1.16,2.17-1.87s1.63-1.52,2.49-2.21l0.84-.72a101.14,101.14,0,0,1,17-6,2.66,2.66,0,0,0,2.09,1.83,1.77,1.77,0,0,1-1.32.23,10.13,10.13,0,0,0-2,.16,9.6,9.6,0,0,0-3.66,1,13,13,0,0,1-3.14,1.34l1.72-.94a12.6,12.6,0,0,0-2.19.74,10.48,10.48,0,0,0-2.19,1.12c-0.17-.17,1.42-1.74.25-1.55a26,26,0,0,0-3.08,1.35,17.79,17.79,0,0,0-2.43,1.55c-1.34,1-2.06,1.83-1.79,2.05l3-1.74,1.12-.64,1-.51,1-.5c0.21,0.21-.9.78-2,1.38s-2.12,1.29-1.86,1.52l-0.92.38c-0.55.23-1.3,0.53-2,.88l-2.82,1.34c0.76-.42,2.75-1.61,1.78-1.43C424,197.23,425.15,196.5,423.39,197.15Z" transform="translate(-368.23 -180.47)"/><path class="cls-1" d="M450.06,185.62l-0.68.17,0.11-.3,0.49-.11Z" transform="translate(-368.23 -180.47)"/><path class="cls-1" d="M452.46,186.57a6.34,6.34,0,0,0,1.4,0C452.78,186.73,452.44,186.69,452.46,186.57Z" transform="translate(-368.23 -180.47)"/><path class="cls-1" d="M453.64,184.68a101.19,101.19,0,0,1,10.83-1.28c-0.43.13-.84,0.28-1.2,0.41-1,.41-1.61.81-1.14,1-1.39.1-2.13,0.15-2.81,0.18a14.28,14.28,0,0,0-2.48.32c3.84,0.12-.75,0-1.05.69-2.37.5-.88-0.16-2-0.11a3.62,3.62,0,0,0-1.32.7C451.06,186.38,454.25,185.12,453.64,184.68Z" transform="translate(-368.23 -180.47)"/><path class="cls-1" d="M467.52,183.33h0.09C467.78,183.39,467.83,183.4,467.52,183.33Z" transform="translate(-368.23 -180.47)"/><path class="cls-1" d="M484.51,384.31h-0.23C485.07,384.09,485.52,384,484.51,384.31Z" transform="translate(-368.23 -180.47)"/><path class="cls-1" d="M467.61,183.33l-0.22-.08c1.23,0,2.47-.07,3.72-0.07a103,103,0,0,1,12.17.72c-0.82.17-1.3,0.41-1.32,0.69,1,0,2.52,0,3.85.12a5.11,5.11,0,0,1,2.72.7c-2-.19-5.45-0.39-5.66-0.07-2-.92,3.76.28,1.14-0.62a11.21,11.21,0,0,0-2.68,0c1-.19-1.21-0.57-1.63-0.75-1.14-.09-2.15-0.19-3.12-0.29s-1.87-.12-2.79-0.19-1.85-.14-2.86-0.18S468.84,183.31,467.61,183.33Z" transform="translate(-368.23 -180.47)"/><path class="cls-1" d="M490.69,186.1c2.45,0.62-.27.21-0.58,0.33C486.68,185.86,490.38,186.21,490.69,186.1Z" transform="translate(-368.23 -180.47)"/><path class="cls-1" d="M498.52,187.84l-1.31-.13,0.23-.54A3.52,3.52,0,0,0,498.52,187.84Z" transform="translate(-368.23 -180.47)"/><path class="cls-1" d="M499.29,187.26c-0.77-.24-1.42-0.46-1.91-0.65A100.6,100.6,0,0,1,515,193.14a15.66,15.66,0,0,1-2-.48c-0.61-.33-1.28-0.68-2-1s-1.52-.68-2.32-1l-2.47-1c-0.84-.31-1.69-0.59-2.51-0.88l-2.35-.82Z" transform="translate(-368.23 -180.47)"/><path class="cls-1" d="M523.23,197.65l-1-.64,1.45,0.86,0.29,0.24,0.2,0.17C524,198.18,523.63,197.9,523.23,197.65Z" transform="translate(-368.23 -180.47)"/><path class="cls-1" d="M527.29,200.13l-0.29-.21,0.28,0.19v0Z" transform="translate(-368.23 -180.47)"/><path class="cls-1" d="M531.39,203.22L531,203a0.14,0.14,0,0,1,.13-0.19q1.07,0.78,2.13,1.61l-1.1-.71C531.91,203.52,531.62,203.35,531.39,203.22Z" transform="translate(-368.23 -180.47)"/><path class="cls-1" d="M533.33,204.46l0.76,0.59a1.94,1.94,0,0,0-1.12-.4C532.43,204.1,533.31,204.57,533.33,204.46Z" transform="translate(-368.23 -180.47)"/><path class="cls-1" d="M537.17,207.65l-0.24-.28,0.54,0.47Z" transform="translate(-368.23 -180.47)"/><path class="cls-1" d="M540.08,210.26a4.77,4.77,0,0,1-.33-0.39c0.38,0.35.76,0.7,1.13,1.05h0C540.6,210.74,540.36,210.44,540.08,210.26Z" transform="translate(-368.23 -180.47)"/><path class="cls-1" d="M553.65,340.06c-0.07.07-.15,0.19-0.23,0.27C553.53,340.14,553.62,340,553.65,340.06Z" transform="translate(-368.23 -180.47)"/><path class="cls-1" d="M572.56,290.59A101.63,101.63,0,1,1,371.37,265.2c0.06-.31.12-0.63,0.19-0.94s0.07-.37.12-0.56c0.13-.68.29-1.34,0.44-2a101.32,101.32,0,0,1,24.05-45.54c-0.23.48-.46,1-0.68,1.55l-1.15,2.75c-0.31.74-.49,1.25-0.49,1.25a3.27,3.27,0,0,0-.31-1.4,4.89,4.89,0,0,1-.84,1.82c-0.54.91-1.36,2-2.2,3.27s-1.76,2.59-2.61,3.87-1.62,2.5-2.26,3.46l0.37-.59c0.14-.45-0.4.09-1,1-0.33.5-.68,1.1-1,1.67h0c-2.1,2.36-.82,4.07-2.89,6.5,1.36-2.48,1.32-3.13,1-3.15-0.2.56-.52,1.26-0.87,2l-0.53,1.12c-0.17.37-.31,0.75-0.45,1.1-0.55,1.4-.84,2.43-0.18,2.11-0.39.64-.71,1.26-0.95,1.71s-0.43.7-.63,0.54c0,0-.39,1.38-0.78,2.76-0.09.34-.19,0.68-0.29,1s-0.14.64-.21,0.9l-0.2.87c0-.43-0.1-0.88-0.7.68a21.16,21.16,0,0,0,.7-2.25c0.21-.74.41-1.46,0.61-2.12a7.85,7.85,0,0,1,1.38-3.14c-0.51-.31-1.3.68-1.12-0.93a21.22,21.22,0,0,0-.72,2.1c-0.21.68-.39,1.31-0.56,1.93s-0.32,1.19-.43,1.76-0.2,1.12-.28,1.65c-0.16,1.06-.29,2.05-0.41,3s-0.15,1.94-.25,2.92l-0.29.8c-0.17.47-.43,1.11-0.62,1.76L373.5,263l0.21,0.28-0.88.78a5.38,5.38,0,0,1,0,1.27c-0.09.11-.14-0.07-0.19-0.35a8.81,8.81,0,0,0-.08,1.37c-0.38.15-.62-0.88-0.8-2-0.07.15-.13,0.3-0.21,0.44,0,2.66,0,5.63.82,3.55,0,0.09-.07.23-0.12,0.41s-0.23.66-.31,1.05l-0.39,1.55c0.1,1.9.11,2.66,0.15,3.54s0.07,1.85.14,4.11c-0.25.23-.36-1-0.59-0.17a14,14,0,0,1,.08,2.66c-0.06.92-.19,1.84-0.33,2.68-0.25,1.69-.41,3.07-0.09,3.42,0.24,2.66.59,1.09,0.86,2.76-0.08-.07-0.24-0.23-0.21.27l0.64,2c-0.11.82-.47-1.81-0.51,0.45,0.29,1.92.68,3.41,0.94,4.84,0.13,0.71.23,1.4,0.33,2.13s0.23,1.45.31,2.25c0.92,4.47.6-2.1,1.18,1.71-0.3.64-.64,1.22-0.15,3.59a7.91,7.91,0,0,0,.7,1.17,10.32,10.32,0,0,1,.82,1.81l-0.62,0c0.58,1.93,1.12,3.43.68,3.58a13.72,13.72,0,0,1,1.26,3.41c1.27,2.76.45-2.48,0.45-3.23,0.25,1.46.62,2.66,0.88,3.73a10.26,10.26,0,0,1,.5,2.89l-0.56-1.2c-0.13-.3-0.27-0.6-0.38-0.82s-0.16-.38-0.16-0.38a15.11,15.11,0,0,0,1.85,4.76,3.89,3.89,0,0,1,.8,2.77,15.9,15.9,0,0,0-1.27-2.41c-0.36-.59-0.62-0.8-0.57-0.2l0.21,0.39,0.5,0.84,0.72,1.22c0,0.37-.77-1.42-0.4-0.17a28.2,28.2,0,0,0,1.91,2.61h-0.05l1.2,2.23,0.82,1.53,0.15,0.26c-0.3-.43-0.41-0.35-0.06.33l1.93,2.72c-0.63-.81-0.3.21,0.4,1.53,2.18,3.71,2.94,2.17,4.36,5.2-0.27-.4-0.38-0.42-0.65-0.82l0.76,1.55c0.31-.11.84,0.33,1.47,1.06s1.45,1.67,2.23,2.64a24.05,24.05,0,0,0,2.31,2.57c0.7,0.66,1.26,1.06,1.56.91,1.2,2.15-.12.35-2.61-1.61l1.41,2.19c-0.73-.76-1.23-1.49-2.06-2.26a17,17,0,0,0,3.1,3.67c1.11,1,2.16,1.69,2.91,2.23,0.38,0.53,0,.52-0.07.68s0,0.52,1.46,1.72c4,3.42-.07-1.36,2.29.68,0,0,.29.52,0.62,1l0.64,1c0.84,0.56,1.59,1.12,2.28,1.68s1.38,1.07,2,1.61l1.86,1.62c0.64,0.51,1.28,1,2,1.52a5.27,5.27,0,0,0,1.18.61,14.55,14.55,0,0,0,2.26,1.52c0.8,0.45,1.61.88,2.39,1.28a30.7,30.7,0,0,1,4.25,2.17c-0.63-.17,1.16,1.09,1.38,1.37l2.26,0.93c0.56,0.24,1.14.44,1.57,0.59l0.29,0.11c-1.63-.52-1.72-0.2-2.2-0.06,1.38,0.67,2.15.72,3.11,1.12-0.63-.14-1.28-0.28-0.61.21l2.47,0.78,2.49,0.65a10.12,10.12,0,0,0-1.23-.6c1.2,0.45,3.83,1.3,5.48,2.13-0.21.09-.85,0-1,0.1a5.63,5.63,0,0,0-.93-0.5,3.93,3.93,0,0,0-.8-0.28,6.46,6.46,0,0,0-1.38-.14c3.34,1.24.78,0.44,2.3,1.28,2.39,0.79,3.52.64,3,.12a24.78,24.78,0,0,0,3.09,1.1,23.73,23.73,0,0,0,3.26.64l-0.33.19-0.33.17,0.4,0.09,0.9,0.15,1.31,0.22-2.25.13c2.45,0.75,2.74.59,3.08,0.43a1.48,1.48,0,0,1,.86-0.11,9.11,9.11,0,0,1,1,.16c0.43,0.07,1,.18,1.66.34l-0.07.45c2.19,0.19,3-.38,4.62.35,2.12,0-3.47-1.09,1.43-.56a13.73,13.73,0,0,0,1.83.54c0.74,0.18,1.56.28,2.26,0.39,1.49-.09-0.82-0.55-1.94-0.65a25.42,25.42,0,0,1,3.73.45,15.76,15.76,0,0,1,1.94.6,7.75,7.75,0,0,0,1.81.45,13.73,13.73,0,0,0,1.44.09,14.75,14.75,0,0,0,2.11-.11c-1.15-.13-0.67-0.37-0.58-0.55s-0.22-.3-2.91-0.37c2.56-.15,5.08.66,7.75,0.11l-1.73.63a12.08,12.08,0,0,0,2.58-.38l-0.19.47a16.53,16.53,0,0,1,4.58-.6,6.94,6.94,0,0,0,3.5-.87c-0.63.49,0,.4,0.93,0.21a15,15,0,0,1,2.87-.54,15.29,15.29,0,0,1-2.31.67c-0.86.15-1.77,0.27-2.6,0.38s-1.59.23-2.15,0.36a1.53,1.53,0,0,0-1,.45c1.31,0.13,2.4-.43,3.67-0.35a14.92,14.92,0,0,0-2.39.77,19.49,19.49,0,0,0,5.21-.79c1.41-.45,2.6-0.93,3.85-1.25l-4.45,1c0.24-.81,2-0.49,3.14-1.29a9.53,9.53,0,0,0,1.62-.14c0.5-.11,1-0.25,1.43-0.39a14.11,14.11,0,0,1,2.71-.65c-0.42.09-.48,0.17-0.82,0.25,0.54-.13,1-0.22,1.5-0.3s1-.19,1.39-0.25a19.81,19.81,0,0,1,2.19-.19,9.92,9.92,0,0,0,3.09-.31,20.24,20.24,0,0,0,3.15-1.24c0.88-.49,1.36-0.88.69-0.78,0.7-.41-0.8.31-2.23,0.72s-2.73.74-1.55-.17a8.91,8.91,0,0,0,4.54-1.32c0.84-.42,1.78-0.86,2.86-1.34a27.73,27.73,0,0,1,3.79-1.47c-2.29,1.47,1.73-.09-0.35,1.18a13.73,13.73,0,0,0,2.44-1.4c0.45-.33.72-0.61,1.22-1.05l1-.09a11.88,11.88,0,0,0,1.42-1.28c0.25-.27.37-0.42,0.54-0.6a6.65,6.65,0,0,1,.89-0.72l0.95-.66c0.4-.27.88-0.61,1.45-1.05-1.48,1.28,2.23-.82,1.12.19A18.41,18.41,0,0,0,528.1,367l-0.15.17c1.17-.89,2-1.48,2.7-1.93l1.63-1.1c0.47-.32.93-0.64,1.52-1.1,0.29-.23.62-0.49,1-0.82s0.78-.74,1.25-1.21l-0.54.19c1.22-1.26,2.61-2.5,3.94-3.89l2.08-2.05,2-2.16c1.4-1.42,2.66-3,3.94-4.43,0.65-.73,1.2-1.52,1.78-2.27s1.14-1.49,1.65-2.23l-0.26.3-0.59.65-0.73.81c0.33-.39,1-1.27,1.63-2.29a25.66,25.66,0,0,1,2.44-3.29c-0.24.38-.62,1.06-0.88,1.39a1.08,1.08,0,0,0,.73-0.35,6.42,6.42,0,0,0,1.32-1.49l0.05-.76,0.62-.43c1.44-2.23-.86.37,0.58-1.85a5.35,5.35,0,0,0,1.66-1.89,36,36,0,0,0,2.09-3.54l2-3.75a10.48,10.48,0,0,1,1.57-2.47c0.05-2-2.17,4.54-2,2.44a17.63,17.63,0,0,0,1.48-2.5l-0.66.35c0.92-1.78,1.57-3.34,2.19-4.73,0.31-.7.63-1.35,0.88-2s0.49-1.28.74-1.89c0.48-1.24,1-2.46,1.35-3.83,0.2-.68.41-1.39,0.64-2.14,0.1-.38.22-0.77,0.32-1.17s0.18-.83.28-1.26l0,0.3c0.74-2.45,1-3.81.79-5,0.3-.48.08,1.34,0.44,0.41a13,13,0,0,1,.22-3.36c0.23-1.07.42-2.12,0.7-3.1s0.52-1.93.67-2.8a7.07,7.07,0,0,0,0-2.37C571.61,292.72,572.1,291.63,572.56,290.59Z" transform="translate(-368.23 -180.47)"/><path class="cls-1" d="M575,284c0,1,.38.62,0.45,0.76C575.34,283.19,574.92,284.09,575,284Z" transform="translate(-368.23 -180.47)"/><polygon class="cls-1" points="204.59 87.87 204.79 88.12 203.99 85.9 204.59 87.87"/><path class="cls-1" d="M569.45,254c-0.27,1.53,1.64,5.09,1.93,7.73l-0.05.46,0.8,1c-0.42-1.55-.89-3.33-1.43-5A42.88,42.88,0,0,1,569.45,254Z" transform="translate(-368.23 -180.47)"/><path class="cls-1" d="M568.15,246c-0.06.56-.84-1.52,0.61,1.76,0-.18,0-0.23-0.06-0.34C568.57,247.17,568.41,246.75,568.15,246Z" transform="translate(-368.23 -180.47)"/><path class="cls-1" d="M568.69,247.47c0.6,1.46-.17-1,0,0h0Z" transform="translate(-368.23 -180.47)"/><path class="cls-1" d="M565.72,240.83l1.07,1.79c0-.46-0.77-2.16-0.38-1.58C565.41,239.15,565.45,239.62,565.72,240.83Z" transform="translate(-368.23 -180.47)"/><path class="cls-1" d="M564.44,239.27l0.29,0.45,0.27,0.46A1.52,1.52,0,0,0,564.44,239.27Z" transform="translate(-368.23 -180.47)"/><path class="cls-1" d="M566.12,242.17l-1.13-2a0.78,0.78,0,0,0,.5.92C565.24,241,565.6,241.35,566.12,242.17Z" transform="translate(-368.23 -180.47)"/><path class="cls-1" d="M566.56,243.38a10.32,10.32,0,0,1,.41,1.46c0,0.27-.08.16-0.6-0.74,0.8,1.8,1.22,2.54,1.28,2.36a2.67,2.67,0,0,0-.21-0.93A15.4,15.4,0,0,0,566.56,243.38Z" transform="translate(-368.23 -180.47)"/><path class="cls-1" d="M568.54,253.49l0.15,0.75c0.07,0.38.12,0.76,0.12,0.76l0.58,1.2a11.16,11.16,0,0,1-.44-1.65A2,2,0,0,0,568.54,253.49Z" transform="translate(-368.23 -180.47)"/><path class="cls-1" d="M559.86,229.31c-0.19,0,.05.79,0,1,0,0,.25.3,0.48,0.6l0.45,0.62A10.39,10.39,0,0,1,559.86,229.31Z" transform="translate(-368.23 -180.47)"/><path class="cls-1" d="M559.83,230.32l-1.44-1.79C559.47,230.26,559.77,230.52,559.83,230.32Z" transform="translate(-368.23 -180.47)"/><path class="cls-1" d="M563.6,239.27s0.56,0.76,1,1.56l1,1.59-1.16-1.92c-0.28-.48-0.6-0.94-0.83-1.29l-0.39-.58Z" transform="translate(-368.23 -180.47)"/><path class="cls-1" d="M554.92,222.05l0.52,0.43,0.51,0.43-0.88-.8-0.92-.76Z" transform="translate(-368.23 -180.47)"/><path class="cls-1" d="M551.25,217.54c0.84,0.55-.51-1.3.29-0.64a24.71,24.71,0,0,0-3.11-2.8A18.36,18.36,0,0,1,551.25,217.54Z" transform="translate(-368.23 -180.47)"/><path class="cls-1" d="M546.79,212.83c0.49,0.42,1,.82,1.63,1.27A15.5,15.5,0,0,0,546.79,212.83Z" transform="translate(-368.23 -180.47)"/><path class="cls-1" d="M556.28,225.27a3.91,3.91,0,0,0-.71-1.71l0.19,1Z" transform="translate(-368.23 -180.47)"/><path class="cls-1" d="M555.78,224.57v0l-1.11-1.59Z" transform="translate(-368.23 -180.47)"/><path class="cls-1" d="M556.41,225.46l-0.13-.19A0.2,0.2,0,0,0,556.41,225.46Z" transform="translate(-368.23 -180.47)"/><path class="cls-1" d="M561.13,233.86c-0.86-1-2.45-3.32-1.41-.82C560.43,233.72,559.84,232.29,561.13,233.86Z" transform="translate(-368.23 -180.47)"/><path class="cls-1" d="M556.64,226.65l0.21,0.32,0.42,0.71,0.61,1c0.06-.1,0-0.55.41-0.05l-0.82-1-0.56-.7Z" transform="translate(-368.23 -180.47)"/><polygon class="cls-1" points="187.63 45.29 188.41 46.17 187.93 45.43 187.63 45.29"/><path class="cls-1" d="M549.32,216.16a14.34,14.34,0,0,1-1.2-1.14l-1.3-1.3c0.44,0.53.93,1,1.37,1.59s0.89,1.08,1.34,1.59C549.74,217,550.3,217.27,549.32,216.16Z" transform="translate(-368.23 -180.47)"/><path class="cls-1" d="M552.54,220.19l-0.16-.17C552.44,220.15,552.5,220.25,552.54,220.19Z" transform="translate(-368.23 -180.47)"/><path class="cls-1" d="M537.57,205l0.11,0.19,0.08,0Z" transform="translate(-368.23 -180.47)"/><path class="cls-1" d="M549.61,217.13a7.27,7.27,0,0,0,1.59,1.61c-0.54-.56-1.1-1.17-1.68-1.84C549.42,216.88,549.38,216.89,549.61,217.13Z" transform="translate(-368.23 -180.47)"/><path class="cls-1" d="M544.16,210.41c0.34,0.43.73,0.91,1.12,1.43A4.75,4.75,0,0,0,544.16,210.41Z" transform="translate(-368.23 -180.47)"/><path class="cls-1" d="M552.25,219.67l0.11,0.11C552.21,219.46,552.21,219.52,552.25,219.67Z" transform="translate(-368.23 -180.47)"/><path class="cls-1" d="M552.25,219.67a12.34,12.34,0,0,0-1-.93c0.42,0.48.81,0.91,1.18,1.28A2.13,2.13,0,0,1,552.25,219.67Z" transform="translate(-368.23 -180.47)"/><path class="cls-1" d="M537.47,207.84l-0.3-.19-0.24-.28a13.85,13.85,0,0,0-1-1,11.8,11.8,0,0,0-1.3-1l-0.56-.35a1.94,1.94,0,0,0-1.12-.4c-0.54-.54.34-0.07,0.37-0.19l0,0-1.1-.71c-0.28-.19-0.58-0.36-0.8-0.49L531,203a0.14,0.14,0,0,1,.13-0.19,4.55,4.55,0,0,1,1.82.69c1,0.51,1.85,1,1.48.4,0.54,0.56.64,0.8,0.94,1.14a17,17,0,0,0,2,1.71c1.73,1.05-1.42-2.07-2-2.7,2,1.28,2.08,1.22,2.25,1.13C538.71,206.93,539,208.72,537.47,207.84Z" transform="translate(-368.23 -180.47)"/><path class="cls-1" d="M541.09,208.2l0.74,0.64c-0.76-.84-1.27-1.47-2.2-2.66-1.36-.94-1.71-1.05-1.88-1l1.82,1.61,1.25,1.1c0.33,0.31.55,0.52,0.55,0.52Z" transform="translate(-368.23 -180.47)"/><path class="cls-1" d="M545,211.92c-0.8-.29-2.65-1.75-1.91-0.46a11.33,11.33,0,0,0,1.76,1.48,5.46,5.46,0,0,1,1.21.82c-3.28-3.29,1.09.81-1.07-1.78,0.68,0.61,1.27,1.2,1.82,1.75-0.54-.64-1.06-1.27-1.53-1.88l0.06,0.1h0c0.1,0.18.13,0.25,0,.07l-0.07-.06a0.51,0.51,0,0,1-.26,0c-0.87-1-.07-0.23.26,0a0.24,0.24,0,0,0,.08,0v0l-0.53-.5c-0.32-.3-0.77-0.68-1.21-1.06l-1.77-1.53C542.5,209.58,543.43,210.39,545,211.92Z" transform="translate(-368.23 -180.47)"/><path class="cls-1" d="M557.71,231.38c0-.14,0-0.15,0-0.17C557.51,231,557.42,230.91,557.71,231.38Z" transform="translate(-368.23 -180.47)"/><path class="cls-1" d="M556.9,229.66A5,5,0,0,1,558,231c0.4,0.86-.17.1-0.26,0.21,0.45,0.49,1.46,1.79.55-.06L558,230.9a14.87,14.87,0,0,1-1.52-3.69A7.15,7.15,0,0,0,556.9,229.66Z" transform="translate(-368.23 -180.47)"/><path class="cls-1" d="M551.28,220.48l-0.4-.45c-0.24-.27-0.55-0.64-0.89-1l-1.34-1.39,1,1.71,0.1-.21C551.09,220.89,551,220.38,551.28,220.48Z" transform="translate(-368.23 -180.47)"/><path class="cls-1" d="M537.36,204.54H538s-0.52-.26-1.06-0.48l-1.08-.46Z" transform="translate(-368.23 -180.47)"/><path class="cls-1" d="M533.35,201.45l0.37-.18-0.61-.31-0.61-.3Z" transform="translate(-368.23 -180.47)"/><path class="cls-1" d="M386.23,336.33l-0.64-.9C385.75,335.63,385.94,335.9,386.23,336.33Z" transform="translate(-368.23 -180.47)"/><path class="cls-1" d="M381.6,328.37l0.25,0.09C382,328.75,381.85,328.65,381.6,328.37Z" transform="translate(-368.23 -180.47)"/><path class="cls-1" d="M416.39,196.38c-1.59.6-3.47,1.16-3.06,1.4l0.66,0.07A15.3,15.3,0,0,1,416.39,196.38Z" transform="translate(-368.23 -180.47)"/><path class="cls-1" d="M371.75,264.39c-0.07.15-.13,0.3-0.21,0.44,0-.19,0-0.38,0-0.57,0-.36,0-0.7.06-1,0,0.15,0,.31.06,0.47S371.72,264.15,371.75,264.39Z" transform="translate(-368.23 -180.47)"/><path class="cls-1" d="M373,266.27a20.38,20.38,0,0,1-.63,2Z" transform="translate(-368.23 -180.47)"/><path class="cls-1" d="M416.43,366.77l-0.63-.17-0.64-.19C415.41,366.32,414.81,365.68,416.43,366.77Z" transform="translate(-368.23 -180.47)"/><path class="cls-1" d="M485.89,182c-1.4-.34-2.53-0.55-3.53-0.7C484.06,181.75,485.39,182.28,485.89,182Z" transform="translate(-368.23 -180.47)"/><path class="cls-1" d="M380.22,334.84a1.34,1.34,0,0,0,.7.72C380.51,335,380.24,334.66,380.22,334.84Z" transform="translate(-368.23 -180.47)"/><path class="cls-1" d="M478.22,181L479,181.1a25.94,25.94,0,0,1,3.39.19A11.37,11.37,0,0,0,478.22,181Z" transform="translate(-368.23 -180.47)"/><path class="cls-1" d="M553.65,340.06c-0.07.07-.15,0.19-0.23,0.27C553.53,340.14,553.62,340,553.65,340.06Z" transform="translate(-368.23 -180.47)"/><path class="cls-1" d="M573.59,298.59c0,0.47-.13,1.23-0.22,1.94A15.93,15.93,0,0,0,573.59,298.59Z" transform="translate(-368.23 -180.47)"/><path class="cls-1" d="M516,190.76c1,0.44.18,0,0,0h0Z" transform="translate(-368.23 -180.47)"/><path class="cls-1" d="M519.91,194.56a0.57,0.57,0,0,0-.47,0A0.77,0.77,0,0,1,519.91,194.56Z" transform="translate(-368.23 -180.47)"/><path class="cls-1" d="M467.52,183.33h0.09C467.78,183.39,467.83,183.4,467.52,183.33Z" transform="translate(-368.23 -180.47)"/><path class="cls-1" d="M517.39,191.65c-0.34-.23-0.73-0.48-1.17-0.73C516.4,191,516.75,191.27,517.39,191.65Z" transform="translate(-368.23 -180.47)"/><path class="cls-1" d="M517.28,191.38l0.82,0.46C518.25,191.84,518.16,191.75,517.28,191.38Z" transform="translate(-368.23 -180.47)"/><path class="cls-1" d="M514.65,190.16c0.56,0.25,1.08.5,1.57,0.76-0.18-.11-0.25-0.17-0.19-0.16Z" transform="translate(-368.23 -180.47)"/><path class="cls-1" d="M484.51,384.31h-0.23C485.07,384.09,485.52,384,484.51,384.31Z" transform="translate(-368.23 -180.47)"/><path class="cls-1" d="M398.09,216.9L398,217H398Z" transform="translate(-368.23 -180.47)"/><path class="cls-1" d="M398,217a6.88,6.88,0,0,0-2.17,3l0.46-2.86,0.86-.05Z" transform="translate(-368.23 -180.47)"/><path class="cls-1" d="M508.56,188a7.34,7.34,0,0,1-1.89-.64,3.9,3.9,0,0,0,1.65.75C508.68,188.16,508.68,188.09,508.56,188ZM574,291a16.84,16.84,0,0,0,.05-2.13,2.41,2.41,0,0,0-.23-1.22l0.06,1.89c-0.33-1.27-.73-0.4-1.2.7l-0.14.31c-0.46,1-.95,2.13-1.35,1.93a7.07,7.07,0,0,1,0,2.37c-0.15.87-.42,1.81-0.67,2.8s-0.47,2-.7,3.1a13,13,0,0,0-.22,3.36c-0.36.94-.14-0.89-0.44-0.41,0.21,1.2-.05,2.56-0.79,5l0-.3q-0.15.65-.28,1.26c-0.1.4-.22,0.79-0.32,1.17-0.23.75-.43,1.46-0.64,2.14-0.39,1.36-.87,2.58-1.35,3.83-0.24.62-.49,1.24-0.74,1.89s-0.58,1.3-.88,2c-0.62,1.39-1.28,2.95-2.19,4.73l0.66-.35a17.63,17.63,0,0,1-1.48,2.5c-0.2,2.1,2-4.39,2-2.44a10.48,10.48,0,0,0-1.57,2.47l-2,3.75a36,36,0,0,1-2.09,3.54,5.35,5.35,0,0,1-1.66,1.89c-1.43,2.22.86-.38-0.58,1.85l-0.62.43-0.05.76a6.42,6.42,0,0,1-1.32,1.49,1.08,1.08,0,0,1-.73.35c0.26-.33.64-1,0.88-1.39a25.66,25.66,0,0,0-2.44,3.29c-0.67,1-1.3,1.9-1.63,2.29l0.73-.81,0.59-.65,0.26-.3c-0.52.74-1.08,1.47-1.65,2.23s-1.13,1.54-1.78,2.27c-1.28,1.46-2.54,3-3.94,4.43l-2,2.16-2.08,2.05c-1.33,1.39-2.72,2.63-3.94,3.89L536,361c-0.47.47-.88,0.88-1.25,1.21s-0.7.59-1,.82c-0.59.46-1,.78-1.52,1.1l-1.63,1.1c-0.68.45-1.52,1-2.7,1.93l0.15-.17a18.41,18.41,0,0,1-3.47,2.65c1.11-1-2.6,1.1-1.12-.19-0.57.44-1.05,0.78-1.45,1.05l-0.95.66a6.65,6.65,0,0,0-.89.72c-0.17.17-.29,0.33-0.54,0.6a11.88,11.88,0,0,1-1.42,1.28l-1,.09c-0.51.44-.77,0.72-1.22,1.05a13.73,13.73,0,0,1-2.44,1.4c2.08-1.27-1.93.29,0.35-1.18a27.73,27.73,0,0,0-3.79,1.47c-1.08.48-2,.92-2.86,1.34a8.91,8.91,0,0,1-4.54,1.32c-1.18.91,0.12,0.62,1.55,0.17s2.93-1.12,2.23-.72c0.68-.1.19,0.29-0.69,0.78a20.24,20.24,0,0,1-3.15,1.24,9.92,9.92,0,0,1-3.09.31,19.81,19.81,0,0,0-2.19.19c-0.43.07-.88,0.15-1.39,0.25s-1,.17-1.5.3c0.33-.09.39-0.16,0.82-0.25a14.11,14.11,0,0,0-2.71.65c-0.45.14-.93,0.28-1.43,0.39a9.53,9.53,0,0,1-1.62.14c-1.14.8-2.9,0.48-3.14,1.29l4.45-1c-1.25.32-2.43,0.8-3.85,1.25a19.49,19.49,0,0,1-5.21.79,14.92,14.92,0,0,1,2.39-.77c-1.26-.08-2.35.48-3.67,0.35a1.53,1.53,0,0,1,1-.45c0.56-.13,1.32-0.24,2.15-0.36s1.73-.23,2.6-0.38a15.29,15.29,0,0,0,2.31-.67,15,15,0,0,0-2.87.54c-0.94.19-1.56,0.29-.93-0.21a6.94,6.94,0,0,1-3.5.87,16.53,16.53,0,0,0-4.58.6l0.19-.47a12.08,12.08,0,0,1-2.58.38l1.73-.63c-2.68.56-5.19-.25-7.75-0.11,2.69,0.07,3,.19,2.91.37s-0.57.41,0.58,0.55a14.75,14.75,0,0,1-2.11.11,13.73,13.73,0,0,1-1.44-.09,7.75,7.75,0,0,1-1.81-.45,15.76,15.76,0,0,0-1.94-.6,25.42,25.42,0,0,0-3.73-.45c1.12,0.1,3.43.56,1.94,0.65-0.7-.11-1.52-0.21-2.26-0.39a13.73,13.73,0,0,1-1.83-.54c-4.9-.53.69,0.56-1.43,0.56-1.6-.73-2.43-0.15-4.62-0.35l0.07-.45c-0.69-.16-1.23-0.27-1.66-0.34a9.11,9.11,0,0,0-1-.16,1.48,1.48,0,0,0-.86.11c-0.34.16-.63,0.32-3.08-0.43l2.25-.13-1.31-.22-0.9-.15-0.4-.09,0.33-.17,0.33-.19a23.73,23.73,0,0,1-3.26-.64,24.78,24.78,0,0,1-3.09-1.1c0.52,0.52-.61.67-3-0.12-1.52-.84,1,0-2.3-1.28a6.46,6.46,0,0,1,1.38.14,3.93,3.93,0,0,1,.8.28,5.63,5.63,0,0,1,.93.5c0.19-.09.84,0,1-0.1-1.65-.83-4.28-1.67-5.48-2.13a10.12,10.12,0,0,1,1.23.6l-2.49-.65-2.47-.78c-0.67-.49,0-0.35.61-0.21-1-.4-1.73-0.45-3.11-1.12,0.48-.14.58-0.45,2.2,0.06l-0.29-.11c-0.43-.15-1-0.35-1.57-0.59l-2.26-.93c-0.22-.28-2-1.55-1.38-1.37a30.7,30.7,0,0,0-4.25-2.17c-0.78-.4-1.59-0.82-2.39-1.28a14.55,14.55,0,0,1-2.26-1.52,5.27,5.27,0,0,1-1.18-.61c-0.68-.51-1.32-1-2-1.52L410,362.66c-0.63-.54-1.3-1.06-2-1.61s-1.44-1.12-2.28-1.68l-0.64-1c-0.33-.49-0.62-1-0.62-1-2.36-2,1.66,2.74-2.29-.68-1.41-1.2-1.57-1.55-1.46-1.72s0.45-.15.07-0.68c-0.75-.55-1.8-1.28-2.91-2.23a17,17,0,0,1-3.1-3.67c0.83,0.77,1.33,1.5,2.06,2.26l-1.41-2.19c2.49,2,3.81,3.76,2.61,1.61-0.3.15-.86-0.25-1.56-0.91a24.05,24.05,0,0,1-2.31-2.57c-0.78-1-1.57-1.94-2.23-2.64s-1.16-1.17-1.47-1.06l-0.76-1.55c0.27,0.4.37,0.42,0.65,0.82-1.42-3-2.18-1.48-4.36-5.2-0.7-1.32-1-2.34-.4-1.53l-1.93-2.72c-0.35-.68-0.24-0.76.06-0.33l-0.15-.26-0.82-1.53-1.2-2.23h0.05a28.2,28.2,0,0,1-1.91-2.61c-0.37-1.25.39,0.54,0.4,0.17l-0.72-1.22-0.5-.84-0.21-.39c-0.05-.6.21-0.39,0.57,0.2a15.9,15.9,0,0,1,1.27,2.41,3.89,3.89,0,0,0-.8-2.77,15.11,15.11,0,0,1-1.85-4.76s0.07,0.15.16,0.38,0.25,0.52.38,0.82l0.56,1.2a10.26,10.26,0,0,0-.5-2.89c-0.27-1.06-.63-2.26-0.88-3.73,0,0.75.82,6-.45,3.23a13.72,13.72,0,0,0-1.26-3.41c0.43-.15-0.11-1.65-0.68-3.58l0.62,0a10.32,10.32,0,0,0-.82-1.81,7.91,7.91,0,0,1-.7-1.17c-0.49-2.37-.15-3,0.15-3.59-0.58-3.81-.27,2.77-1.18-1.71-0.09-.8-0.19-1.55-0.31-2.25s-0.2-1.42-.33-2.13c-0.25-1.43-.64-2.92-0.94-4.84,0-2.27.4,0.37,0.51-.45l-0.64-2c0-.49.13-0.34,0.21-0.27-0.27-1.67-.62-0.11-0.86-2.76-0.33-.35-0.17-1.74.09-3.42,0.14-.84.27-1.77,0.33-2.68a14,14,0,0,0-.08-2.66c0.23-.8.34,0.41,0.59,0.17-0.07-2.25-.09-3.23-0.14-4.11s0-1.64-.15-3.54l0.39-1.55c0.09-.39.23-0.76,0.31-1.05s0.1-.32.12-0.41c-0.84,2.08-.84-0.89-0.82-3.55l-0.17.37c-0.29.62-.53,1.16-0.68,1.54l0.21-2.11c0-.54.14-1.05,0.19-1.45l0.1-.66c0.21-.47.32,0,0.41,0.72,0-.29,0-0.57,0-0.79a1.14,1.14,0,0,1,.47-0.75,1.72,1.72,0,0,1,.34,1.29l-0.71,1.4c0.18,1.1.41,2.12,0.8,2a8.81,8.81,0,0,1,.08-1.37c0.05,0.28.11,0.47,0.19,0.35a5.38,5.38,0,0,0,0-1.27l0.88-.78L373.5,263l0.82-2.59c0.19-.65.45-1.28,0.62-1.76l0.29-.8c0.11-1,.17-1.93.25-2.92s0.25-2,.41-3c0.08-.54.17-1.08,0.28-1.65s0.27-1.15.43-1.76,0.35-1.25.56-1.93a21.22,21.22,0,0,1,.72-2.1c-0.18,1.61.61,0.62,1.12,0.93a7.85,7.85,0,0,0-1.38,3.14c-0.19.66-.39,1.38-0.61,2.12a21.16,21.16,0,0,1-.7,2.25c0.6-1.56.74-1.12,0.7-.68l0.2-.87c0.07-.26.13-0.57,0.21-0.9s0.19-.66.29-1c0.39-1.38.78-2.76,0.78-2.76,0.2,0.15.39-.09,0.63-0.54s0.56-1.08.95-1.71c-0.66.32-.37-0.71,0.18-2.11,0.13-.35.28-0.72,0.45-1.1l0.53-1.12c0.35-.74.67-1.44,0.87-2,0.35,0,.39.67-1,3.15,2.07-2.43.79-4.14,2.89-6.5h0c0.3-.57.66-1.17,1-1.67,0.59-.9,1.13-1.45,1-1l-0.37.59c0.64-1,1.44-2.16,2.26-3.46s1.79-2.6,2.61-3.87,1.66-2.36,2.2-3.27a4.89,4.89,0,0,0,.84-1.82,3.27,3.27,0,0,1,.31,1.4s0.18-.51.49-1.25l1.15-2.75c0.21-.54.45-1.06,0.68-1.55s0.39-.84.56-1.18c0.36-.74.6-1.24,0.6-1.24a0.7,0.7,0,0,0,.61.56c0.76,0.28,1.79.49,0.15,2.62,0.41-.36.87-0.77,1.4-1.31s1.12-1.24,1.88-2.1c-0.61.43-2,.58-1.35-0.18A21.22,21.22,0,0,0,402.2,212l0.86-.6c0.35-.25.82-0.57,1.52-1-0.82.44-.58-1.1,0.75-2.2-0.1.29,0.7,0.66,0.46,1.13l1.25-1.75c0.32-.47.69-0.89,0.95-1.23l0.31-.41c-0.47.68,0.58,0.65,1.46,0.31a6.12,6.12,0,0,1,1.44-1.22c0.93-.68,2.06-1.42,2.5-1.81l-1.66.88a14.86,14.86,0,0,0,3.67-3.38,15.44,15.44,0,0,1,1.39-1.53,11.06,11.06,0,0,1,2.39-1.73c-0.41.49-.58,1.89,1.65,0.77L422,197a17.33,17.33,0,0,1,1.47-1.87l0.31-.33a18,18,0,0,1,4.46-3.67l0.91-.07,1.49-.87c0.37-.23.76-0.42,1-0.57l0.47-.24c-0.72.61-1.93,1.72-3.28,2.9l-0.84.72c-0.86.7-1.69,1.51-2.49,2.21s-1.55,1.34-2.17,1.87c1.76-.64.63,0.09,3.08-1.2,1-.17-1,1-1.78,1.43l2.82-1.34c0.72-.35,1.46-0.65,2-0.88l0.92-.38c-0.26-.23.79-0.88,1.86-1.52s2.19-1.17,2-1.38l-1,.5-1,.51-1.12.64-3,1.74c-0.27-.23.45-1.05,1.79-2.05a17.79,17.79,0,0,1,2.43-1.55,26,26,0,0,1,3.08-1.35c1.18-.19-0.41,1.38-0.25,1.55a10.48,10.48,0,0,1,2.19-1.12,12.6,12.6,0,0,1,2.19-.74l-1.72.94a13,13,0,0,0,3.14-1.34,9.6,9.6,0,0,1,3.66-1,10.13,10.13,0,0,1,2-.16,1.77,1.77,0,0,0,1.32-.23,2.66,2.66,0,0,1-2.09-1.83,1.24,1.24,0,0,1,.36-1.38l3.16-.31c0.38,0,.77-0.07,1.15-0.09l1.1,0c0.69,0,1.26,0,1.58,0a0.82,0.82,0,0,1,.39.13c0.62,0.44-2.58,1.7-1.18,1.89a3.62,3.62,0,0,1,1.32-.7c1.12,0-.36.62,2,0.11,0.3-.7,4.89-0.57,1.05-0.69a14.28,14.28,0,0,1,2.48-.32c0.68,0,1.42-.08,2.81-0.18-0.46-.17.13-0.58,1.14-1,0.35-.13.76-0.28,1.2-0.41a10.94,10.94,0,0,1,2.46-.52c-0.1.13,0.19,0.27,0.45,0.37l0.22,0.08c1.23,0,2.32,0,3.33,0s1.94,0.12,2.86.18,1.83,0.11,2.79.19,2,0.2,3.12.29c0.41,0.18,2.58.56,1.63,0.75a11.21,11.21,0,0,1,2.68,0c2.62,0.9-3.11-.31-1.14.62,0.21-.33,3.66-0.12,5.66.07a5.11,5.11,0,0,0-2.72-.7c-1.33-.09-2.84-0.11-3.85-0.12,0-.28.5-0.52,1.32-0.69,0.33-.07.71-0.13,1.14-0.17a21.43,21.43,0,0,1,2.7-.13c1,0,2.15.12,3.36,0.24,1.9,0.22,2.28.5,2.28,0.63s-0.41.21-.07,0.23a32.49,32.49,0,0,0,4,.78,24.14,24.14,0,0,0,2.45.25,15.38,15.38,0,0,1,2.23.27,17.38,17.38,0,0,1,3.24,1.18c2.09,1.24-.23,1,0.15,1.5a25.93,25.93,0,0,1-3.6-1.29,27.28,27.28,0,0,0-2.9-1.05l2.44,0.94a18.07,18.07,0,0,1-4.08-1,5.79,5.79,0,0,0,.7.31h0c0.49,0.19,1.14.41,1.91,0.65l2.08,0.63,2.35,0.82c0.82,0.29,1.67.56,2.51,0.88l2.47,1c0.8,0.35,1.61.65,2.32,1s1.4,0.71,2,1a15.66,15.66,0,0,0,2,.48c0.13,0,.13-0.07-0.05-0.21l-1.63-.66c-1.3-1,3.25.84,1.3-.25,1.15,0.33,2.33.79,3.62,1.3,0.64,0.26,1.3.55,2,.88s1.34,0.78,2,1.24l0.23,0.76a9.11,9.11,0,0,0-2.42-1.58,20.63,20.63,0,0,1,2.56,1.73,16.59,16.59,0,0,0,1.57,1,3.52,3.52,0,0,0,1.39.56l-0.88-.8c-0.21-.2-0.44-0.39-0.62-0.54l-0.28-.23c1.11,0.45,2.33,1,3.62,1.63a21.29,21.29,0,0,1,1.92,1,18.7,18.7,0,0,1,1.81,1.3c-0.78-1.26-.59-0.35-2-2.13,1.09,1.69-6.44-4.15-4.41-1.82a10,10,0,0,0-2.37-2,33.25,33.25,0,0,1-2.92-2.12c0,0.21.73,0.79-1.46-.44a4.46,4.46,0,0,1-.57-0.1l-0.07,0,0,0c-0.11,0-.12,0,0,0a5,5,0,0,1,1,.84,17.84,17.84,0,0,1-3.08-1.09c-1.23-.47-2.46-1-3.12-1.14-1.31-.69.65,0.05,0-0.46l-1-.26-1-.21c0-.46-3.42-2.11-0.05-1.05l-2.94-1.18a24.24,24.24,0,0,0-2.86-1.24,18.18,18.18,0,0,0-2.78-.84c-1.42-.49-3.76-0.58-2.42-0.54,0,0-1.2-.28-2.42-0.54l-2.44-.43,0-.11a70.54,70.54,0,0,0-7.46-1.22,79.72,79.72,0,0,1-8-1.18c-0.83,0-1.67,0-2.64-.05s-2.09,0-3.46-.11l-0.53-.38c-1.06,0-2.65,0-4.09,0a9.46,9.46,0,0,0-3.18.22,8.36,8.36,0,0,0-2.66-.25c-0.57,0-1.19,0-1.84.08s-1.32.16-2,.25c-1.37.21-2.78,0.39-4.07,0.66s-2.47.49-3.4,0.61l0,0.49-0.94.17-0.93.23-1.89.5-2,.56c-0.69.21-1.39,0.47-2.15,0.74l0.3,0.35a47.9,47.9,0,0,1-4.85,1.46l-2.94.82c-1,.32-2,0.7-3,1.1a5.71,5.71,0,0,1,2-.82,21.07,21.07,0,0,0-3.8,1.16c-1.23.54-2.41,1.2-3.59,1.84s-2.29,1.35-3.41,2a33.91,33.91,0,0,1-3.32,1.59,10,10,0,0,1-2.46,1.4l0.24-.16-0.41.23c-0.49.18-1,.39-1.5,0.65,0.47-.17.9-0.36,1.28-0.52-0.78.45-1.89,1.26-3,2.07l-0.73-.07-0.25.18c-1.2.57-.77,0.75,0,0.66a11.22,11.22,0,0,0-1.3,1.22,4,4,0,0,0-2,1.15,12.85,12.85,0,0,1-1.11.82,3.22,3.22,0,0,1-1.17.51,23.51,23.51,0,0,1-2.73,2.64,12.63,12.63,0,0,0-2.21,2.62,14.48,14.48,0,0,0-3.09,2.91l-0.86,0-0.9,1.39-0.84,1.44c-1.61,1.17-2.33,1.63-1.3-.09-0.69,1-1.19,1.64-1.58,2.16s-0.65.9-.91,1.24a28.88,28.88,0,0,0-2,3.07l-0.17-.39c-0.88,1.14-1.89,3.24-2.66,3.73a22.51,22.51,0,0,0-2.57,3c-0.26.35-.55,0.72-0.82,1.12l-0.84,1.26-1.8,2.78c-2.37,3.95-4.81,8.56-6.73,12.23,0.84-.5.31,0.31-0.29,1.35s-1.28,2.33-.94,2.64c-0.42.35-1,1.37-.7,0-0.17.5-.33,1-0.49,1.4s-0.29.86-.43,1.26l-0.81,2.16a11.59,11.59,0,0,0-.9,4.06c-0.38.39-.12-1-0.39-0.61a5,5,0,0,1-.41,1.74c-0.27.37,0-.65,0-1.33a20.54,20.54,0,0,0-.54,2.53,5.72,5.72,0,0,0,0,1.52,1.73,1.73,0,0,0,.81,1.25,12.91,12.91,0,0,0-.81,2.52,8,8,0,0,0,0,2.22c-0.37.7-.85,1.9-0.47-0.74-0.08.37-.23,1.12-0.43,2l-0.3,1.47c-0.07.52-.15,1.06-0.22,1.59-0.27,2.11-.46,4.05-0.13,4.16a9,9,0,0,0-.17,2.48c-0.07.84-.13,1.48-0.18,2s0,1-.07,1.46c0,0.9-.05,1.8-0.07,3.45l0.12-.92c0.67,1.31.16,2.74,0.31,5.38l-0.08-.07a23,23,0,0,0,0,3.08,10.86,10.86,0,0,0,.15,1.27,10.29,10.29,0,0,1,.13,1.25c0,0.31,0,.7,0,1.18s0,1.1.07,1.85l0.41-.37c0.52,0.22.55,1.55,0.54,3.25a23,23,0,0,0,.64,5.46s0-.32,0-0.64v-0.64a10.7,10.7,0,0,1,.21,3.65,15.62,15.62,0,0,0,0,3.76c0,0.43-.32-0.6-0.52-1.16,0.8,5,.75.49,1.91,4.06-0.11.76-1.06-.62-0.36,1.83a28.19,28.19,0,0,0,1.81,4.24c0.49,0.94,1,2,1.42,2.94,0.21,0.49.4,1,.56,1.46a11.63,11.63,0,0,1,.44,1.34c-0.09-.8-0.17-1.58.72-0.07,1.12,2.4,2.26,7,4.15,8.68a0.65,0.65,0,0,1,.07.51c0.29,0.41.67,1,1.08,1.59s0.84,1.29,1.32,1.91a19.72,19.72,0,0,0,2.34,2.8,4.63,4.63,0,0,0,1.12,2.59,28.85,28.85,0,0,0,2.68,3.32c1,1.08,1.91,2.13,2.59,2.92s1,1.36.72,1.6l0.66,0.73c0.39,0.43.9,1,1.45,1.61l2.19,2.24h-0.22a19.36,19.36,0,0,0,1.81,1.82c0.54,0.48,1,.86,1.42,1.18a14.69,14.69,0,0,0,2.09,1.33c0.64,0.68,0,.33-0.07.34a39.69,39.69,0,0,0,4.52,4,32.48,32.48,0,0,0,4.61,2.71l0.15,0.68A10.15,10.15,0,0,1,413,370c0.74,0.59,1.72,1.28,2.8,2.07,0.54,0.39,1.11.81,1.71,1.22s1.24,0.78,1.89,1.15,1.31,0.76,2,1.1a20,20,0,0,0,2,.91,1.13,1.13,0,0,1-.66-0.1c3,1.26,6.35,3.22,9.43,4.64s5.79,2.37,7.18,1.94l0.65,0.15c0.39,0.1.92,0.19,1.44,0.29l2.1,0.37c-5.24-1.63,1-.49-1.1-1.38a15.38,15.38,0,0,1,3.06,1.11c0.73,0.33.87,0.56-.42,0.27l-0.37-.19c-1.19.69,6.55,1.91,6.29,2.41a127.28,127.28,0,0,0,15.93,2.08l3.95,0.19c1.3,0,2.62,0,3.91,0,0.65,0,1.3,0,1.95,0l1.93-.12c1.29-.1,2.58-0.13,3.84-0.3l-0.62-.27c-0.31-.13-0.62-0.29-0.62-0.29s0.22,0,.56,0l1.2-.14,1.76-.2c0.94,0,1.32.37-1.2,0.67a6.76,6.76,0,0,0,2.61-.37,4.87,4.87,0,0,0,1.6-.7c4.94-.6-1.77,1.14-0.27.89l2-.41h-0.47c0.8-.29,1.22-0.51,1.83-0.73a11,11,0,0,1,1.09-.32c0.45-.13,1-0.27,1.76-0.44,1.91-.29,1.06.19,1.81,0.05a2.62,2.62,0,0,0,1.14-.25,6.59,6.59,0,0,0,.68-0.17l1.48-.4,2.17-.58-1.88,0c0.92-.4,1.93-0.68,2.44-0.87s0.52-.27-0.52-0.29c1.6,0,5.57-1.2,9.26-2.72,0.94-.35,1.84-0.79,2.7-1.18l2.39-1.09c1.43-.68,2.49-1.24,2.95-1.38,0.57-.41,1.15-0.79,1.75-1.16s1.18-.78,1.79-1.15c1.24-.77,2.59-1.48,4-2.41-0.77.36-1.51,0.11,1-1.4-0.05.41,0.22,0.47,0.7,0.31a9,9,0,0,0,1.91-1c0.75-.47,1.58-1,2.37-1.48,0.39-.23.79-0.45,1.16-0.63a7.84,7.84,0,0,1,.78-0.36c-0.49.09,1-1.1,2.29-2.23a13.42,13.42,0,0,0,1.71-1.65c0.31-.37.24-0.49-0.52-0.12,1.91-1.51.41,0.27,2-.72,0.51-.53,1.06-1,1.59-1.57s1.09-1.09,1.67-1.64l1.77-1.65,1.79-1.75c0.6-.6,1.23-1.18,1.83-1.81l1.78-1.93a46.62,46.62,0,0,0,3.4-4.14c-0.06-.19-1,0.6-0.25-0.76l0.47-.38c0.29-.23.65-0.55,1-0.88l1.44-1.3a4.78,4.78,0,0,0,.52-1.49,2.92,2.92,0,0,1,.39-0.8,6.8,6.8,0,0,1,1-1.16c-0.31.23-.79,0.58-0.32-0.25a77.81,77.81,0,0,0,9.91-18.94c2.54-6.76,4.45-13.73,6.34-20.69-0.66,1.86-.46.58-0.22-0.88-0.24.94-.4-0.09-0.66,0.07,0,0,.09-0.36.22-0.91s0.3-1.28.47-2,0.34-1.46.47-2c0.07-.27.11-0.5,0.13-0.67s0-.25,0-0.25A11.31,11.31,0,0,1,574,291ZM373,261.72a12,12,0,0,1,.66-2.33A6.9,6.9,0,0,1,373,261.72ZM505,186.66H504.9l-1-.45Zm-101.8,21a0.73,0.73,0,0,0-.07.28C403,207.9,402.69,208.1,403.19,207.66ZM377.78,319a2.8,2.8,0,0,1,.41,1.25,2.05,2.05,0,0,1-.75-1c-0.13-.41-0.19-0.91-0.33-1.54C377.29,318,377.56,318.5,377.78,319Zm118.1,66.27-0.71,0C496.69,384.82,496.29,385,495.88,385.26ZM383.8,332.52a1.35,1.35,0,0,1,.15.24ZM383.46,236a9.74,9.74,0,0,1,.55-1.19A2.83,2.83,0,0,0,383.46,236Z" transform="translate(-368.23 -180.47)"/><path class="cls-1" d="M372.85,266.09c-0.19.6-.27,0.58-0.3,0.27A0.5,0.5,0,0,0,372.85,266.09Z" transform="translate(-368.23 -180.47)"/><path class="cls-1" d="M415.17,366.41a0.35,0.35,0,0,1-.15,0l-0.09-.07Z" transform="translate(-368.23 -180.47)"/><path class="cls-1" d="M453.86,186.57c-1.08.16-1.42,0.13-1.4,0A6.34,6.34,0,0,0,453.86,186.57Z" transform="translate(-368.23 -180.47)"/><path class="cls-1" d="M525.89,195.92l-0.32-.18c-0.19-.11-0.44-0.25-0.71-0.38l-1-.53a8.1,8.1,0,0,1,1.73,1.2C525.57,195.91,525.28,195.54,525.89,195.92Z" transform="translate(-368.23 -180.47)"/><path class="cls-1" d="M541,210.7l-0.07.21h0c-0.27-.19-0.51-0.48-0.79-0.67a4.77,4.77,0,0,1-.33-0.39h0C539.35,209.37,540.08,209.89,541,210.7Z" transform="translate(-368.23 -180.47)"/><path class="cls-1" d="M526.89,198.37a1.33,1.33,0,0,0,.77.8c0.24,0.16.53,0.33,0.85,0.52l1,0.63-0.23-.16c0.35-.08.14-0.34-0.33-0.68A20.42,20.42,0,0,0,526.89,198.37Z" transform="translate(-368.23 -180.47)"/><path class="cls-1" d="M529.79,200.52c0.41,0.27.83,0.56,1.22,0.85C531.29,201.31,530.55,201,529.79,200.52Z" transform="translate(-368.23 -180.47)"/><path class="cls-1" d="M512.67,189.59c0.66,0.41.64-.25,1,0.07,0.5,0-.75-0.44-1.61-0.64a1.15,1.15,0,0,0-.75-0.06A5.39,5.39,0,0,0,512.67,189.59Z" transform="translate(-368.23 -180.47)"/><polygon class="cls-1" points="159.06 19.66 158.78 19.44 158.68 19.38 157.88 18.79 158.84 18.95 159.06 19.64 159.06 19.66"/><path class="cls-1" d="M516.56,193.53l2.21,1.28a1,1,0,0,1,.69.17A17.46,17.46,0,0,0,516.56,193.53Z" transform="translate(-368.23 -180.47)"/><path class="cls-1" d="M519.46,195a17.17,17.17,0,0,0,1.83.94C520.9,195.71,520.07,195.23,519.46,195Z" transform="translate(-368.23 -180.47)"/><path class="cls-1" d="M524.19,198.3c-0.17-.12-0.56-0.39-1-0.64l-1-.64,1.45,0.86,0.29,0.24Z" transform="translate(-368.23 -180.47)"/><path class="cls-1" d="M490.67,184.63l-2.77-.36c-0.31.11,0.42,0.34,1.45,0.46C490,184.74,491.06,184.86,490.67,184.63Z" transform="translate(-368.23 -180.47)"/><path class="cls-1" d="M498.52,187.84l-1.31-.13,0.23-.54A3.52,3.52,0,0,0,498.52,187.84Z" transform="translate(-368.23 -180.47)"/><path class="cls-1" d="M490.11,186.43c-3.42-.58.27-0.22,0.58-0.33C493.14,186.71,490.41,186.3,490.11,186.43Z" transform="translate(-368.23 -180.47)"/><polygon class="cls-1" points="81.83 5.15 81.15 5.31 81.26 5.01 81.54 4.23 81.75 4.91 81.83 5.15"/><path class="cls-1" d="M419.84,199.67c-2.62,1.3-.1.7-2.93,2.23-1.1-.05-0.17-0.49,1.34-1.75C417.7,200.73,420.36,199.06,419.84,199.67Z" transform="translate(-368.23 -180.47)"/><path class="cls-1" d="M419,199.49c-0.26.25-.52,0.46-0.76,0.66C418.38,200,418.58,199.85,419,199.49Z" transform="translate(-368.23 -180.47)"/><path class="cls-1" d="M574.87,290.77s0.11-.54.16-1.08l0.13-1.08L574.8,290s0,0.19,0,.39Z" transform="translate(-368.23 -180.47)"/><path class="cls-1" d="M574.29,286.6l0.63-.5-0.52-1.3A6.37,6.37,0,0,1,574.29,286.6Z" transform="translate(-368.23 -180.47)"/><path class="cls-1" d="M376.69,313.47a4.73,4.73,0,0,1-.29-1.75l0.18,0.11Z" transform="translate(-368.23 -180.47)"/><polygon class="cls-1" points="19.24 156.86 19.01 157.5 19 156.45 19.24 156.86"/><path class="cls-1" d="M402.65,355c-0.25.58-.6-0.35-1.67-1.56C401.52,354,402.14,354.5,402.65,355Z" transform="translate(-368.23 -180.47)"/><path class="cls-2" d="M420.22,294.49a27.83,27.83,0,0,0-2-8.22,8.31,8.31,0,0,0-3.31-3.2,8.63,8.63,0,0,0-4.37-1.59c-0.85,0-2.09-.87-3.72-2.56a8.85,8.85,0,0,1-1.93-2.56,9.87,9.87,0,0,1-.22-4,7.15,7.15,0,0,1,.77-3.38,4.1,4.1,0,0,1,3.23-2.44,0.85,0.85,0,0,1,.39-0.17,0.25,0.25,0,0,1,.28.06c0.56-.06,1,0,1.07-0.06,0.49-.14.57,0.62,0.22,2.24a5.39,5.39,0,0,0,.63,3.89,3.32,3.32,0,0,0,1.92,1.75,7.62,7.62,0,0,0,3.09-2.7,18.45,18.45,0,0,0,3.14-6,12.65,12.65,0,0,0,.8-3.61,9.14,9.14,0,0,0-.91-2.89,11.11,11.11,0,0,0-3.09-4,10.78,10.78,0,0,0-4.63-1.54c-0.8-.12-1.56-0.2-2.27-0.25a12.09,12.09,0,0,0-1.76.19,17.77,17.77,0,0,0-6.24,3,22.8,22.8,0,0,0-5.48,5,29,29,0,0,0-3.78,7.24,21.45,21.45,0,0,0-1.76,7.26,14.57,14.57,0,0,0,1.92,6.13,18.87,18.87,0,0,0,3.83,5.48,38,38,0,0,0,6.5,4,10.67,10.67,0,0,1,4.11,3,9.24,9.24,0,0,1,.91,4.79,8,8,0,0,1-1.82,4.8q-1.81,2.46-3.61,2.46a2,2,0,0,1-.65-0.11,2.27,2.27,0,0,1-.71.11c-1.13,0-2.9-1.11-5.33-3.31-2-1.78-3.72-2.77-5-3a10.29,10.29,0,0,0-4,1.82q-5.86,4.05-.63,8.74a26.77,26.77,0,0,0,6.61,4.16,15.94,15.94,0,0,0,4.53,1.39c0.76,0.08,1.87.12,3.35,0.14l2,0a51.68,51.68,0,0,0,6.66-.54,8.61,8.61,0,0,0,3.37-1.92,26.28,26.28,0,0,0,5-5.55,19.24,19.24,0,0,0,3.09-6.09Q421,300.14,420.22,294.49Z" transform="translate(-368.23 -180.47)"/><path class="cls-3" d="M411.22,272.46a3.32,3.32,0,0,0,1.92,1.75,1.86,1.86,0,0,0,.71.12c1,0,2.27-.94,3.72-2.83a18.8,18.8,0,0,0,3.15-6,12.44,12.44,0,0,0,.79-3.61,9,9,0,0,0-.9-2.89,11.28,11.28,0,0,0-3.09-4,10.93,10.93,0,0,0-4.65-1.54,19,19,0,0,0-3.61-.25,12.09,12.09,0,0,0-1.76.19,17.77,17.77,0,0,0-6.24,3,22.8,22.8,0,0,0-5.48,5,29,29,0,0,0-3.78,7.24,21.45,21.45,0,0,0-1.76,7.26,14.57,14.57,0,0,0,1.92,6.13,18.87,18.87,0,0,0,3.83,5.48,38,38,0,0,0,6.5,4,10.67,10.67,0,0,1,4.11,3,9.24,9.24,0,0,1,.91,4.79,8,8,0,0,1-1.82,4.8q-1.81,2.46-3.61,2.46a2,2,0,0,1-.65-0.11c-1.13-.31-2.69-1.39-4.68-3.2s-3.88-2.86-5.24-3a3.72,3.72,0,0,0-1.16,0,10.29,10.29,0,0,0-4,1.82q-5.86,4.05-.63,8.74a26.77,26.77,0,0,0,6.61,4.16,15.94,15.94,0,0,0,4.53,1.39c0.76,0.08,1.87.12,3.35,0.14l2,0a51.68,51.68,0,0,0,6.66-.54,8.61,8.61,0,0,0,3.37-1.92,26.28,26.28,0,0,0,5-5.55,19.24,19.24,0,0,0,3.09-6.09q0.65-2.22-.09-7.88a27.83,27.83,0,0,0-2-8.22,8.31,8.31,0,0,0-3.31-3.2,8.63,8.63,0,0,0-4.37-1.59c-0.85,0-2.09-.87-3.72-2.56a8.85,8.85,0,0,1-1.93-2.56,9.87,9.87,0,0,1-.22-4,7.15,7.15,0,0,1,.77-3.38,4.1,4.1,0,0,1,3.23-2.44,0.85,0.85,0,0,1,.39-0.17,0.25,0.25,0,0,1,.28.06c0.56-.06,1,0,1.07-0.06,0.49-.14.57,0.62,0.22,2.24A5.39,5.39,0,0,0,411.22,272.46Zm-2.66-8.26c-1.73.34-3.06,2-4.59,5.87-0.29.8-.57,1.64-0.87,2.5l-0.06.22a8.77,8.77,0,0,0-.29,4.17,9.53,9.53,0,0,0,2.44,3.48c2.15,2.24,3.78,3.23,5.31,3.23a6.59,6.59,0,0,1,3.21,1.27,6.19,6.19,0,0,1,2.5,2.33c0.51,1,1.24,3.14,1.82,7.51,0.6,4.54.37,6.33,0.15,7.07a17.52,17.52,0,0,1-2.77,5.36,24.1,24.1,0,0,1-4.62,5.11,6.42,6.42,0,0,1-2.43,1.47,51,51,0,0,1-6.24.48,59.78,59.78,0,0,1-6.36-.09,14.33,14.33,0,0,1-3.88-1.2,24.67,24.67,0,0,1-6.06-3.8c-1.16-1-1.78-2-1.73-2.72s0.8-1.67,2.15-2.6c1.88-1.3,2.93-1.5,3.41-1.5a0.53,0.53,0,0,1,.17,0c0.42,0,1.65.4,4,2.47,2.94,2.69,5,3.88,6.8,3.88,1.95,0,3.75-1.11,5.39-3.34a10.27,10.27,0,0,0,2.24-6.1c0-2.77-.4-4.67-1.27-6s-2.41-2.47-4.93-3.74a34.94,34.94,0,0,1-6.06-3.74,16.54,16.54,0,0,1-3.34-4.85c-1.39-2.73-1.68-4.29-1.68-5.13a19.36,19.36,0,0,1,1.61-6.47,27.68,27.68,0,0,1,3.49-6.72,21.39,21.39,0,0,1,5-4.53,16.11,16.11,0,0,1,5.41-2.64,14.38,14.38,0,0,1,4.65.08,9,9,0,0,1,3.65,1.13,9.07,9.07,0,0,1,2.41,3.18A7.32,7.32,0,0,1,418,262a10.49,10.49,0,0,1-.7,2.87,16.31,16.31,0,0,1-2.8,5.31,6.15,6.15,0,0,1-2,2,1.37,1.37,0,0,1-.71-0.76,3.19,3.19,0,0,1-.4-2.35c0.32-1.48.57-3.17-.57-4.25A2.47,2.47,0,0,0,408.56,264.2Z" transform="translate(-368.23 -180.47)"/><path class="cls-2" d="M430.86,270.21q3.55-.6,5.6-0.9t3.25-.35a4,4,0,0,1,1.61.14,0.76,0.76,0,0,1,.46.63,1.74,1.74,0,0,0,1.07,1.28,9,9,0,0,0,3.09.35,6.58,6.58,0,0,1,3,.41q0.57,0.41.35,2a3,3,0,0,1-1,2,12.84,12.84,0,0,1-3.17,1.61,52.57,52.57,0,0,1-8.25,2c-1.6.29-1,.67-1.4,1.15s-0.55,1.64-.55,3.5-0.15,4.9-.44,9.34-0.44,6.85-.44,7.21a1.73,1.73,0,0,1-.22,1.09,14.85,14.85,0,0,1-2.12.83,3,3,0,0,0-1.5.37,2,2,0,0,1-.74.49,0.51,0.51,0,0,1-.41-0.05l-0.71-.49a8.24,8.24,0,0,0-1.26-.71,2.13,2.13,0,0,1-1.26-1.26,7.48,7.48,0,0,1-.38-2.73q0-1.8.11-3.69t0.33-5.33q0.22-3.44.27-6.45a26,26,0,0,0-.05-3.36,1.87,1.87,0,0,0-.71-1.12,4,4,0,0,0-1.67-.74q-1.06-.25-1.86-0.38a2.53,2.53,0,0,1-1.42-.79,2.66,2.66,0,0,1-.63-1.91,2.39,2.39,0,0,1,.74-2,8.12,8.12,0,0,1,3.14-1Z" transform="translate(-368.23 -180.47)"/><path class="cls-2" d="M454.53,272q1.59-1.48,5.57-1.69a8.31,8.31,0,0,1,3.36,1,13.28,13.28,0,0,1,3.41,2.13,15.15,15.15,0,0,1,3,4.64,25.25,25.25,0,0,1,1.94,6.34,11.75,11.75,0,0,1-1,5.57,16.35,16.35,0,0,1-3.2,5.57,14.57,14.57,0,0,1-10.44,4.75,8.56,8.56,0,0,1-5.93-2.29,14.24,14.24,0,0,1-3.85-6.5A15.44,15.44,0,0,1,447,288a8.4,8.4,0,0,1,.33-3.17,31.8,31.8,0,0,1,1.78-4,13.45,13.45,0,0,1,1.53-2.38,11.31,11.31,0,0,1,1.26-1.23,2.37,2.37,0,0,1,1-.57,1.18,1.18,0,0,0,.66-0.35,0.85,0.85,0,0,0,.3-0.57c0-.18,0-0.6-0.05-1.26a4.31,4.31,0,0,1-.05-1.5A2.46,2.46,0,0,1,454.53,272Zm7.38,8.58a2.56,2.56,0,0,0-.63-1.09,2.18,2.18,0,0,0-1.07-.27,2.85,2.85,0,0,0-2,.44,12,12,0,0,0-2.08,2.68,12.47,12.47,0,0,0-1.31,2.49,12.17,12.17,0,0,0-.38,2.76,11.42,11.42,0,0,0,0,2.54,3.81,3.81,0,0,0,.9,1.45,4,4,0,0,0,1.07.9,1.5,1.5,0,0,0,1,.08,5.52,5.52,0,0,0,3.14-2.54A11.26,11.26,0,0,0,461.9,280.53Z" transform="translate(-368.23 -180.47)"/><path class="cls-2" d="M510.68,272.44a2.1,2.1,0,0,1-.8,1.11,2,2,0,0,1-.78.29,3.13,3.13,0,0,1-.94.09,3.57,3.57,0,0,1-1.23-.44,6,6,0,0,1-1.27-.91,2.77,2.77,0,0,1-.61-1.19,3.85,3.85,0,0,1-.2-1.5,3.43,3.43,0,0,1,1.28-2.38,2,2,0,0,1,1.44-.42,3.35,3.35,0,0,1,1.65.67,3.64,3.64,0,0,1,.57.6,2,2,0,0,1,.39.64,7.49,7.49,0,0,1,.24,1,3.17,3.17,0,0,1,.05.66,2.67,2.67,0,0,1-.06.41,0.56,0.56,0,0,1-.1.25,0.28,0.28,0,0,0-.07.16,0.2,0.2,0,0,0,0,.15l0.19,0.23a1,1,0,0,1,.22.27A0.58,0.58,0,0,1,510.68,272.44Z" transform="translate(-368.23 -180.47)"/><path class="cls-2" d="M478.2,272.6q1.23-3.46,1.64-3.75,0.59-.41,1.58,1.17,0.41,0.7.58,0.94a0.91,0.91,0,0,0,.65.29,2.52,2.52,0,0,0,.94-0.06,14.43,14.43,0,0,1,1.85-.23q1.38-.12,3.08-0.12a11.14,11.14,0,0,1,4.86.94,7.88,7.88,0,0,1,3.93,4.07,8.67,8.67,0,0,1,.06,5.89,7.34,7.34,0,0,1-1,2.2,17.82,17.82,0,0,1-2.08,2.37q-2.46,2.34-3.52,2.58a2.44,2.44,0,0,0-1.58,1A3.25,3.25,0,0,0,489,292a14.36,14.36,0,0,0,1.35,3.84,33.72,33.72,0,0,0,2.69,4.72,13.73,13.73,0,0,0,3.69,3.4l0.53,0.35a25.28,25.28,0,0,1,3,2.14,1.64,1.64,0,0,1,.23,1.44,0.92,0.92,0,0,0-.06.23,2.62,2.62,0,0,1-1.35,2.05,8.49,8.49,0,0,1-3.69.56,10,10,0,0,1-4-.7,19.7,19.7,0,0,1-4.57-3.87q-3.11-3.19-3.34-4.31a7.39,7.39,0,0,0-.7-1.67,10.34,10.34,0,0,0-1.08-1.64A1,1,0,0,0,481,298a4.76,4.76,0,0,0-.44,2,17.64,17.64,0,0,1-.76,3.54q-0.56,1.7-1.67,1.7a2.67,2.67,0,0,0-2,1.52l-1,1.58-3.63-2.46,0.23-3.75a30,30,0,0,1,.32-3.4,12.44,12.44,0,0,1,.44-1.85q0.23-.67.82-2.9t1.29-5.45q0.23-1,.88-3.19a36.86,36.86,0,0,0,.94-3.84,8.94,8.94,0,0,0,.06-3,2.11,2.11,0,0,1-.09-1.26,3.19,3.19,0,0,1,.29-0.91q0.15-.23.65-1.29A17.91,17.91,0,0,0,478.2,272.6ZM489,278.46q-0.29-.47-2.2-0.35a5.75,5.75,0,0,0-2.61.59,2,2,0,0,0-.7.94,7.37,7.37,0,0,0-.18,2q0,2.34.35,2.58,0.76,0.41,3.28-2.31T489,278.46Z" transform="translate(-368.23 -180.47)"/><path class="cls-2" d="M503.67,276.83q0.93-1.36,1.91-.74a8.68,8.68,0,0,1,2.29,3.36,7.79,7.79,0,0,1,.76,2.21,23,23,0,0,1-.05,3.47q-0.22,2.79-.68,5.41t-0.79,5.68a21.7,21.7,0,0,1-1,5.52,1.56,1.56,0,0,1-.77.87,10.24,10.24,0,0,1-2.13.05q-2.68-.16-3.33-0.79t-0.66-3.14a34.65,34.65,0,0,1,.38-5.24q1.31-8.36,2.1-11.64A15.39,15.39,0,0,1,503.67,276.83Z" transform="translate(-368.23 -180.47)"/><path class="cls-2" d="M529,275.79q0.38-.38,2.49-0.3c1.4,0.05,2.21.21,2.43,0.46a3.19,3.19,0,0,1,.41,1.48,14.51,14.51,0,0,1,.08,2.35,1.21,1.21,0,0,1-.3.66,1.76,1.76,0,0,1-.52.41c-0.18.09-.49,0.22-0.93,0.38a11.76,11.76,0,0,0-1.09.46,27.16,27.16,0,0,1-5.35,1.37,2.53,2.53,0,0,0-1.36.66,0.77,0.77,0,0,0-.22,1q0.27,0.44,2.57.22a4.51,4.51,0,0,1,2.57.16,2.43,2.43,0,0,1,.55,2,3.6,3.6,0,0,1-.22,1.45,3.52,3.52,0,0,1-.93,1.07,3.36,3.36,0,0,1-1.75.93,4,4,0,0,0-1.8.76l-1.2.71,0.11,2.84q0.05,2.41.52,2.87t1.67-.74a19.54,19.54,0,0,1,2.73-2.13,14.54,14.54,0,0,1,2.62-1.53,0.79,0.79,0,0,1,.68,0,1.09,1.09,0,0,1,.14.68,1.64,1.64,0,0,0,.55,1.37,1.4,1.4,0,0,1,.47,1,24.13,24.13,0,0,1,0,2.73l-0.11,3.28L532,304a14,14,0,0,1-3.63,2.54,9.49,9.49,0,0,1-3.85.57,16.6,16.6,0,0,1-2.6-.25,8.79,8.79,0,0,1-2.16-.79,6.88,6.88,0,0,1-2.62-2,10.76,10.76,0,0,1-1.28-3,14.49,14.49,0,0,1-.63-3.5,46.44,46.44,0,0,1,.66-6.39q0.71-4.92,1.37-7.7a16.57,16.57,0,0,1,1-3.17,13.38,13.38,0,0,1,1.78-2.57,4.78,4.78,0,0,1,1.75-1.45,2.09,2.09,0,0,1,1.69.3,5.64,5.64,0,0,0,2.81,0A6.18,6.18,0,0,0,529,275.79Z" transform="translate(-368.23 -180.47)"/><path class="cls-2" d="M551.51,275.47a8.31,8.31,0,0,1,2.76,0,5.66,5.66,0,0,1,2.38.79,5.77,5.77,0,0,1,1.58,2.08,4.78,4.78,0,0,1,.46,1.48,6.46,6.46,0,0,1-.41,1.86,9.46,9.46,0,0,1-1.61,3.09,3,3,0,0,1-1.91,1.45,1.57,1.57,0,0,1-1.34-1,2.75,2.75,0,0,1-.33-2q0.27-1.26-.11-1.15-0.66.11-1.53,2.29-0.22.6-.44,1.26a4,4,0,0,0-.16,1.59,4.39,4.39,0,0,0,1,1.31,3.47,3.47,0,0,0,1.91,1.31,4.45,4.45,0,0,1,2.24.82,4.3,4.3,0,0,1,1.69,1.64,14.27,14.27,0,0,1,1,4.21,11.49,11.49,0,0,1,.05,4,10,10,0,0,1-1.59,3.11,13.24,13.24,0,0,1-2.57,2.84,4.38,4.38,0,0,1-1.72,1,25.93,25.93,0,0,1-3.41.27,29.32,29.32,0,0,1-3.41-.05,8.3,8.3,0,0,1-2.32-.71,13.8,13.8,0,0,1-3.39-2.13q-2.68-2.4.33-4.48a4,4,0,0,1,2.62-1A5.83,5.83,0,0,1,546,301q1.86,1.69,2.73,1.69a2.49,2.49,0,0,0,1.86-1.26,4.15,4.15,0,0,0,.93-2.46,4.74,4.74,0,0,0-.47-2.46,5.49,5.49,0,0,0-2.1-1.53,19.21,19.21,0,0,1-3.33-2.08,9.58,9.58,0,0,1-2-2.81,7.46,7.46,0,0,1-1-3.14,11.15,11.15,0,0,1,.9-3.72,15.11,15.11,0,0,1,1.94-3.71,11.84,11.84,0,0,1,2.81-2.57A9.12,9.12,0,0,1,551.51,275.47Z" transform="translate(-368.23 -180.47)"/><path class="cls-2" d="M411.22,272.46a3.32,3.32,0,0,0,1.92,1.75,1.86,1.86,0,0,0,.71.12c1,0,2.27-.94,3.72-2.83a18.8,18.8,0,0,0,3.15-6,12.44,12.44,0,0,0,.79-3.61,9,9,0,0,0-.9-2.89,11.28,11.28,0,0,0-3.09-4,10.93,10.93,0,0,0-4.65-1.54,19,19,0,0,0-3.61-.25,12.09,12.09,0,0,0-1.76.19,17.77,17.77,0,0,0-6.24,3,22.8,22.8,0,0,0-5.48,5,29,29,0,0,0-3.78,7.24,21.45,21.45,0,0,0-1.76,7.26,14.57,14.57,0,0,0,1.92,6.13,18.87,18.87,0,0,0,3.83,5.48,38,38,0,0,0,6.5,4,10.67,10.67,0,0,1,4.11,3,9.24,9.24,0,0,1,.91,4.79,8,8,0,0,1-1.82,4.8q-1.81,2.46-3.61,2.46a2,2,0,0,1-.65-0.11c-1.13-.31-2.69-1.39-4.68-3.2s-3.88-2.86-5.24-3a3.72,3.72,0,0,0-1.16,0,10.29,10.29,0,0,0-4,1.82q-5.86,4.05-.63,8.74a26.77,26.77,0,0,0,6.61,4.16,15.94,15.94,0,0,0,4.53,1.39c0.76,0.08,1.87.12,3.35,0.14l2,0a51.68,51.68,0,0,0,6.66-.54,8.61,8.61,0,0,0,3.37-1.92,26.28,26.28,0,0,0,5-5.55,19.24,19.24,0,0,0,3.09-6.09q0.65-2.22-.09-7.88a27.83,27.83,0,0,0-2-8.22,8.31,8.31,0,0,0-3.31-3.2,8.63,8.63,0,0,0-4.37-1.59c-0.85,0-2.09-.87-3.72-2.56a8.85,8.85,0,0,1-1.93-2.56,9.87,9.87,0,0,1-.22-4,7.15,7.15,0,0,1,.77-3.38,4.1,4.1,0,0,1,3.23-2.44,3.71,3.71,0,0,1,.66-0.11c0.56-.06,1,0,1.07-0.06,0.49-.14.57,0.62,0.22,2.24A5.39,5.39,0,0,0,411.22,272.46Z" transform="translate(-368.23 -180.47)"/><path class="cls-1" d="M588.48,279.18q1.54-1.57,5.59-2a8.45,8.45,0,0,1,3.47.9,13.51,13.51,0,0,1,3.57,2,15.42,15.42,0,0,1,3.3,4.58,25.7,25.7,0,0,1,2.27,6.35,12,12,0,0,1-.76,5.71,16.64,16.64,0,0,1-3,5.82,14.83,14.83,0,0,1-10.38,5.33,8.71,8.71,0,0,1-6.13-2.05,14.49,14.49,0,0,1-4.22-6.43,15.72,15.72,0,0,1-.55-3.54,8.55,8.55,0,0,1,.18-3.24,32.37,32.37,0,0,1,1.61-4.17,13.69,13.69,0,0,1,1.44-2.49,11.51,11.51,0,0,1,1.22-1.31,2.42,2.42,0,0,1,1-.63,1.2,1.2,0,0,0,.65-0.39A0.86,0.86,0,0,0,588,283c0-.18,0-0.61-0.12-1.27a4.38,4.38,0,0,1-.13-1.53A2.51,2.51,0,0,1,588.48,279.18Zm7.91,8.37a2.6,2.6,0,0,0-.69-1.08,2.22,2.22,0,0,0-1.1-.23,2.9,2.9,0,0,0-2,.54,12.16,12.16,0,0,0-2,2.82,12.69,12.69,0,0,0-1.22,2.59,12.39,12.39,0,0,0-.26,2.82,11.63,11.63,0,0,0,.15,2.58,3.88,3.88,0,0,0,1,1.43,4,4,0,0,0,1.13.87,1.53,1.53,0,0,0,1,0,5.62,5.62,0,0,0,3.07-2.73A11.46,11.46,0,0,0,596.38,287.55Z" transform="translate(-368.23 -180.47)"/><path class="cls-1" d="M635.91,285.21a53.2,53.2,0,0,1-.44,6.12q-0.5,4.73-.46,5.56a4.43,4.43,0,0,1-.66,2.54L633,301.77a13.27,13.27,0,0,1-2.14,2.49,9.31,9.31,0,0,1-2.56,1.9,19.89,19.89,0,0,1-4.09,1.22,29.09,29.09,0,0,1-4.56.74,15.75,15.75,0,0,1-3.85-.27,8.59,8.59,0,0,1-3.34-1.26,10.52,10.52,0,0,1-2.25-3,16.52,16.52,0,0,1-1.4-3.08,32.05,32.05,0,0,1-.63-4.51,26.62,26.62,0,0,1-.23-3.83q0-1.78.09-2.26c0-.32.15-1.06,0.34-2.21s0.34-2.39.47-3.7a19.08,19.08,0,0,1,1-4.61,7.14,7.14,0,0,1,1.87-2.82,2.78,2.78,0,0,1,2-1,4.84,4.84,0,0,1,2.32,1.48,6.83,6.83,0,0,1,1.89,3,20.94,20.94,0,0,1,.38,5.24q0,0.78-.06,2.23-0.17,6-.09,7.1a4.25,4.25,0,0,0,.74,2.11,1.25,1.25,0,0,0,.24.32q1.08,1.68,1.55,1.65a3.51,3.51,0,0,0,1.59-1.08,8.69,8.69,0,0,0,1.92-3.57,12.73,12.73,0,0,0,.76-4.52,13.21,13.21,0,0,1,.4-3.39,13.93,13.93,0,0,0,.39-3.67,10.88,10.88,0,0,1,.58-3.78,7.78,7.78,0,0,1,1.61-3.05,3.36,3.36,0,0,1,2.35-.94,2.47,2.47,0,0,1,1.43.24,8.31,8.31,0,0,1,1.44,1.63,16.94,16.94,0,0,1,1.89,4.09A17.19,17.19,0,0,1,635.91,285.21Z" transform="translate(-368.23 -180.47)"/><path class="cls-1" d="M647.72,274.64q3.58-.78,5.65-1.18t3.29-.51a4.11,4.11,0,0,1,1.65.06,0.78,0.78,0,0,1,.5.62,1.77,1.77,0,0,0,1.14,1.26,9.21,9.21,0,0,0,3.16.21,6.7,6.7,0,0,1,3.1.27q0.6,0.39.46,2.07a3.06,3.06,0,0,1-.9,2.13,13.07,13.07,0,0,1-3.15,1.79,53.51,53.51,0,0,1-8.29,2.45q-2.42.56-2.94,1.31T651,288.68q0.13,2.72,0,9.52t-0.1,7.35a1.76,1.76,0,0,1-.17,1.12,2.18,2.18,0,0,1-.84.46,3.05,3.05,0,0,0-1.21.86,2.08,2.08,0,0,1-.73.53,0.52,0.52,0,0,1-.42,0l-0.75-.47a8.38,8.38,0,0,0-1.31-.66,2.17,2.17,0,0,1-1.34-1.22,7.62,7.62,0,0,1-.52-2.76q-0.09-1.83-.06-3.75t0.08-5.43q0.06-3.51,0-6.57a26.41,26.41,0,0,0-.21-3.41,1.9,1.9,0,0,0-.77-1.1,4.11,4.11,0,0,0-1.73-.67q-1.09-.2-1.91-0.3a2.58,2.58,0,0,1-1.48-.74,2.7,2.7,0,0,1-.73-1.91,2.43,2.43,0,0,1,.65-2.06,8.27,8.27,0,0,1,3.15-1.18Z" transform="translate(-368.23 -180.47)"/></svg>